<svg xmlns="http://www.w3.org/2000/svg" xmlns:xlink="http://www.w3.org/1999/xlink" width="500" zoomAndPan="magnify" viewBox="0 0 375 374.999991" height="500" preserveAspectRatio="xMidYMid meet" version="1.0"><defs><g/><clipPath id="3be08e943e"><path d="M 9 37.5 L 365 37.5 L 365 341 L 9 341 Z M 9 37.5 " clip-rule="nonzero"/></clipPath><clipPath id="4cf5102080"><path d="M 346.183594 189.355469 L 354.128906 180.949219 C 368.355469 165.898438 368.355469 141.40625 354.128906 126.355469 L 281.296875 49.308594 C 274.238281 41.84375 264.8125 37.730469 254.757812 37.730469 C 244.703125 37.734375 235.277344 41.847656 228.21875 49.3125 L 221.015625 56.933594 L 213.808594 49.3125 C 206.753906 41.84375 197.328125 37.730469 187.269531 37.730469 C 177.214844 37.730469 167.789062 41.84375 160.730469 49.308594 L 153.515625 56.941406 L 146.296875 49.304688 C 139.238281 41.839844 129.8125 37.730469 119.757812 37.730469 C 119.757812 37.730469 119.753906 37.730469 119.753906 37.730469 C 109.699219 37.730469 100.273438 41.84375 93.21875 49.3125 L 20.40625 126.355469 C 6.179688 141.40625 6.183594 165.898438 20.40625 180.945312 L 28.355469 189.355469 L 20.40625 197.765625 C 6.179688 212.816406 6.179688 237.300781 20.40625 252.355469 L 93.214844 329.398438 C 100.273438 336.867188 109.699219 340.980469 119.753906 340.980469 C 119.757812 340.980469 119.757812 340.980469 119.757812 340.980469 C 129.8125 340.980469 139.238281 336.871094 146.292969 329.40625 L 153.515625 321.769531 L 160.730469 329.402344 C 167.789062 336.867188 177.210938 340.980469 187.269531 340.980469 C 197.324219 340.980469 206.75 336.867188 213.808594 329.402344 L 221.015625 321.777344 L 228.21875 329.398438 C 235.273438 336.867188 244.699219 340.980469 254.757812 340.980469 C 264.8125 340.980469 274.238281 336.867188 281.296875 329.402344 L 354.128906 252.355469 C 368.355469 237.304688 368.355469 212.816406 354.128906 197.761719 Z M 160.730469 285.9375 L 153.515625 293.566406 L 55.019531 189.355469 L 104.265625 137.25 L 153.515625 85.148438 L 160.726562 92.777344 C 161.730469 93.835938 162.792969 94.8125 163.890625 95.738281 C 165.683594 97.25 167.578125 98.589844 169.578125 99.71875 C 169.582031 99.722656 169.589844 99.726562 169.59375 99.726562 C 171.734375 100.933594 173.984375 101.914062 176.3125 102.65625 C 176.339844 102.667969 176.371094 102.671875 176.402344 102.679688 C 178.707031 103.410156 181.089844 103.910156 183.527344 104.160156 C 184.148438 104.222656 184.785156 104.222656 185.414062 104.257812 C 186.03125 104.285156 186.640625 104.351562 187.261719 104.351562 C 187.261719 104.351562 187.265625 104.351562 187.265625 104.351562 C 189.777344 104.351562 192.253906 104.09375 194.660156 103.589844 C 201.882812 102.082031 208.507812 98.371094 213.804688 92.773438 L 220.460938 85.726562 L 221.011719 85.144531 L 319.519531 189.359375 L 221.015625 293.574219 L 213.804688 285.945312 C 206.746094 278.476562 197.324219 274.363281 187.265625 274.363281 C 187.265625 274.363281 187.265625 274.363281 187.261719 274.363281 C 177.210938 274.363281 167.785156 278.472656 160.730469 285.9375 Z M 242.292969 62.625 C 245.65625 59.070312 250.082031 57.109375 254.757812 57.109375 C 259.4375 57.109375 263.863281 59.070312 267.226562 62.625 L 340.058594 139.671875 C 347.34375 147.378906 347.34375 159.925781 340.058594 167.632812 L 332.855469 175.253906 L 234.347656 71.039062 Z M 174.804688 62.625 C 178.167969 59.070312 182.59375 57.109375 187.269531 57.109375 C 191.945312 57.109375 196.375 59.070312 199.734375 62.621094 L 207.6875 71.035156 L 199.730469 79.453125 C 197.628906 81.675781 195.113281 83.277344 192.378906 84.160156 C 190.738281 84.691406 189.023438 84.96875 187.269531 84.96875 C 182.59375 84.96875 178.164062 83.011719 174.804688 79.457031 L 166.851562 71.042969 Z M 34.480469 167.628906 C 27.195312 159.921875 27.195312 147.378906 34.480469 139.667969 L 107.292969 62.625 C 110.652344 59.070312 115.082031 57.109375 119.757812 57.109375 C 124.433594 57.109375 128.859375 59.066406 132.21875 62.621094 L 140.1875 71.046875 L 41.6875 175.25 Z M 119.757812 321.601562 C 115.082031 321.601562 110.652344 319.644531 107.289062 316.085938 L 34.480469 239.042969 C 27.191406 231.332031 27.191406 218.789062 34.480469 211.082031 L 41.683594 203.457031 L 140.183594 307.667969 L 132.21875 316.089844 C 128.859375 319.644531 124.433594 321.601562 119.757812 321.601562 Z M 187.269531 321.601562 C 182.59375 321.601562 178.167969 319.644531 174.804688 316.085938 L 166.847656 307.667969 L 174.804688 299.25 C 178.160156 295.695312 182.589844 293.738281 187.265625 293.738281 C 191.941406 293.738281 196.371094 295.699219 199.730469 299.253906 L 207.6875 307.671875 L 199.734375 316.085938 C 196.375 319.644531 191.945312 321.601562 187.269531 321.601562 Z M 340.054688 239.039062 L 267.222656 316.085938 C 263.863281 319.644531 259.433594 321.601562 254.757812 321.601562 C 250.082031 321.601562 245.65625 319.640625 242.292969 316.085938 L 234.34375 307.671875 L 332.851562 203.457031 L 340.054688 211.078125 C 347.34375 218.789062 347.34375 231.332031 340.054688 239.039062 Z M 340.054688 239.039062 " clip-rule="nonzero"/></clipPath></defs><g clip-path="url(#3be08e943e)"><g clip-path="url(#4cf5102080)"><path fill="#8b8b8b" d="M 6.25 37.730469 L 6.25 340.980469 L 368.355469 340.980469 L 368.355469 37.730469 Z M 6.25 37.730469 " fill-opacity="1" fill-rule="nonzero"/></g></g><g fill="#666666" fill-opacity="1"><g transform="translate(113.784391, 218.55895)"><g><path d="M 5.859375 0 L 5.859375 -56.890625 L 11.375 -56.890625 L 32.265625 -15.28125 L 53.15625 -56.890625 L 58.6875 -56.890625 L 58.6875 0 L 53.5625 0 L 53.5625 -47.46875 L 35.03125 -10.640625 L 29.5 -10.640625 L 10.96875 -47.46875 L 10.96875 0 Z M 5.859375 0 "/></g></g></g><g fill="#666666" fill-opacity="1"><g transform="translate(174.898504, 218.55895)"><g><path d="M 19.75 0 L 19.75 -52.015625 L 3.65625 -52.015625 L 4.0625 -56.890625 L 40.890625 -56.890625 L 40.484375 -52.015625 L 24.875 -52.015625 L 24.875 0 Z M 19.75 0 "/></g></g></g><g fill="#666666" fill-opacity="1"><g transform="translate(215.370165, 218.55895)"><g><path d="M 37.953125 -41.609375 C 37.953125 -33.804688 35.269531 -28.578125 29.90625 -25.921875 L 42.1875 0 L 36.25 0 L 24.703125 -24.21875 C 22.753906 -23.894531 20.613281 -23.734375 18.28125 -23.734375 L 12.03125 -23.734375 L 12.03125 0 L 6.5 0 L 6.5 -56.890625 L 18.28125 -56.890625 C 24.894531 -56.890625 29.71875 -55.863281 32.75 -53.8125 C 36.21875 -51.476562 37.953125 -47.410156 37.953125 -41.609375 Z M 12.03125 -52.421875 L 12.03125 -28.203125 L 17.875 -28.203125 C 22.695312 -28.203125 26.328125 -29.175781 28.765625 -31.125 C 31.210938 -33.082031 32.4375 -36.472656 32.4375 -41.296875 C 32.4375 -47.472656 29.617188 -51.046875 23.984375 -52.015625 C 22.191406 -52.285156 20.15625 -52.421875 17.875 -52.421875 Z M 12.03125 -52.421875 "/></g></g></g><path stroke-linecap="butt" transform="matrix(0.750526, 0, 0, 0.75, -54.039366, 178.504193)" fill="none" stroke-linejoin="miter" d="M 0.000404851 14.499619 L 623.578529 14.499619 " stroke="#ffffff" stroke-width="29" stroke-opacity="1" stroke-miterlimit="4"/><path stroke-linecap="round" transform="matrix(0.589939, 0.462817, -0.462929, 0.590082, -12.544759, 26.28664)" fill="none" stroke-linejoin="miter" d="M 4.499556 4.498235 L 641.669719 4.500673 " stroke="#ffffff" stroke-width="9" stroke-opacity="1" stroke-miterlimit="4"/><g fill="#8b8b8b" fill-opacity="1"><g transform="translate(76.152252, 193.702487)"><g><path d="M 14.636719 -8.0625 C 14.636719 -9.21875 14.054688 -9.816406 12.925781 -9.816406 C 11.992188 -9.816406 11.144531 -9.125 10.425781 -8.25 C 10.425781 -9.179688 9.921875 -9.949219 9.058594 -9.949219 C 7.957031 -9.949219 7.160156 -9.046875 6.082031 -7.675781 L 6.828125 -9.960938 C 6.867188 -10.09375 6.8125 -10.332031 6.5625 -10.332031 C 6.507812 -10.332031 6.457031 -10.320312 6.402344 -10.28125 C 6.214844 -10.148438 5.976562 -9.988281 5.738281 -9.816406 C 4.621094 -9.003906 3.226562 -8.007812 2.003906 -8.007812 C 1.128906 -8.007812 0.570312 -8.5 0.570312 -9.496094 C 0.570312 -9.65625 0.464844 -9.800781 0.292969 -9.800781 C 0.160156 -9.800781 0.0273438 -9.695312 0.0117188 -9.5625 C -0.121094 -8.273438 0.769531 -7.453125 2.003906 -7.453125 C 3.558594 -7.453125 4.929688 -8.527344 6.03125 -9.324219 L 4.996094 -6.164062 C 4.96875 -6.109375 3.824219 -4.332031 3.746094 -4.222656 C 2.578125 -2.695312 1.871094 -1.539062 1.859375 -0.796875 C 1.859375 -0.332031 2.070312 0.0390625 2.5625 0.0390625 C 3.441406 0.0390625 3.796875 -0.675781 4.503906 -2.855469 L 5.5 -5.910156 C 6.507812 -7.371094 7.929688 -9.390625 9.03125 -9.390625 C 9.628906 -9.390625 9.867188 -8.847656 9.867188 -8.167969 C 9.867188 -7.851562 9.800781 -7.464844 9.667969 -7.011719 C 9.058594 -4.953125 8.273438 -2.578125 7.519531 -0.453125 C 7.464844 -0.277344 7.570312 -0.078125 7.785156 -0.078125 C 7.902344 -0.078125 8.007812 -0.144531 8.050781 -0.265625 C 9.257812 -3.730469 9.417969 -4.238281 10.292969 -7.160156 C 10.929688 -8.15625 11.953125 -9.296875 12.925781 -9.296875 C 13.707031 -9.296875 14.121094 -8.9375 14.121094 -8.0625 C 14.121094 -7.144531 13.722656 -6.164062 13.175781 -4.664062 C 12.605469 -3.082031 11.355469 0.253906 11.355469 1.207031 C 11.355469 2.046875 11.902344 2.65625 12.816406 2.65625 C 12.964844 2.65625 13.082031 2.535156 13.082031 2.390625 C 13.082031 2.246094 12.964844 2.136719 12.816406 2.136719 C 12.300781 2.136719 11.886719 1.804688 11.886719 1.207031 C 11.886719 0.386719 13.097656 -2.921875 13.667969 -4.476562 C 14.226562 -6.015625 14.664062 -7.105469 14.636719 -8.0625 Z M 3.972656 -3.027344 C 3.386719 -1.207031 3.109375 -0.53125 2.5625 -0.53125 C 2.46875 -0.53125 2.417969 -0.609375 2.417969 -0.742188 C 2.429688 -1.539062 3 -2.097656 4.210938 -3.90625 C 4.277344 -3.996094 4.277344 -3.996094 4.304688 -4.050781 Z M 3.972656 -3.027344 "/></g></g></g><g fill="#8b8b8b" fill-opacity="1"><g transform="translate(96.057546, 193.702487)"><g><path d="M 5.9375 -3.160156 C 5.898438 -3.175781 5.859375 -3.1875 5.816406 -3.1875 C 5.710938 -3.1875 5.605469 -3.121094 5.566406 -3.015625 C 4.808594 -1.316406 4.289062 -0.558594 3.652344 -0.558594 C 3.375 -0.558594 3.253906 -0.730469 3.253906 -1.117188 C 3.253906 -1.472656 3.558594 -2.550781 4.0625 -3.917969 C 4.265625 -4.449219 4.515625 -5.167969 4.808594 -5.9375 C 4.875 -6.109375 4.742188 -6.308594 4.53125 -6.308594 C 4.421875 -6.308594 4.316406 -6.242188 4.277344 -6.136719 C 3.585938 -4.25 3.09375 -2.84375 2.628906 -1.914062 C 2.191406 -1.007812 1.648438 -0.558594 1.101562 -0.558594 C 0.625 -0.558594 0.371094 -0.835938 0.371094 -1.382812 C 0.371094 -1.914062 0.519531 -2.191406 1.925781 -5.9375 C 1.992188 -6.109375 1.886719 -6.308594 1.660156 -6.308594 C 1.554688 -6.308594 1.449219 -6.242188 1.40625 -6.136719 C 0.132812 -2.828125 -0.1875 -2.046875 -0.1875 -1.382812 C -0.1875 -0.476562 0.253906 0 1.089844 0 L 1.101562 0 C 1.699219 0 2.3125 -0.398438 2.695312 -0.941406 C 2.777344 -0.359375 3.066406 0 3.652344 0 C 4.542969 0 5.207031 -0.808594 6.070312 -2.789062 C 6.082031 -2.828125 6.097656 -2.867188 6.097656 -2.910156 C 6.097656 -3.015625 6.03125 -3.109375 5.9375 -3.160156 Z M 5.9375 -3.160156 "/></g></g></g><g fill="#8b8b8b" fill-opacity="1"><g transform="translate(107.18655, 193.702487)"><g><path d="M 5.898438 -3.160156 C 5.859375 -3.175781 5.816406 -3.1875 5.777344 -3.1875 C 5.671875 -3.1875 5.578125 -3.121094 5.527344 -3.015625 C 4.769531 -1.300781 4.25 -0.558594 3.613281 -0.558594 C 3.332031 -0.558594 3.214844 -0.730469 3.214844 -1.117188 C 3.214844 -2.070312 4.25 -4.050781 4.25 -5.0625 C 4.25 -5.765625 3.945312 -6.308594 3 -6.308594 C 2.578125 -6.308594 2.179688 -6.070312 1.792969 -5.683594 C 2.246094 -6.945312 2.535156 -7.785156 2.65625 -8.128906 C 2.722656 -8.300781 2.589844 -8.5 2.390625 -8.5 C 2.269531 -8.5 2.164062 -8.433594 2.125 -8.328125 C 1.6875 -7.039062 0.542969 -3.878906 -0.71875 -0.371094 C -0.769531 -0.226562 -0.691406 -0.0664062 -0.542969 -0.0117188 C -0.398438 0.0273438 -0.238281 -0.0390625 -0.1875 -0.199219 C 0.996094 -3.441406 1.117188 -3.957031 1.953125 -5.019531 C 2.296875 -5.445312 2.667969 -5.75 3 -5.75 C 3.519531 -5.75 3.691406 -5.445312 3.691406 -5.0625 C 3.691406 -4.039062 2.65625 -2.335938 2.65625 -1.117188 C 2.65625 -0.464844 2.960938 0 3.613281 0 C 4.515625 0 5.140625 -0.785156 6.042969 -2.789062 C 6.058594 -2.828125 6.070312 -2.867188 6.070312 -2.894531 C 6.070312 -3.015625 6.003906 -3.109375 5.898438 -3.160156 Z M 5.898438 -3.160156 "/></g></g></g><g fill="#8b8b8b" fill-opacity="1"><g transform="translate(118.289003, 193.702487)"><g><path d="M 5.949219 -3.160156 C 5.910156 -3.175781 5.871094 -3.1875 5.832031 -3.1875 C 5.726562 -3.1875 5.632812 -3.121094 5.578125 -3.015625 L 5.566406 -2.976562 C 5.128906 -1.992188 4.488281 -0.558594 3.664062 -0.558594 C 3.386719 -0.558594 3.265625 -0.71875 3.265625 -1.117188 C 3.265625 -1.699219 3.707031 -2.855469 4.183594 -4.199219 L 4.847656 -5.976562 C 4.914062 -6.136719 4.808594 -6.347656 4.597656 -6.347656 C 4.476562 -6.347656 4.371094 -6.28125 4.332031 -6.175781 C 4.265625 -6.003906 4.183594 -5.804688 4.105469 -5.578125 C 3.863281 -6.058594 3.453125 -6.28125 2.894531 -6.28125 C 1.300781 -6.28125 -0.0390625 -3.175781 -0.0390625 -1.433594 C -0.0390625 -0.636719 0.304688 0 1.050781 0 C 1.621094 0 2.179688 -0.371094 2.710938 -1.117188 C 2.710938 -0.464844 3.027344 0 3.664062 0 C 4.863281 0 5.578125 -1.632812 6.082031 -2.75 L 6.097656 -2.789062 C 6.109375 -2.828125 6.125 -2.867188 6.125 -2.910156 C 6.125 -3.015625 6.058594 -3.109375 5.949219 -3.160156 Z M 1.035156 -0.558594 C 0.636719 -0.558594 0.519531 -0.941406 0.519531 -1.527344 C 0.542969 -2.84375 1.671875 -5.699219 2.894531 -5.726562 C 3.375 -5.726562 3.71875 -5.367188 3.746094 -4.753906 L 3.425781 -3.90625 C 2.894531 -2.550781 2.113281 -0.558594 1.035156 -0.558594 Z M 1.035156 -0.558594 "/></g></g></g><g fill="#8b8b8b" fill-opacity="1"><g transform="translate(129.444569, 193.702487)"><g><path d="M 8.964844 -2.910156 C 8.964844 -3.054688 8.820312 -3.1875 8.6875 -3.1875 C 8.582031 -3.1875 8.460938 -3.121094 8.421875 -3.015625 C 7.703125 -1.339844 7.171875 -0.558594 6.523438 -0.558594 C 6.242188 -0.558594 6.125 -0.730469 6.125 -1.117188 C 6.125 -2.257812 7.144531 -3.785156 7.144531 -5.0625 C 7.144531 -5.765625 6.855469 -6.308594 5.898438 -6.308594 C 5.273438 -6.308594 4.597656 -5.699219 4.210938 -5.085938 C 4.210938 -5.792969 3.785156 -6.308594 2.988281 -6.308594 C 2.535156 -6.308594 2.113281 -6.003906 1.726562 -5.550781 C 1.765625 -5.683594 1.804688 -5.792969 1.859375 -5.910156 C 1.925781 -6.082031 1.792969 -6.28125 1.59375 -6.28125 C 1.472656 -6.28125 1.367188 -6.214844 1.328125 -6.097656 C 0.652344 -4.183594 -0.0390625 -2.269531 -0.71875 -0.359375 C -0.769531 -0.210938 -0.691406 -0.0546875 -0.542969 0 C -0.398438 0.0390625 -0.238281 -0.0273438 -0.1875 -0.1875 L 0.71875 -2.75 C 0.796875 -2.960938 1.59375 -4.421875 1.832031 -4.78125 C 2.21875 -5.328125 2.617188 -5.75 2.988281 -5.75 C 3.464844 -5.75 3.652344 -5.5 3.652344 -5.007812 C 3.652344 -4.542969 3.453125 -3.945312 3.175781 -3.132812 C 3.160156 -3.109375 2.285156 -0.503906 2.269531 -0.464844 C 2.203125 -0.292969 2.335938 -0.09375 2.535156 -0.09375 C 2.65625 -0.09375 2.761719 -0.160156 2.800781 -0.277344 C 2.789062 -0.253906 3.679688 -2.855469 3.707031 -2.933594 C 4.089844 -4.011719 5.128906 -5.75 5.898438 -5.75 C 6.429688 -5.75 6.589844 -5.445312 6.589844 -5.0625 C 6.589844 -3.972656 5.550781 -2.324219 5.550781 -1.117188 C 5.550781 -0.464844 5.871094 0 6.523438 0 C 7.703125 0 8.433594 -1.632812 8.925781 -2.75 C 8.953125 -2.84375 8.964844 -2.867188 8.964844 -2.910156 Z M 8.964844 -2.910156 "/></g></g></g><g fill="#8b8b8b" fill-opacity="1"><g transform="translate(143.44147, 193.702487)"><g><path d="M 8.964844 -2.910156 C 8.964844 -3.054688 8.820312 -3.1875 8.6875 -3.1875 C 8.582031 -3.1875 8.460938 -3.121094 8.421875 -3.015625 C 7.703125 -1.339844 7.171875 -0.558594 6.523438 -0.558594 C 6.242188 -0.558594 6.125 -0.730469 6.125 -1.117188 C 6.125 -2.257812 7.144531 -3.785156 7.144531 -5.0625 C 7.144531 -5.765625 6.855469 -6.308594 5.898438 -6.308594 C 5.273438 -6.308594 4.597656 -5.699219 4.210938 -5.085938 C 4.210938 -5.792969 3.785156 -6.308594 2.988281 -6.308594 C 2.535156 -6.308594 2.113281 -6.003906 1.726562 -5.550781 C 1.765625 -5.683594 1.804688 -5.792969 1.859375 -5.910156 C 1.925781 -6.082031 1.792969 -6.28125 1.59375 -6.28125 C 1.472656 -6.28125 1.367188 -6.214844 1.328125 -6.097656 C 0.652344 -4.183594 -0.0390625 -2.269531 -0.71875 -0.359375 C -0.769531 -0.210938 -0.691406 -0.0546875 -0.542969 0 C -0.398438 0.0390625 -0.238281 -0.0273438 -0.1875 -0.1875 L 0.71875 -2.75 C 0.796875 -2.960938 1.59375 -4.421875 1.832031 -4.78125 C 2.21875 -5.328125 2.617188 -5.75 2.988281 -5.75 C 3.464844 -5.75 3.652344 -5.5 3.652344 -5.007812 C 3.652344 -4.542969 3.453125 -3.945312 3.175781 -3.132812 C 3.160156 -3.109375 2.285156 -0.503906 2.269531 -0.464844 C 2.203125 -0.292969 2.335938 -0.09375 2.535156 -0.09375 C 2.65625 -0.09375 2.761719 -0.160156 2.800781 -0.277344 C 2.789062 -0.253906 3.679688 -2.855469 3.707031 -2.933594 C 4.089844 -4.011719 5.128906 -5.75 5.898438 -5.75 C 6.429688 -5.75 6.589844 -5.445312 6.589844 -5.0625 C 6.589844 -3.972656 5.550781 -2.324219 5.550781 -1.117188 C 5.550781 -0.464844 5.871094 0 6.523438 0 C 7.703125 0 8.433594 -1.632812 8.925781 -2.75 C 8.953125 -2.84375 8.964844 -2.867188 8.964844 -2.910156 Z M 8.964844 -2.910156 "/></g></g></g><g fill="#8b8b8b" fill-opacity="1"><g transform="translate(157.438372, 193.702487)"><g><path d="M 5.949219 -3.160156 C 5.910156 -3.175781 5.871094 -3.1875 5.832031 -3.1875 C 5.726562 -3.1875 5.632812 -3.121094 5.578125 -3.015625 L 5.566406 -2.976562 C 5.128906 -1.992188 4.488281 -0.558594 3.664062 -0.558594 C 3.386719 -0.558594 3.265625 -0.71875 3.265625 -1.117188 C 3.265625 -1.699219 3.707031 -2.855469 4.183594 -4.199219 L 4.847656 -5.976562 C 4.914062 -6.136719 4.808594 -6.347656 4.597656 -6.347656 C 4.476562 -6.347656 4.371094 -6.28125 4.332031 -6.175781 C 4.265625 -6.003906 4.183594 -5.804688 4.105469 -5.578125 C 3.863281 -6.058594 3.453125 -6.28125 2.894531 -6.28125 C 1.300781 -6.28125 -0.0390625 -3.175781 -0.0390625 -1.433594 C -0.0390625 -0.636719 0.304688 0 1.050781 0 C 1.621094 0 2.179688 -0.371094 2.710938 -1.117188 C 2.710938 -0.464844 3.027344 0 3.664062 0 C 4.863281 0 5.578125 -1.632812 6.082031 -2.75 L 6.097656 -2.789062 C 6.109375 -2.828125 6.125 -2.867188 6.125 -2.910156 C 6.125 -3.015625 6.058594 -3.109375 5.949219 -3.160156 Z M 1.035156 -0.558594 C 0.636719 -0.558594 0.519531 -0.941406 0.519531 -1.527344 C 0.542969 -2.84375 1.671875 -5.699219 2.894531 -5.726562 C 3.375 -5.726562 3.71875 -5.367188 3.746094 -4.753906 L 3.425781 -3.90625 C 2.894531 -2.550781 2.113281 -0.558594 1.035156 -0.558594 Z M 1.035156 -0.558594 "/></g></g></g><g fill="#8b8b8b" fill-opacity="1"><g transform="translate(168.593935, 193.702487)"><g><path d="M 6.308594 -3.160156 C 6.269531 -3.175781 6.230469 -3.1875 6.203125 -3.1875 C 6.097656 -3.1875 5.992188 -3.121094 5.9375 -3.027344 C 5.3125 -1.660156 4.675781 -0.558594 3.71875 -0.558594 C 3.414062 -0.558594 3.292969 -0.796875 3.292969 -1.117188 C 3.292969 -1.460938 3.53125 -2.246094 3.730469 -2.855469 C 3.851562 -3.226562 5.433594 -7.742188 5.566406 -8.128906 C 5.617188 -8.273438 5.527344 -8.5 5.300781 -8.5 C 5.195312 -8.5 5.085938 -8.433594 5.046875 -8.328125 L 4.34375 -6.296875 L 4.089844 -5.605469 C 3.878906 -6.015625 3.492188 -6.28125 2.894531 -6.28125 C 1.289062 -6.28125 -0.0390625 -3.175781 -0.0390625 -1.433594 C -0.0390625 -0.636719 0.304688 0 1.050781 0 C 1.726562 0 2.269531 -0.503906 2.734375 -1.167969 C 2.734375 -0.425781 3.09375 0 3.71875 0 C 4.941406 0 5.683594 -1.128906 6.457031 -2.789062 C 6.46875 -2.828125 6.480469 -2.867188 6.480469 -2.910156 C 6.480469 -3.015625 6.414062 -3.109375 6.308594 -3.160156 Z M 1.035156 -0.558594 C 0.636719 -0.558594 0.519531 -0.941406 0.519531 -1.527344 C 0.542969 -2.84375 1.671875 -5.683594 2.894531 -5.726562 C 3.414062 -5.726562 3.71875 -5.367188 3.746094 -4.753906 C 3.746094 -4.730469 3.746094 -4.703125 3.730469 -4.664062 C 3.640625 -4.449219 3.546875 -4.183594 3.425781 -3.90625 C 2.894531 -2.550781 2.113281 -0.558594 1.035156 -0.558594 Z M 1.035156 -0.558594 "/></g></g></g><g fill="#8b8b8b" fill-opacity="1"><g transform="translate(180.107984, 193.702487)"><g/></g></g><g fill="#8b8b8b" fill-opacity="1"><g transform="translate(189.895977, 193.702487)"><g><path d="M 12.101562 -9.335938 C 12.101562 -9.949219 11.261719 -10.253906 10.492188 -10.253906 C 9.683594 -10.253906 8.699219 -9.960938 8.035156 -9.402344 C 6.523438 -9.683594 4.597656 -10.425781 3.175781 -10.425781 C 1.433594 -10.425781 0.410156 -9.550781 0.410156 -8.0625 C 0.410156 -6.855469 1.261719 -6.125 2.496094 -6.125 C 2.976562 -6.125 3.492188 -6.242188 3.957031 -6.457031 C 4.0625 -6.507812 4.117188 -6.601562 4.117188 -6.707031 C 4.117188 -6.8125 4.039062 -6.988281 3.851562 -6.988281 C 3.796875 -6.988281 3.757812 -6.972656 3.71875 -6.960938 C 3.332031 -6.789062 2.910156 -6.679688 2.511719 -6.679688 C 1.59375 -6.679688 0.984375 -7.132812 0.96875 -8.0625 C 0.96875 -9.191406 1.78125 -9.855469 3.148438 -9.855469 C 4.648438 -9.855469 6.390625 -9.179688 7.558594 -8.925781 C 7.476562 -8.804688 7.386719 -8.6875 7.320312 -8.566406 C 6.761719 -7.609375 6.296875 -6.148438 5.964844 -5.074219 C 5.035156 -2.296875 4.554688 0.277344 2.296875 0.253906 C 1.328125 0.253906 0.558594 -0.453125 0.558594 -1.582031 C 0.558594 -2.789062 1.699219 -3.839844 2.867188 -3.839844 C 3.027344 -3.839844 3.148438 -3.957031 3.148438 -4.117188 C 3.148438 -4.277344 3.027344 -4.398438 2.867188 -4.398438 C 1.40625 -4.398438 0 -3.148438 0 -1.582031 C 0 -0.210938 0.941406 0.808594 2.296875 0.808594 C 4.648438 0.851562 5.328125 -1.035156 6.496094 -4.902344 C 6.828125 -5.949219 7.277344 -7.398438 7.796875 -8.289062 C 7.917969 -8.472656 8.050781 -8.648438 8.207031 -8.804688 C 9.046875 -8.648438 9.867188 -8.539062 10.519531 -8.539062 C 11.449219 -8.539062 12.074219 -8.738281 12.101562 -9.335938 Z M 10.519531 -9.097656 C 10.082031 -9.097656 9.46875 -9.164062 8.832031 -9.269531 C 9.285156 -9.523438 9.960938 -9.695312 10.480469 -9.695312 C 10.863281 -9.695312 11.527344 -9.550781 11.527344 -9.351562 C 11.527344 -9.164062 11.144531 -9.097656 10.519531 -9.097656 Z M 10.519531 -9.097656 "/></g></g></g><g fill="#8b8b8b" fill-opacity="1"><g transform="translate(203.919429, 193.702487)"><g><path d="M 5.949219 -3.160156 C 5.910156 -3.175781 5.871094 -3.1875 5.832031 -3.1875 C 5.726562 -3.1875 5.632812 -3.121094 5.578125 -3.015625 L 5.566406 -2.976562 C 5.128906 -1.992188 4.488281 -0.558594 3.664062 -0.558594 C 3.386719 -0.558594 3.265625 -0.71875 3.265625 -1.117188 C 3.265625 -1.699219 3.707031 -2.855469 4.183594 -4.199219 L 4.847656 -5.976562 C 4.914062 -6.136719 4.808594 -6.347656 4.597656 -6.347656 C 4.476562 -6.347656 4.371094 -6.28125 4.332031 -6.175781 C 4.265625 -6.003906 4.183594 -5.804688 4.105469 -5.578125 C 3.863281 -6.058594 3.453125 -6.28125 2.894531 -6.28125 C 1.300781 -6.28125 -0.0390625 -3.175781 -0.0390625 -1.433594 C -0.0390625 -0.636719 0.304688 0 1.050781 0 C 1.621094 0 2.179688 -0.371094 2.710938 -1.117188 C 2.710938 -0.464844 3.027344 0 3.664062 0 C 4.863281 0 5.578125 -1.632812 6.082031 -2.75 L 6.097656 -2.789062 C 6.109375 -2.828125 6.125 -2.867188 6.125 -2.910156 C 6.125 -3.015625 6.058594 -3.109375 5.949219 -3.160156 Z M 1.035156 -0.558594 C 0.636719 -0.558594 0.519531 -0.941406 0.519531 -1.527344 C 0.542969 -2.84375 1.671875 -5.699219 2.894531 -5.726562 C 3.375 -5.726562 3.71875 -5.367188 3.746094 -4.753906 L 3.425781 -3.90625 C 2.894531 -2.550781 2.113281 -0.558594 1.035156 -0.558594 Z M 1.035156 -0.558594 "/></g></g></g><g fill="#8b8b8b" fill-opacity="1"><g transform="translate(215.074992, 193.702487)"><g><path d="M 5.898438 -3.160156 C 5.859375 -3.175781 5.816406 -3.1875 5.777344 -3.1875 C 5.671875 -3.1875 5.578125 -3.121094 5.527344 -3.015625 C 4.769531 -1.300781 4.25 -0.558594 3.613281 -0.558594 C 3.332031 -0.558594 3.214844 -0.730469 3.214844 -1.117188 C 3.214844 -2.070312 4.25 -4.050781 4.25 -5.0625 C 4.25 -5.765625 3.945312 -6.308594 3 -6.308594 C 2.578125 -6.308594 2.179688 -6.070312 1.792969 -5.683594 C 2.246094 -6.945312 2.535156 -7.785156 2.65625 -8.128906 C 2.722656 -8.300781 2.589844 -8.5 2.390625 -8.5 C 2.269531 -8.5 2.164062 -8.433594 2.125 -8.328125 C 1.6875 -7.039062 0.542969 -3.878906 -0.71875 -0.371094 C -0.769531 -0.226562 -0.691406 -0.0664062 -0.542969 -0.0117188 C -0.398438 0.0273438 -0.238281 -0.0390625 -0.1875 -0.199219 C 0.996094 -3.441406 1.117188 -3.957031 1.953125 -5.019531 C 2.296875 -5.445312 2.667969 -5.75 3 -5.75 C 3.519531 -5.75 3.691406 -5.445312 3.691406 -5.0625 C 3.691406 -4.039062 2.65625 -2.335938 2.65625 -1.117188 C 2.65625 -0.464844 2.960938 0 3.613281 0 C 4.515625 0 5.140625 -0.785156 6.042969 -2.789062 C 6.058594 -2.828125 6.070312 -2.867188 6.070312 -2.894531 C 6.070312 -3.015625 6.003906 -3.109375 5.898438 -3.160156 Z M 5.898438 -3.160156 "/></g></g></g><g fill="#8b8b8b" fill-opacity="1"><g transform="translate(226.177442, 193.702487)"><g><path d="M 5.949219 -3.160156 C 5.910156 -3.175781 5.871094 -3.1875 5.832031 -3.1875 C 5.726562 -3.1875 5.632812 -3.121094 5.578125 -3.015625 L 5.566406 -2.976562 C 5.128906 -1.992188 4.488281 -0.558594 3.664062 -0.558594 C 3.386719 -0.558594 3.265625 -0.71875 3.265625 -1.117188 C 3.265625 -1.699219 3.707031 -2.855469 4.183594 -4.199219 L 4.847656 -5.976562 C 4.914062 -6.136719 4.808594 -6.347656 4.597656 -6.347656 C 4.476562 -6.347656 4.371094 -6.28125 4.332031 -6.175781 C 4.265625 -6.003906 4.183594 -5.804688 4.105469 -5.578125 C 3.863281 -6.058594 3.453125 -6.28125 2.894531 -6.28125 C 1.300781 -6.28125 -0.0390625 -3.175781 -0.0390625 -1.433594 C -0.0390625 -0.636719 0.304688 0 1.050781 0 C 1.621094 0 2.179688 -0.371094 2.710938 -1.117188 C 2.710938 -0.464844 3.027344 0 3.664062 0 C 4.863281 0 5.578125 -1.632812 6.082031 -2.75 L 6.097656 -2.789062 C 6.109375 -2.828125 6.125 -2.867188 6.125 -2.910156 C 6.125 -3.015625 6.058594 -3.109375 5.949219 -3.160156 Z M 1.035156 -0.558594 C 0.636719 -0.558594 0.519531 -0.941406 0.519531 -1.527344 C 0.542969 -2.84375 1.671875 -5.699219 2.894531 -5.726562 C 3.375 -5.726562 3.71875 -5.367188 3.746094 -4.753906 L 3.425781 -3.90625 C 2.894531 -2.550781 2.113281 -0.558594 1.035156 -0.558594 Z M 1.035156 -0.558594 "/></g></g></g><g fill="#8b8b8b" fill-opacity="1"><g transform="translate(237.333005, 193.702487)"><g/></g></g><g fill="#8b8b8b" fill-opacity="1"><g transform="translate(247.120999, 193.702487)"><g><path d="M 10.082031 -7.066406 C 10.148438 -8.671875 8.847656 -9.816406 6.960938 -9.816406 C 4.304688 -9.816406 2.722656 -7.664062 2.722656 -4.820312 C 2.722656 -4.664062 2.855469 -4.542969 3 -4.542969 C 3.160156 -4.542969 3.28125 -4.664062 3.28125 -4.820312 C 3.28125 -7.320312 4.570312 -9.203125 6.960938 -9.246094 C 8.449219 -9.269531 9.5625 -8.472656 9.523438 -7.066406 C 9.457031 -5.527344 7.929688 -4.53125 6.125 -4.464844 C 5.910156 -4.464844 5.804688 -4.332031 5.804688 -4.183594 C 5.804688 -4.050781 5.910156 -3.90625 6.125 -3.90625 C 7.476562 -3.890625 7.785156 -2.855469 7.785156 -1.726562 C 7.785156 -0.796875 7.558594 0.4375 7.558594 1.050781 C 7.558594 2.097656 8.035156 2.789062 9.019531 2.789062 C 9.191406 2.789062 9.324219 2.65625 9.324219 2.484375 C 9.324219 2.3125 9.191406 2.21875 9.019531 2.21875 C 8.421875 2.21875 8.140625 1.871094 8.117188 1.050781 C 8.117188 0.71875 8.339844 -0.890625 8.339844 -1.738281 C 8.339844 -2.722656 8.140625 -3.613281 7.453125 -4.105469 C 8.953125 -4.515625 10.027344 -5.632812 10.082031 -7.066406 Z M 7.039062 -8.222656 C 7.171875 -8.339844 7.320312 -8.421875 7.453125 -8.449219 C 7.570312 -8.472656 7.691406 -8.554688 7.691406 -8.765625 C 7.691406 -8.914062 7.542969 -9.003906 7.386719 -9.003906 C 7.199219 -9.003906 6.90625 -8.871094 6.667969 -8.660156 C 5.949219 -7.996094 5.59375 -6.695312 5.167969 -5.261719 C 4.542969 -3.226562 3.785156 -0.53125 1.925781 -0.53125 C 1.195312 -0.53125 0.558594 -0.984375 0.558594 -1.78125 C 0.558594 -2.578125 1.195312 -3.398438 1.925781 -3.398438 C 2.003906 -3.398438 2.085938 -3.386719 2.152344 -3.375 C 2.351562 -3.320312 2.496094 -3.464844 2.496094 -3.652344 C 2.496094 -3.890625 2.269531 -3.972656 1.914062 -3.972656 C 0.902344 -3.972656 0 -2.933594 0 -1.78125 C 0 -0.691406 0.851562 0.0273438 1.9375 0.0273438 C 4.144531 0.0273438 4.96875 -2.710938 5.699219 -5.101562 C 6.070312 -6.308594 6.46875 -7.757812 7.039062 -8.222656 Z M 7.039062 -8.222656 "/></g></g></g><g fill="#8b8b8b" fill-opacity="1"><g transform="translate(262.551845, 193.702487)"><g><path d="M 5.949219 -3.160156 C 5.910156 -3.175781 5.871094 -3.1875 5.832031 -3.1875 C 5.726562 -3.1875 5.632812 -3.121094 5.578125 -3.015625 L 5.566406 -2.976562 C 5.128906 -1.992188 4.488281 -0.558594 3.664062 -0.558594 C 3.386719 -0.558594 3.265625 -0.71875 3.265625 -1.117188 C 3.265625 -1.699219 3.707031 -2.855469 4.183594 -4.199219 L 4.847656 -5.976562 C 4.914062 -6.136719 4.808594 -6.347656 4.597656 -6.347656 C 4.476562 -6.347656 4.371094 -6.28125 4.332031 -6.175781 C 4.265625 -6.003906 4.183594 -5.804688 4.105469 -5.578125 C 3.863281 -6.058594 3.453125 -6.28125 2.894531 -6.28125 C 1.300781 -6.28125 -0.0390625 -3.175781 -0.0390625 -1.433594 C -0.0390625 -0.636719 0.304688 0 1.050781 0 C 1.621094 0 2.179688 -0.371094 2.710938 -1.117188 C 2.710938 -0.464844 3.027344 0 3.664062 0 C 4.863281 0 5.578125 -1.632812 6.082031 -2.75 L 6.097656 -2.789062 C 6.109375 -2.828125 6.125 -2.867188 6.125 -2.910156 C 6.125 -3.015625 6.058594 -3.109375 5.949219 -3.160156 Z M 1.035156 -0.558594 C 0.636719 -0.558594 0.519531 -0.941406 0.519531 -1.527344 C 0.542969 -2.84375 1.671875 -5.699219 2.894531 -5.726562 C 3.375 -5.726562 3.71875 -5.367188 3.746094 -4.753906 L 3.425781 -3.90625 C 2.894531 -2.550781 2.113281 -0.558594 1.035156 -0.558594 Z M 1.035156 -0.558594 "/></g></g></g><g fill="#8b8b8b" fill-opacity="1"><g transform="translate(273.707408, 193.702487)"><g><path d="M 4.808594 -3.160156 C 4.664062 -3.214844 4.503906 -3.148438 4.4375 -3.015625 C 3.691406 -1.300781 2.84375 -0.53125 1.753906 -0.558594 C 0.957031 -0.585938 0.53125 -1.050781 0.558594 -1.804688 C 0.570312 -2.085938 0.609375 -2.335938 0.703125 -2.683594 C 2.179688 -3.042969 4.15625 -3.890625 4.15625 -5.300781 C 4.15625 -5.9375 3.691406 -6.28125 3.027344 -6.28125 C 1.460938 -6.28125 0.078125 -3.519531 0 -1.820312 C -0.0273438 -0.730469 0.636719 0 1.738281 0 C 3.082031 0 4.089844 -0.875 4.953125 -2.789062 C 4.96875 -2.828125 4.980469 -2.855469 4.980469 -2.894531 C 4.980469 -3 4.914062 -3.109375 4.808594 -3.160156 Z M 0.917969 -3.320312 C 1.339844 -4.34375 2.113281 -5.726562 3.027344 -5.726562 C 3.320312 -5.726562 3.597656 -5.660156 3.597656 -5.300781 C 3.597656 -4.316406 2.019531 -3.664062 0.917969 -3.320312 Z M 0.917969 -3.320312 "/></g></g></g><g fill="#8b8b8b" fill-opacity="1"><g transform="translate(283.721125, 193.702487)"><g><path d="M 4.808594 -3.160156 C 4.664062 -3.214844 4.503906 -3.148438 4.4375 -3.015625 C 3.691406 -1.300781 2.84375 -0.53125 1.753906 -0.558594 C 0.957031 -0.585938 0.53125 -1.050781 0.558594 -1.804688 C 0.570312 -2.085938 0.609375 -2.335938 0.703125 -2.683594 C 2.179688 -3.042969 4.15625 -3.890625 4.15625 -5.300781 C 4.15625 -5.9375 3.691406 -6.28125 3.027344 -6.28125 C 1.460938 -6.28125 0.078125 -3.519531 0 -1.820312 C -0.0273438 -0.730469 0.636719 0 1.738281 0 C 3.082031 0 4.089844 -0.875 4.953125 -2.789062 C 4.96875 -2.828125 4.980469 -2.855469 4.980469 -2.894531 C 4.980469 -3 4.914062 -3.109375 4.808594 -3.160156 Z M 0.917969 -3.320312 C 1.339844 -4.34375 2.113281 -5.726562 3.027344 -5.726562 C 3.320312 -5.726562 3.597656 -5.660156 3.597656 -5.300781 C 3.597656 -4.316406 2.019531 -3.664062 0.917969 -3.320312 Z M 0.917969 -3.320312 "/></g></g></g><g fill="#8b8b8b" fill-opacity="1"><g transform="translate(293.734842, 193.702487)"><g><path d="M 4.382812 -2.351562 C 4.371094 -3.253906 4.011719 -3.71875 3.320312 -4.996094 C 3.730469 -5.460938 4.0625 -6.042969 4.0625 -6.574219 C 4.039062 -6.960938 3.8125 -7.265625 3.425781 -7.265625 C 2.882812 -7.265625 2.457031 -6.679688 2.457031 -5.992188 C 2.457031 -5.683594 2.535156 -5.394531 2.65625 -5.113281 C 2.496094 -4.953125 2.363281 -4.808594 2.203125 -4.621094 C 2.164062 -4.570312 2.136719 -4.503906 2.136719 -4.449219 C 2.136719 -4.371094 2.164062 -4.277344 2.230469 -4.222656 C 2.285156 -4.171875 2.363281 -4.15625 2.429688 -4.15625 C 2.511719 -4.15625 2.589844 -4.199219 2.644531 -4.265625 C 2.722656 -4.371094 2.816406 -4.476562 2.910156 -4.570312 C 3.613281 -3.332031 3.8125 -2.949219 3.824219 -2.363281 C 3.796875 -1.261719 3.027344 -0.558594 1.953125 -0.558594 C 1.183594 -0.558594 0.503906 -1.128906 0.503906 -1.9375 C 0.558594 -2.75 1.035156 -3.359375 1.765625 -3.359375 C 2.113281 -3.359375 2.445312 -3.027344 2.46875 -2.578125 C 2.46875 -2.417969 2.589844 -2.296875 2.75 -2.296875 C 2.910156 -2.296875 3.027344 -2.417969 3.027344 -2.578125 C 3 -3.308594 2.445312 -3.917969 1.753906 -3.917969 C 0.691406 -3.917969 0.0273438 -3.132812 -0.0546875 -1.9375 C -0.0546875 -0.863281 0.851562 0 1.953125 0 C 3.292969 0 4.355469 -0.917969 4.382812 -2.351562 Z M 3.082031 -5.578125 C 3.042969 -5.726562 3.015625 -5.859375 3.015625 -6.003906 C 3.015625 -6.191406 3.054688 -6.429688 3.214844 -6.589844 C 3.347656 -6.722656 3.492188 -6.761719 3.492188 -6.574219 C 3.492188 -6.28125 3.292969 -5.871094 3.082031 -5.578125 Z M 3.082031 -5.578125 "/></g></g></g></svg>