<svg xmlns="http://www.w3.org/2000/svg" xmlns:xlink="http://www.w3.org/1999/xlink" width="500" zoomAndPan="magnify" viewBox="0 0 375 374.999991" height="500" preserveAspectRatio="xMidYMid meet" version="1.0"><path fill="#000000" d="M 273.140625 153.996094 C 273.140625 152.367188 271.820312 151.050781 270.195312 151.050781 C 268.566406 151.050781 267.25 152.367188 267.25 153.996094 C 267.25 199.105469 230.550781 235.804688 185.441406 235.804688 C 140.332031 235.804688 103.636719 199.109375 103.636719 153.996094 C 103.636719 108.886719 140.335938 72.191406 185.445312 72.191406 C 206.765625 72.191406 226.949219 80.347656 242.292969 95.167969 C 247.082031 99.75 261.804688 117.105469 250.132812 148.28125 C 239.613281 176.378906 224.5625 177.300781 224.488281 177.308594 C 214.324219 177.308594 206.054688 169.035156 206.054688 158.871094 L 206.054688 142.890625 C 206.101562 141.621094 206.101562 140.371094 206.054688 139.128906 L 206.054688 108.546875 C 206.054688 106.917969 204.734375 105.601562 203.109375 105.601562 C 201.484375 105.601562 200.164062 106.917969 200.164062 108.546875 L 200.164062 119.179688 C 197.558594 115.457031 194.203125 112.746094 190.199219 111.3125 C 175.160156 105.933594 156.90625 119.835938 148.644531 142.941406 C 144.789062 153.722656 143.800781 164.851562 145.863281 174.265625 C 148.035156 184.179688 153.3125 191.101562 160.726562 193.746094 C 162.90625 194.527344 165.152344 194.902344 167.425781 194.902344 C 180.113281 194.902344 193.640625 183.253906 201.046875 165.285156 C 203.871094 175.59375 213.300781 183.199219 224.527344 183.199219 C 225.300781 183.1875 243.589844 182.554688 255.648438 150.347656 C 268.582031 115.796875 251.808594 96.121094 246.371094 90.925781 C 229.9375 75.042969 208.300781 66.300781 185.441406 66.300781 C 137.082031 66.300781 97.742188 105.640625 97.742188 154 C 97.742188 202.359375 137.082031 241.699219 185.441406 241.699219 C 233.800781 241.699219 273.140625 202.355469 273.140625 153.996094 Z M 162.707031 188.203125 C 157.277344 186.261719 153.335938 180.867188 151.617188 173.007812 C 149.789062 164.65625 150.699219 154.683594 154.1875 144.929688 C 160.308594 127.8125 172.660156 116.054688 183.496094 116.054688 C 185.109375 116.054688 186.691406 116.316406 188.214844 116.859375 C 193.648438 118.800781 197.585938 124.199219 199.308594 132.054688 C 199.761719 134.132812 200.046875 136.3125 200.164062 138.5625 L 200.164062 142.9375 C 199.941406 148.496094 198.804688 154.347656 196.730469 160.132812 C 189.820312 179.472656 174.242188 192.324219 162.707031 188.203125 Z M 162.707031 188.203125 " fill-opacity="1" fill-rule="nonzero"/><path fill="#000000" d="M 367.59375 91.046875 C 363.972656 77.171875 354.628906 66.195312 341.96875 60.9375 L 321.503906 52.433594 C 315.269531 49.851562 308.308594 50.105469 301.902344 53.171875 C 295.605469 56.183594 290.59375 61.5625 287.785156 68.3125 L 278.464844 90.738281 C 275.660156 97.492188 275.386719 104.835938 277.695312 111.421875 C 280.042969 118.125 284.769531 123.242188 291.003906 125.835938 C 298.746094 129.050781 303.390625 137.183594 302.832031 146.542969 C 302.140625 158.144531 299.765625 175.710938 292.382812 193.496094 C 284.996094 211.269531 274.222656 225.347656 266.484375 234.027344 C 260.242188 241.023438 251.203125 243.46875 243.460938 240.253906 C 230.703125 234.960938 215.582031 242.074219 209.742188 256.128906 L 200.425781 278.554688 C 194.585938 292.609375 200.210938 308.351562 212.964844 313.652344 L 233.429688 322.15625 C 238.695312 324.339844 244.253906 325.425781 249.847656 325.425781 C 257.699219 325.425781 265.609375 323.285156 272.84375 319.074219 C 292.972656 307.351562 322.476562 280.105469 348.734375 216.90625 C 374.992188 153.710938 373.484375 113.585938 367.59375 91.046875 Z M 343.292969 214.644531 C 317.664062 276.328125 289.222656 302.714844 269.878906 313.980469 C 259.09375 320.265625 246.632812 321.261719 235.691406 316.710938 L 215.226562 308.207031 C 205.472656 304.15625 201.277344 291.867188 205.867188 280.8125 L 215.183594 258.386719 C 218.773438 249.75 226.683594 244.390625 234.625 244.390625 C 236.84375 244.390625 239.070312 244.808594 241.203125 245.695312 C 251.296875 249.886719 262.949219 246.847656 270.882812 237.941406 C 278.921875 228.921875 290.121094 214.289062 297.824219 195.753906 C 305.527344 177.214844 307.996094 158.949219 308.714844 146.894531 C 309.425781 134.992188 303.363281 124.585938 293.269531 120.390625 C 288.601562 118.453125 285.042969 114.574219 283.257812 109.476562 C 281.433594 104.257812 281.664062 98.40625 283.910156 93 L 293.230469 70.574219 C 295.476562 65.160156 299.460938 60.867188 304.449219 58.484375 C 309.324219 56.152344 314.574219 55.933594 319.246094 57.875 L 339.710938 66.378906 C 350.65625 70.925781 358.742188 80.457031 361.898438 92.535156 C 367.554688 114.195312 368.921875 152.964844 343.292969 214.644531 Z M 343.292969 214.644531 " fill-opacity="1" fill-rule="nonzero"/><path fill="#000000" d="M 175.464844 248.65625 C 173.835938 248.65625 172.519531 249.972656 172.519531 251.601562 L 172.519531 276.371094 L 134.777344 244.519531 C 134.25 244.070312 133.574219 243.824219 132.878906 243.824219 L 21.847656 243.824219 C 13.050781 243.820312 5.890625 236.664062 5.890625 227.863281 L 5.890625 115.675781 C 5.890625 106.875 13.050781 99.71875 21.847656 99.71875 L 107.207031 99.71875 C 108.832031 99.71875 110.152344 98.402344 110.152344 96.773438 C 110.152344 95.144531 108.832031 93.828125 107.207031 93.828125 L 21.847656 93.828125 C 9.800781 93.828125 0 103.628906 0 115.675781 L 0 227.867188 C 0 239.914062 9.800781 249.714844 21.847656 249.714844 L 131.804688 249.714844 L 173.5625 284.964844 C 174.105469 285.425781 174.78125 285.660156 175.464844 285.660156 C 175.882812 285.660156 176.308594 285.570312 176.703125 285.386719 C 177.742188 284.902344 178.410156 283.859375 178.410156 282.714844 L 178.410156 251.601562 C 178.410156 249.972656 177.089844 248.65625 175.464844 248.65625 Z M 175.464844 248.65625 " fill-opacity="1" fill-rule="nonzero"/><path fill="#000000" d="M 82.421875 137.953125 C 84.046875 137.953125 85.367188 136.636719 85.367188 135.007812 C 85.367188 133.375 84.046875 132.058594 82.421875 132.058594 L 37.128906 132.058594 C 35.503906 132.058594 34.183594 133.375 34.183594 135.007812 C 34.183594 136.636719 35.503906 137.953125 37.128906 137.953125 Z M 82.421875 137.953125 " fill-opacity="1" fill-rule="nonzero"/><path fill="#000000" d="M 17.871094 179.105469 C 17.871094 180.738281 19.1875 182.054688 20.816406 182.054688 L 89.203125 182.054688 C 90.828125 182.054688 92.148438 180.738281 92.148438 179.105469 C 92.148438 177.476562 90.828125 176.160156 89.203125 176.160156 L 20.816406 176.160156 C 19.1875 176.160156 17.871094 177.476562 17.871094 179.105469 Z M 17.871094 179.105469 " fill-opacity="1" fill-rule="nonzero"/></svg>