<svg xmlns="http://www.w3.org/2000/svg" xmlns:xlink="http://www.w3.org/1999/xlink" width="500" zoomAndPan="magnify" viewBox="0 0 375 374.999991" height="500" preserveAspectRatio="xMidYMid meet" version="1.0"><defs><clipPath id="b8a15b41bc"><path d="M 26.25 208 L 348.75 208 L 348.75 375 L 26.25 375 Z M 26.25 208 " clip-rule="nonzero"/></clipPath></defs><path fill="#000000" d="M 234.375 112.792969 C 234.375 106.347656 229.101562 101.074219 222.65625 101.074219 L 183.984375 101.074219 L 172.265625 66.503906 C 170.507812 61.816406 166.113281 58.59375 161.132812 58.59375 C 156.152344 58.59375 151.757812 61.816406 150 66.503906 L 138.28125 101.074219 L 99.609375 101.074219 C 94.335938 101.074219 89.941406 104.296875 88.476562 109.277344 C 87.011719 114.257812 88.769531 119.53125 92.871094 122.460938 L 123.632812 143.847656 L 111.914062 178.125 C 110.15625 182.8125 111.914062 188.085938 116.015625 191.308594 C 118.066406 192.773438 120.703125 193.652344 123.046875 193.652344 C 125.390625 193.652344 127.734375 193.066406 129.785156 191.601562 L 161.132812 169.628906 L 192.480469 191.308594 C 194.53125 192.773438 196.875 193.359375 199.21875 193.359375 C 201.855469 193.359375 204.199219 192.480469 206.25 191.015625 C 210.351562 188.085938 211.816406 182.8125 210.351562 177.832031 L 198.632812 143.554688 L 229.101562 122.460938 C 232.324219 120.410156 234.375 116.894531 234.375 112.792969 Z M 184.570312 139.160156 L 199.21875 181.640625 L 161.132812 155.273438 L 123.046875 181.640625 L 137.695312 139.160156 L 99.609375 112.792969 L 146.484375 112.792969 L 161.132812 70.3125 L 175.78125 112.792969 L 222.65625 112.792969 Z M 184.570312 139.160156 " fill-opacity="1" fill-rule="nonzero"/><g clip-path="url(#b8a15b41bc)"><path fill="#000000" d="M 61.230469 276.855469 L 168.457031 372.070312 C 170.507812 374.121094 173.4375 375 176.367188 375 L 301.757812 375 C 302.929688 375 303.808594 375 304.6875 374.707031 C 305.566406 375 306.445312 375 307.617188 375 L 336.914062 375 C 343.359375 375 348.632812 369.726562 348.632812 363.28125 L 348.632812 275.390625 C 348.632812 268.945312 343.359375 263.671875 336.914062 263.671875 L 307.617188 263.671875 C 301.171875 263.671875 295.898438 268.945312 295.898438 275.390625 L 295.898438 282.128906 L 288.28125 282.128906 L 269.53125 243.164062 L 278.320312 243.164062 C 287.988281 243.164062 295.898438 235.253906 295.898438 225.585938 C 295.898438 215.917969 287.988281 208.007812 278.320312 208.007812 L 43.945312 208.007812 C 34.277344 208.007812 26.367188 215.917969 26.367188 225.585938 C 26.367188 235.253906 34.277344 243.164062 43.945312 243.164062 L 57.714844 243.164062 C 55.078125 246.679688 53.320312 251.074219 52.734375 256.054688 C 52.148438 263.964844 55.371094 271.582031 61.230469 276.855469 Z M 307.617188 275.390625 L 336.914062 275.390625 L 336.914062 363.28125 L 307.617188 363.28125 Z M 280.957031 293.847656 L 295.898438 293.847656 L 295.898438 363.28125 L 176.074219 363.28125 L 68.847656 268.066406 C 62.109375 262.207031 63.28125 251.660156 70.605469 246.972656 C 72.65625 245.800781 75 244.921875 77.636719 244.921875 C 80.859375 244.921875 84.082031 246.09375 86.425781 248.4375 L 173.730469 327.832031 L 234.082031 295.3125 L 234.082031 243.164062 L 256.347656 243.164062 Z M 140.625 268.066406 L 157.910156 297.363281 L 98.4375 243.164062 L 140.625 243.164062 C 140.039062 244.042969 139.746094 244.628906 139.453125 245.507812 C 136.230469 252.832031 136.523438 261.035156 140.625 268.066406 Z M 201.5625 299.707031 L 179.589844 311.425781 L 150.585938 262.207031 C 146.484375 254.882812 150.292969 245.800781 157.910156 243.164062 L 166.40625 243.164062 C 169.335938 244.335938 171.972656 246.386719 173.730469 249.316406 Z M 183.691406 243.164062 L 222.363281 243.164062 L 222.363281 288.28125 L 211.816406 294.140625 L 183.984375 243.75 C 183.984375 243.457031 183.691406 243.457031 183.691406 243.164062 Z M 43.945312 231.445312 C 40.722656 231.445312 38.085938 228.808594 38.085938 225.585938 C 38.085938 222.363281 40.722656 219.726562 43.945312 219.726562 L 278.320312 219.726562 C 281.542969 219.726562 284.179688 222.363281 284.179688 225.585938 C 284.179688 228.808594 281.542969 231.445312 278.320312 231.445312 Z M 43.945312 231.445312 " fill-opacity="1" fill-rule="nonzero"/></g><path fill="#000000" d="M 167.871094 38.085938 L 167.871094 5.859375 C 167.871094 2.636719 165.234375 0 162.011719 0 C 158.789062 0 156.152344 2.636719 156.152344 5.859375 L 156.152344 38.085938 C 156.152344 41.308594 158.789062 43.945312 162.011719 43.945312 C 165.234375 43.945312 167.871094 41.308594 167.871094 38.085938 Z M 167.871094 38.085938 " fill-opacity="1" fill-rule="nonzero"/><path fill="#000000" d="M 253.125 37.792969 C 250.78125 35.449219 247.265625 35.449219 244.921875 37.792969 L 217.96875 64.746094 C 215.625 67.089844 215.625 70.605469 217.96875 72.949219 C 219.140625 74.121094 220.605469 74.707031 222.070312 74.707031 C 223.535156 74.707031 225 74.121094 226.171875 72.949219 L 253.125 45.996094 C 255.175781 43.652344 255.175781 40.136719 253.125 37.792969 Z M 253.125 37.792969 " fill-opacity="1" fill-rule="nonzero"/><path fill="#000000" d="M 70.605469 37.792969 C 68.261719 40.136719 68.261719 43.652344 70.605469 45.996094 L 97.558594 72.949219 C 98.730469 74.121094 100.195312 74.707031 101.660156 74.707031 C 103.125 74.707031 104.589844 74.121094 105.761719 72.949219 C 108.105469 70.605469 108.105469 67.089844 105.761719 64.746094 L 79.101562 37.792969 C 76.757812 35.449219 72.949219 35.449219 70.605469 37.792969 Z M 70.605469 37.792969 " fill-opacity="1" fill-rule="nonzero"/></svg>