<svg xmlns="http://www.w3.org/2000/svg" xmlns:xlink="http://www.w3.org/1999/xlink" width="500" zoomAndPan="magnify" viewBox="0 0 375 374.999991" height="500" preserveAspectRatio="xMidYMid meet" version="1.0"><defs><clipPath id="44fa328172"><path d="M 104.761719 0 L 270.511719 0 L 270.511719 375 L 104.761719 375 Z M 104.761719 0 " clip-rule="nonzero"/></clipPath></defs><path fill="#000000" d="M 156.914062 0.359375 C 156.914062 0.359375 138.695312 0.519531 137.179688 20.421875 C 135.625 40.851562 150.785156 48.917969 150.785156 48.917969 L 151.375 65.277344 C 151.375 65.277344 132.867188 66.71875 130.375 73.523438 C 122.238281 95.746094 105.023438 140.800781 105.023438 140.800781 L 141.941406 161.59375 L 126.964844 188.789062 L 131.261719 189.6875 L 136.578125 179.9375 L 134.175781 186.796875 L 137.503906 187.839844 L 139.847656 181.914062 L 137.855469 191.09375 L 141.714844 191.914062 L 144.011719 187.140625 L 142.574219 192.085938 L 145.914062 192.796875 L 148.027344 188.414062 L 146.703125 192.957031 L 151.476562 193.976562 L 150.859375 158.003906 L 155.546875 177.144531 L 137.179688 352.628906 L 116.769531 373.347656 L 167.199219 373.28125 L 151.476562 353.925781 L 180.316406 202.578125 L 227.027344 356.515625 L 219.53125 374.648438 L 269.890625 374.648438 L 242.675781 352.628906 C 242.675781 352.628906 204.789062 229.945312 196.390625 166.785156 C 193.210938 142.902344 194.941406 94.570312 194.941406 94.570312 L 230.238281 101.8125 L 237.691406 64.511719 C 246.566406 69.292969 249.652344 61.222656 254.398438 56.832031 L 254.960938 50.464844 C 255.5 44.300781 250.054688 44.441406 248.285156 41.992188 C 246.808594 39.957031 243.078125 39.894531 242.15625 36.164062 C 241.621094 34 236.023438 26.054688 232.125 31.929688 L 225.449219 41.992188 C 216.027344 36.066406 210.566406 40.542969 210.136719 42.785156 C 209.808594 44.503906 219.980469 43.636719 221.828125 52.582031 C 224.597656 57.191406 222.839844 55.96875 227.957031 58.679688 L 223.222656 83.851562 L 223.113281 83.570312 L 178.019531 64.46875 L 176.652344 52.167969 L 188.910156 52.808594 L 188.175781 47.863281 C 187.128906 48.152344 186.023438 48.304688 184.878906 48.304688 C 178.3125 48.304688 172.992188 43.242188 172.992188 36.996094 C 172.992188 36.511719 173.023438 36.027344 173.089844 35.546875 L 184.878906 36.996094 L 186.570312 36.996094 L 183.457031 15.898438 L 197.078125 8.78125 L 156.917969 0.363281 Z M 140.664062 99.433594 L 149.601562 152.910156 L 125.613281 134.402344 Z M 132.988281 189.019531 L 132.671875 190 L 136.757812 190.855469 L 137.007812 189.933594 Z M 132.988281 189.019531 " fill-opacity="1" fill-rule="nonzero"/><g clip-path="url(#44fa328172)"><path stroke-linecap="butt" transform="matrix(0.412211, 0, 0, 0.411511, 97.811789, -22.982331)" fill="none" stroke-linejoin="miter" d="M 143.378744 56.721893 C 143.378744 56.721893 99.181096 57.111083 95.504276 105.475097 C 91.732693 155.120592 128.510367 174.722493 128.510367 174.722493 L 129.941294 214.476858 C 129.941294 214.476858 85.042397 217.979571 78.996492 234.515413 C 59.257276 288.51794 17.495047 398.003816 17.495047 398.003816 L 107.055934 448.532107 L 70.723647 514.618519 L 81.147621 516.801781 L 94.044919 493.108635 L 88.216971 509.777371 L 96.290812 512.311854 L 101.976616 497.911813 L 97.143683 520.219062 L 106.506306 522.212476 L 112.078394 510.612706 L 108.591101 522.630143 L 116.693371 524.357769 L 121.820071 513.707244 L 118.607592 524.746959 L 130.187679 527.224487 L 128.690417 439.808549 L 140.062025 486.321536 L 95.504276 912.760195 L 45.990401 963.10813 L 168.329946 962.946759 L 130.187679 915.911687 L 200.151495 548.126854 L 313.469566 922.205179 L 295.28447 966.269115 L 417.453441 966.269115 L 351.431782 912.760195 C 351.431782 912.760195 259.520764 614.630933 239.146633 461.147569 C 231.432893 403.110752 235.630911 285.660713 235.630911 285.660713 L 321.259117 303.259709 L 339.339973 212.616339 C 360.870217 224.235093 368.356525 204.623699 379.870278 193.954189 L 381.234871 178.481502 C 382.542606 163.502422 369.332588 163.84415 365.039806 157.892386 C 361.45775 152.946821 352.407845 152.794942 350.171429 143.729656 C 348.873171 138.470841 335.293576 119.163205 325.836189 133.439844 L 309.641124 157.892386 C 286.784193 143.492345 273.53627 154.370688 272.493873 159.819352 C 271.69786 163.996029 296.374249 161.888706 300.856557 183.626408 C 307.575282 194.827494 303.310929 191.856359 315.724934 198.444117 L 304.239611 259.613441 L 303.974273 258.929985 L 194.579408 212.511922 L 191.262689 182.620209 L 220.999443 184.17697 L 219.217891 172.159533 C 216.678232 172.861974 213.996428 173.232179 211.21986 173.232179 C 195.290133 173.232179 182.383358 160.929969 182.383358 145.751547 C 182.383358 144.574484 182.459169 143.39742 182.620267 142.229849 L 211.21986 145.751547 L 215.323115 145.751547 L 207.770472 94.482844 L 240.814469 77.187607 L 143.38822 56.731385 Z M 103.957171 297.478809 L 125.639036 427.430399 L 67.444834 382.455189 Z M 85.336163 515.178573 L 84.56858 517.561177 L 94.480831 519.640023 L 95.087317 517.399806 Z M 85.336163 515.178573 " stroke="#000000" stroke-width="1.068" stroke-opacity="1" stroke-miterlimit="4"/></g></svg>