<svg xmlns="http://www.w3.org/2000/svg" xmlns:xlink="http://www.w3.org/1999/xlink" width="500" zoomAndPan="magnify" viewBox="0 0 375 374.999991" height="500" preserveAspectRatio="xMidYMid meet" version="1.0"><defs><clipPath id="169d7835ff"><path d="M 0 61 L 374 61 L 374 374.71875 L 0 374.71875 Z M 0 61 " clip-rule="nonzero"/></clipPath></defs><g clip-path="url(#169d7835ff)"><path fill="#000000" d="M 232.753906 97.773438 C 234.695312 93.519531 237.53125 90.609375 242.011719 89.640625 C 242.835938 89.492188 243.65625 89.417969 244.476562 89.417969 C 253.140625 89.417969 261.800781 89.714844 270.464844 89.34375 C 278.601562 88.96875 284.652344 95.460938 284.652344 103.59375 C 284.652344 116.199219 284.652344 128.808594 284.652344 141.417969 C 284.652344 142.835938 285.027344 143.878906 286.144531 144.851562 C 303.769531 160.292969 321.316406 175.8125 338.867188 191.332031 C 349.023438 200.285156 359.253906 209.238281 369.410156 218.265625 C 373.8125 222.144531 374.785156 227.292969 373.292969 232.738281 C 371.949219 237.738281 368.660156 241.09375 363.433594 242.140625 C 361.867188 242.4375 360.222656 242.363281 358.582031 242.363281 C 353.578125 242.363281 348.648438 242.363281 343.347656 242.363281 C 343.347656 244.75 343.347656 246.988281 343.347656 249.226562 C 343.347656 264.375 343.347656 279.519531 343.347656 294.664062 C 343.347656 298.542969 342.226562 299.664062 338.269531 299.664062 C 336.179688 299.664062 334.085938 299.664062 331.921875 299.664062 C 329.605469 299.664062 328.335938 298.617188 327.964844 296.304688 C 327.890625 295.78125 327.8125 295.261719 327.8125 294.664062 C 327.8125 276.683594 327.8125 258.777344 327.8125 240.796875 C 327.8125 235.796875 329.160156 231.472656 333.265625 228.261719 C 335.582031 226.472656 338.269531 225.726562 341.179688 225.726562 C 344.542969 225.726562 347.902344 225.726562 351.261719 225.726562 C 351.859375 225.726562 352.382812 225.652344 353.351562 225.652344 C 349.917969 222.59375 346.78125 219.832031 343.644531 217.070312 C 322.214844 198.195312 300.855469 179.320312 279.425781 160.445312 C 277.558594 158.800781 275.617188 157.160156 273.75 155.445312 C 270.464844 152.535156 268.96875 148.730469 268.96875 144.402344 C 268.96875 131.945312 268.96875 119.410156 268.96875 106.949219 C 268.96875 106.726562 268.894531 106.503906 268.894531 106.054688 C 268.296875 105.980469 267.625 105.832031 267.027344 105.832031 C 260.90625 105.832031 254.78125 105.980469 248.660156 105.90625 C 247.238281 105.90625 246.71875 106.351562 246.34375 107.621094 C 244.402344 113.960938 238.429688 117.84375 232.230469 116.5 C 229.988281 115.976562 227.675781 114.785156 225.957031 113.214844 C 213.414062 102.324219 201.015625 91.355469 188.621094 80.390625 C 187.425781 79.34375 186.753906 79.492188 185.632812 80.464844 C 165.394531 98.296875 145.160156 116.125 124.921875 133.957031 C 104.535156 151.9375 84.148438 169.84375 63.839844 187.824219 C 49.800781 200.210938 35.6875 212.59375 21.648438 224.980469 C 21.496094 225.128906 21.347656 225.277344 20.976562 225.652344 C 21.722656 225.726562 22.167969 225.800781 22.691406 225.800781 C 25.902344 225.800781 29.039062 225.875 32.25 225.800781 C 41.210938 225.503906 46.363281 232.21875 46.363281 239.902344 C 46.363281 258.328125 46.363281 276.757812 46.363281 295.261719 C 46.363281 320.03125 46.363281 344.726562 46.363281 369.496094 C 46.363281 370.242188 46.363281 371.0625 46.214844 371.808594 C 45.839844 373.75 44.648438 374.71875 42.703125 374.71875 C 40.242188 374.71875 37.777344 374.71875 35.3125 374.71875 C 32.324219 374.71875 31.128906 373.523438 31.128906 370.613281 C 31.128906 362.109375 31.128906 353.679688 31.128906 345.171875 C 31.128906 311.527344 31.128906 277.878906 31.128906 244.230469 C 31.128906 243.707031 31.054688 243.183594 31.054688 242.363281 C 29.113281 242.363281 27.320312 242.363281 25.457031 242.363281 C 21.496094 242.363281 17.539062 242.363281 13.582031 242.363281 C 6.710938 242.289062 1.1875 237.214844 0.664062 230.351562 C 0.214844 225.351562 1.707031 221.101562 5.515625 217.816406 C 15.375 209.164062 25.304688 200.433594 35.164062 191.777344 C 48.679688 179.84375 62.195312 167.90625 75.710938 156.042969 C 92.589844 141.121094 109.539062 126.273438 126.414062 111.351562 C 139.035156 100.160156 151.582031 89.042969 164.125 78 C 169.128906 73.601562 174.132812 69.199219 179.136719 64.796875 C 183.992188 60.617188 190.261719 60.46875 195.042969 64.648438 C 207.066406 75.167969 219.085938 85.761719 231.035156 96.28125 C 231.632812 96.726562 232.082031 97.175781 232.753906 97.773438 Z M 232.753906 97.773438 " fill-opacity="1" fill-rule="nonzero"/></g></svg>