<svg xmlns="http://www.w3.org/2000/svg" xmlns:xlink="http://www.w3.org/1999/xlink" width="500" zoomAndPan="magnify" viewBox="0 0 375 374.999991" height="500" preserveAspectRatio="xMidYMid meet" version="1.0"><defs><clipPath id="47f500befd"><path d="M 0 71.25 L 375 71.25 L 375 332 L 0 332 Z M 0 71.25 " clip-rule="nonzero"/></clipPath></defs><g clip-path="url(#47f500befd)"><path fill="#000000" d="M 346.996094 331.417969 L 28.320312 331.417969 C 12.816406 331.417969 0.316406 318.917969 0.316406 303.414062 L 0.316406 99.277344 C 0.316406 83.773438 12.816406 71.273438 28.320312 71.273438 L 346.996094 71.273438 C 362.5 71.273438 375 83.773438 375 99.277344 L 375 303.414062 C 375 318.917969 362.183594 331.417969 346.996094 331.417969 Z M 28.320312 81.925781 C 18.5625 81.925781 10.96875 89.835938 10.96875 99.277344 L 10.96875 303.414062 C 10.96875 312.855469 18.878906 320.765625 28.320312 320.765625 L 346.996094 320.765625 C 356.753906 320.765625 364.347656 313.171875 364.347656 303.414062 L 364.347656 99.277344 C 364.347656 89.519531 356.4375 81.925781 346.996094 81.925781 Z M 28.320312 81.925781 " fill-opacity="1" fill-rule="evenodd"/></g><path fill="#000000" d="M 241.261719 374.976562 C 239.152344 374.976562 236.992188 373.761719 236.410156 371.652344 L 219.007812 328.09375 C 217.796875 325.351562 219.324219 322.292969 222.066406 321.082031 C 224.808594 319.867188 227.867188 321.398438 229.082031 324.140625 L 246.429688 367.699219 C 247.644531 370.441406 246.167969 373.445312 243.425781 374.660156 C 242.792969 374.660156 241.894531 374.976562 241.261719 374.976562 Z M 134.054688 374.976562 C 133.421875 374.976562 132.839844 374.976562 132.207031 374.660156 C 129.464844 373.445312 128.253906 370.441406 129.148438 367.699219 L 146.550781 324.140625 C 147.765625 321.398438 150.769531 320.132812 153.511719 321.082031 C 156.253906 322.292969 157.519531 325.351562 156.570312 328.09375 L 139.222656 371.652344 C 138.007812 373.445312 135.847656 374.976562 134.054688 374.976562 Z M 134.054688 374.976562 " fill-opacity="1" fill-rule="evenodd"/><path fill="#000000" d="M 369.515625 289.703125 L 5.484375 289.703125 C 2.425781 289.703125 0 287.277344 0 284.21875 C 0 281.160156 2.425781 278.734375 5.484375 278.734375 L 369.515625 278.734375 C 372.574219 278.734375 375 281.160156 375 284.21875 C 375 287.277344 372.574219 289.703125 369.515625 289.703125 Z M 369.515625 289.703125 " fill-opacity="1" fill-rule="evenodd"/><path fill="#000000" d="M 280.550781 374.976562 L 94.765625 374.976562 C 91.707031 374.976562 89.28125 372.550781 89.28125 369.492188 C 89.28125 366.433594 91.707031 364.007812 94.765625 364.007812 L 280.550781 364.007812 C 283.609375 364.007812 286.035156 366.433594 286.035156 369.492188 C 286.035156 372.550781 283.609375 374.976562 280.550781 374.976562 Z M 280.550781 374.976562 " fill-opacity="1" fill-rule="evenodd"/><path fill="#000000" d="M 94.765625 265.339844 C 65.496094 265.339844 38.074219 246.722656 28.636719 217.191406 C 16.769531 180.910156 36.546875 141.621094 73.089844 129.757812 C 74.355469 129.441406 75.832031 129.441406 77.097656 130.074219 C 78.3125 130.652344 79.207031 131.867188 79.789062 133.132812 L 98.984375 192.195312 L 152.300781 223.890625 C 154.777344 225.417969 155.675781 228.742188 154.144531 231.21875 C 145.601562 245.828125 131.890625 256.796875 115.753906 261.964844 C 108.738281 264.125 101.726562 265.339844 94.765625 265.339844 Z M 71.296875 141.9375 C 43.875 153.804688 29.269531 184.917969 38.707031 214.132812 C 48.726562 244.613281 81.632812 261.648438 112.429688 251.628906 C 124.613281 247.671875 134.632812 240.34375 141.964844 230.269531 L 91.707031 200.421875 C 90.492188 199.84375 89.859375 198.628906 89.28125 197.363281 Z M 71.296875 141.9375 " fill-opacity="1" fill-rule="evenodd"/><path fill="#000000" d="M 173.921875 226.949219 C 173.023438 226.949219 172.128906 226.632812 171.230469 226.316406 L 116.386719 193.726562 C 114.855469 192.828125 113.90625 191.300781 113.90625 189.769531 C 113.644531 188.242188 114.222656 186.394531 115.4375 185.183594 L 161.476562 140.726562 C 163.585938 138.617188 166.960938 138.617188 169.070312 140.726562 C 176.664062 148.636719 182.148438 157.496094 185.207031 167.515625 C 191.324219 186.394531 189.160156 207.121094 178.824219 224.207031 C 177.613281 226 175.765625 226.949219 173.921875 226.949219 Z M 127.621094 187.925781 L 171.8125 214.132812 C 178.191406 200.738281 179.40625 185.183594 174.871094 170.890625 C 172.707031 164.195312 169.386719 157.757812 164.796875 152.273438 Z M 127.621094 187.925781 " fill-opacity="1" fill-rule="evenodd"/><path fill="#000000" d="M 106.945312 185.5 C 106.628906 185.5 105.996094 185.5 105.734375 185.183594 C 103.886719 184.917969 102.359375 183.390625 102.042969 181.542969 L 82.265625 120.898438 C 81.316406 118.15625 82.847656 115.148438 85.589844 114.199219 C 110.902344 105.972656 138.324219 112.722656 156.886719 131.867188 C 157.785156 132.816406 158.417969 134.34375 158.417969 135.558594 C 158.417969 137.085938 157.785156 138.300781 156.886719 139.195312 L 110.585938 183.96875 C 109.6875 184.917969 108.160156 185.5 106.945312 185.5 Z M 94.132812 123.058594 L 109.371094 170.257812 L 145.285156 135.558594 C 130.996094 123.375 112.113281 118.789062 94.132812 123.058594 Z M 94.132812 123.058594 " fill-opacity="1" fill-rule="evenodd"/><path fill="#000000" d="M 350.636719 262.28125 L 201.660156 262.28125 C 198.601562 262.28125 196.175781 259.855469 196.175781 256.796875 C 196.175781 253.738281 198.601562 251.3125 201.660156 251.3125 L 350.636719 251.3125 C 353.695312 251.3125 356.121094 253.738281 356.121094 256.796875 C 356.121094 259.855469 353.378906 262.28125 350.636719 262.28125 Z M 350.636719 262.28125 " fill-opacity="1" fill-rule="evenodd"/><path fill="#000000" d="M 244.636719 262.28125 C 241.578125 262.28125 239.152344 259.855469 239.152344 256.796875 L 239.152344 211.707031 L 218.113281 211.707031 L 218.113281 256.796875 C 218.113281 259.855469 215.6875 262.28125 212.628906 262.28125 C 209.570312 262.28125 207.144531 259.855469 207.144531 256.796875 L 207.144531 206.539062 C 207.144531 203.480469 209.570312 201.054688 212.628906 201.054688 L 244.320312 201.054688 C 247.378906 201.054688 249.804688 203.480469 249.804688 206.539062 L 249.804688 257.113281 C 250.121094 259.855469 247.644531 262.28125 244.636719 262.28125 Z M 244.636719 262.28125 " fill-opacity="1" fill-rule="evenodd"/><path fill="#000000" d="M 292.152344 262.28125 C 289.09375 262.28125 286.667969 259.855469 286.667969 256.796875 L 286.667969 196.785156 L 265.628906 196.785156 L 265.628906 256.796875 C 265.628906 259.855469 263.203125 262.28125 260.144531 262.28125 C 257.136719 262.28125 254.660156 259.855469 254.660156 256.796875 L 254.660156 191.617188 C 254.660156 188.558594 257.136719 186.132812 260.144531 186.132812 L 291.835938 186.132812 C 294.894531 186.132812 297.320312 188.558594 297.320312 191.617188 L 297.320312 257.113281 C 297.320312 259.855469 294.894531 262.28125 292.152344 262.28125 Z M 292.152344 262.28125 " fill-opacity="1" fill-rule="evenodd"/><path fill="#000000" d="M 339.035156 262.28125 C 336.027344 262.28125 333.550781 259.855469 333.550781 256.796875 L 333.550781 170.890625 L 312.878906 170.890625 L 312.878906 256.796875 C 312.878906 259.855469 310.398438 262.28125 307.394531 262.28125 C 304.335938 262.28125 301.910156 259.855469 301.910156 256.796875 L 301.910156 165.722656 C 301.910156 162.664062 304.335938 160.238281 307.394531 160.238281 L 338.769531 160.238281 C 341.777344 160.238281 344.253906 162.664062 344.253906 165.722656 L 344.253906 256.796875 C 344.519531 259.855469 342.09375 262.28125 339.035156 262.28125 Z M 339.035156 262.28125 " fill-opacity="1" fill-rule="evenodd"/><path fill="#000000" d="M 338.769531 113.621094 L 213.523438 113.621094 C 210.519531 113.621094 208.039062 111.195312 208.039062 108.136719 C 208.039062 105.078125 210.519531 102.652344 213.523438 102.652344 L 338.769531 102.652344 C 341.777344 102.652344 344.253906 105.078125 344.253906 108.136719 C 344.253906 111.195312 341.777344 113.621094 338.769531 113.621094 Z M 338.769531 113.621094 " fill-opacity="1" fill-rule="evenodd"/><path fill="#000000" d="M 338.769531 137.351562 L 213.523438 137.351562 C 210.519531 137.351562 208.039062 134.925781 208.039062 131.867188 C 208.039062 128.859375 210.519531 126.382812 213.523438 126.382812 L 338.769531 126.382812 C 341.777344 126.382812 344.253906 128.859375 344.253906 131.867188 C 344.253906 134.925781 341.777344 137.351562 338.769531 137.351562 Z M 338.769531 137.351562 " fill-opacity="1" fill-rule="evenodd"/></svg>