<svg xmlns="http://www.w3.org/2000/svg" xmlns:xlink="http://www.w3.org/1999/xlink" width="500" zoomAndPan="magnify" viewBox="0 0 375 374.999991" height="500" preserveAspectRatio="xMidYMid meet" version="1.0"><defs><filter x="0%" y="0%" width="100%" height="100%" id="bddf9690d1"><feColorMatrix values="0 0 0 0 1 0 0 0 0 1 0 0 0 0 1 0 0 0 1 0" color-interpolation-filters="sRGB"/></filter><g/><clipPath id="d66cb41730"><path d="M 35 65.6875 L 354 65.6875 L 354 337.5 L 35 337.5 Z M 35 65.6875 " clip-rule="nonzero"/></clipPath><clipPath id="ad5d97e1d5"><path d="M 336.464844 201.574219 L 343.574219 194.054688 C 356.308594 180.582031 356.308594 158.667969 343.574219 145.203125 L 278.394531 76.257812 C 272.078125 69.574219 263.640625 65.894531 254.640625 65.898438 C 245.644531 65.898438 237.207031 69.578125 230.894531 76.261719 L 224.445312 83.082031 L 217.996094 76.257812 C 211.679688 69.578125 203.246094 65.894531 194.246094 65.894531 C 185.246094 65.894531 176.808594 69.574219 170.496094 76.257812 L 164.039062 83.085938 L 157.574219 76.25 C 151.257812 69.574219 142.824219 65.894531 133.824219 65.894531 C 133.824219 65.894531 133.820312 65.894531 133.820312 65.894531 C 124.824219 65.898438 116.386719 69.578125 110.074219 76.257812 L 44.910156 145.199219 C 32.179688 158.667969 32.179688 180.582031 44.910156 194.050781 L 52.027344 201.574219 L 44.910156 209.101562 C 32.179688 222.566406 32.175781 244.480469 44.910156 257.953125 L 110.070312 326.890625 C 116.386719 333.574219 124.824219 337.257812 133.820312 337.257812 C 133.824219 337.257812 133.824219 337.257812 133.824219 337.257812 C 142.824219 337.257812 151.257812 333.578125 157.574219 326.898438 L 164.035156 320.0625 L 170.492188 326.894531 C 176.808594 333.578125 185.242188 337.257812 194.242188 337.257812 C 203.242188 337.257812 211.679688 333.578125 217.996094 326.894531 L 224.445312 320.074219 L 230.890625 326.894531 C 237.207031 333.574219 245.640625 337.253906 254.640625 337.253906 C 254.640625 337.253906 254.640625 337.253906 254.644531 337.253906 C 263.640625 337.253906 272.078125 333.578125 278.394531 326.894531 L 343.574219 257.953125 C 356.304688 244.484375 356.304688 222.566406 343.574219 209.097656 Z M 170.492188 288 L 164.039062 294.828125 L 75.886719 201.574219 L 119.960938 154.949219 L 164.035156 108.328125 L 170.492188 115.152344 C 171.390625 116.101562 172.339844 116.976562 173.320312 117.800781 C 174.925781 119.15625 176.621094 120.355469 178.410156 121.367188 C 178.414062 121.367188 178.421875 121.371094 178.425781 121.371094 C 180.339844 122.453125 182.355469 123.332031 184.4375 123.996094 C 184.464844 124.003906 184.492188 124.007812 184.519531 124.015625 C 186.582031 124.667969 188.714844 125.113281 190.894531 125.339844 C 191.453125 125.394531 192.019531 125.394531 192.585938 125.425781 C 193.136719 125.453125 193.683594 125.511719 194.238281 125.511719 C 196.492188 125.511719 198.703125 125.28125 200.859375 124.832031 C 207.324219 123.480469 213.253906 120.160156 217.992188 115.148438 L 223.949219 108.84375 L 224.441406 108.324219 L 312.601562 201.578125 L 224.445312 294.832031 L 217.992188 288.007812 C 211.675781 281.324219 203.242188 277.644531 194.242188 277.644531 C 194.238281 277.644531 194.238281 277.644531 194.238281 277.644531 C 185.242188 277.644531 176.808594 281.320312 170.492188 288 Z M 243.488281 88.171875 C 246.496094 84.992188 250.460938 83.238281 254.644531 83.238281 C 258.828125 83.238281 262.789062 84.988281 265.800781 88.171875 L 330.980469 157.117188 C 337.503906 164.015625 337.503906 175.238281 330.980469 182.136719 L 324.535156 188.957031 L 236.375 95.699219 Z M 183.089844 88.171875 C 186.097656 84.988281 190.058594 83.238281 194.246094 83.238281 C 198.429688 83.238281 202.390625 84.988281 205.402344 88.171875 L 212.515625 95.699219 L 205.394531 103.230469 C 203.515625 105.21875 201.265625 106.652344 198.820312 107.445312 C 197.351562 107.917969 195.8125 108.167969 194.242188 108.167969 C 190.058594 108.167969 186.097656 106.414062 183.089844 103.234375 L 175.972656 95.707031 Z M 57.507812 182.132812 C 50.984375 175.234375 50.984375 164.011719 57.507812 157.113281 L 122.667969 88.171875 C 125.675781 84.988281 129.640625 83.238281 133.824219 83.238281 C 138.007812 83.238281 141.96875 84.988281 144.976562 88.171875 L 152.105469 95.707031 L 108.03125 142.332031 L 63.957031 188.953125 Z M 133.824219 319.914062 C 129.640625 319.914062 125.675781 318.160156 122.667969 314.976562 L 57.507812 246.039062 C 50.984375 239.136719 50.984375 227.914062 57.507812 221.015625 L 63.953125 214.195312 L 152.105469 307.445312 L 144.976562 314.984375 C 141.972656 318.164062 138.011719 319.914062 133.824219 319.914062 Z M 194.246094 319.914062 C 190.058594 319.914062 186.097656 318.160156 183.089844 314.980469 L 175.96875 307.445312 L 183.085938 299.914062 C 186.09375 296.734375 190.058594 294.984375 194.242188 294.984375 C 198.425781 294.984375 202.386719 296.734375 205.398438 299.917969 L 212.519531 307.453125 L 205.402344 314.980469 C 202.390625 318.160156 198.429688 319.914062 194.246094 319.914062 Z M 330.980469 246.035156 L 265.796875 314.980469 C 262.789062 318.160156 258.828125 319.914062 254.640625 319.914062 C 250.457031 319.914062 246.496094 318.160156 243.488281 314.980469 L 236.375 307.453125 L 324.535156 214.195312 L 330.980469 221.015625 C 337.5 227.914062 337.5 239.140625 330.980469 246.035156 Z M 330.980469 246.035156 " clip-rule="nonzero"/></clipPath><mask id="55d166ec98"><g filter="url(#bddf9690d1)"><rect x="-37.5" width="450" fill="#000000" y="-37.499999" height="449.999989" fill-opacity="0.7569"/></g></mask><clipPath id="89f8706bcd"><rect x="0" width="143" y="0" height="97"/></clipPath></defs><g clip-path="url(#d66cb41730)"><g clip-path="url(#ad5d97e1d5)"><path fill="#000000" d="M 32.242188 65.894531 L 32.242188 337.257812 L 356.308594 337.257812 L 356.308594 65.894531 Z M 32.242188 65.894531 " fill-opacity="1" fill-rule="nonzero"/></g></g><g mask="url(#55d166ec98)"><g transform="matrix(1, 0, 0, 1, 119, 157)"><g clip-path="url(#89f8706bcd)"><g fill="#555555" fill-opacity="1"><g transform="translate(0.413817, 75.747895)"><g><path d="M 5.75 0 L 5.75 -55.859375 L 11.171875 -55.859375 L 31.671875 -15 L 52.1875 -55.859375 L 57.609375 -55.859375 L 57.609375 0 L 52.59375 0 L 52.59375 -46.59375 L 34.390625 -10.453125 L 28.96875 -10.453125 L 10.765625 -46.59375 L 10.765625 0 Z M 5.75 0 "/></g></g></g><g fill="#555555" fill-opacity="1"><g transform="translate(60.408732, 75.747895)"><g><path d="M 19.390625 0 L 19.390625 -51.0625 L 3.59375 -51.0625 L 3.984375 -55.859375 L 40.140625 -55.859375 L 39.734375 -51.0625 L 24.421875 -51.0625 L 24.421875 0 Z M 19.390625 0 "/></g></g></g><g fill="#555555" fill-opacity="1"><g transform="translate(100.139218, 75.747895)"><g><path d="M 37.265625 -40.859375 C 37.265625 -33.191406 34.628906 -28.054688 29.359375 -25.453125 L 41.421875 0 L 35.59375 0 L 24.265625 -23.78125 C 22.347656 -23.457031 20.242188 -23.296875 17.953125 -23.296875 L 11.8125 -23.296875 L 11.8125 0 L 6.390625 0 L 6.390625 -55.859375 L 17.953125 -55.859375 C 24.441406 -55.859375 29.175781 -54.847656 32.15625 -52.828125 C 35.5625 -50.535156 37.265625 -46.546875 37.265625 -40.859375 Z M 11.8125 -51.46875 L 11.8125 -27.6875 L 17.5625 -27.6875 C 22.289062 -27.6875 25.851562 -28.644531 28.25 -30.5625 C 30.644531 -32.476562 31.84375 -35.800781 31.84375 -40.53125 C 31.84375 -46.601562 29.078125 -50.113281 23.546875 -51.0625 C 21.785156 -51.332031 19.789062 -51.46875 17.5625 -51.46875 Z M 11.8125 -51.46875 "/></g></g></g></g></g></g><path stroke-linecap="butt" transform="matrix(0.353886, 0, 0, 0.353924, -21.692777, 191.64652)" fill="none" stroke-linejoin="miter" d="M 0.00387442 27.995191 L 1182.13391 27.995191 " stroke="#ffffff" stroke-width="56" stroke-opacity="1" stroke-miterlimit="4"/><g fill="#fdbf00" fill-opacity="1"><g transform="translate(45.392205, 207.661966)"><g><path d="M 26.226562 -14.300781 C 26.226562 -14.519531 26.046875 -14.742188 25.804688 -14.742188 C 25.207031 -14.742188 23.488281 -13.164062 23.070312 -12.785156 C 21.792969 -11.605469 20.652344 -10.265625 19.515625 -8.96875 C 17.757812 -6.972656 16.058594 -4.933594 14.339844 -2.894531 C 14.160156 -2.675781 12.921875 -1.179688 12.742188 -1.179688 C 12.625 -1.179688 12.582031 -1.296875 12.582031 -1.398438 C 12.582031 -1.816406 13.722656 -3.617188 13.941406 -3.953125 C 15.78125 -6.769531 17.835938 -9.425781 19.792969 -12.164062 C 19.972656 -12.421875 20.753906 -13.402344 20.753906 -13.742188 C 20.753906 -14 20.53125 -14.203125 20.273438 -14.203125 C 19.613281 -14.203125 18.257812 -13.0625 17.816406 -12.664062 C 15.878906 -10.90625 14.0625 -9.027344 12.222656 -7.171875 C 10.566406 -5.511719 8.886719 -3.753906 6.871094 -2.558594 C 5.253906 -1.597656 3.15625 -0.738281 1.257812 -0.738281 C -0.679688 -0.738281 -1.957031 -1.519531 -2.335938 -3.433594 C -1.519531 -3.214844 -0.71875 -3.074219 0.140625 -3.074219 C 2.65625 -3.074219 5.433594 -4.054688 7.511719 -5.472656 C 8.910156 -6.429688 10.527344 -8.269531 10.527344 -10.066406 C 10.527344 -11.726562 8.808594 -12.304688 7.410156 -12.304688 C 5.074219 -12.304688 2.398438 -11.003906 0.640625 -9.527344 C -1.277344 -7.910156 -2.257812 -6.351562 -2.636719 -3.855469 C -3.914062 -4.414062 -4.492188 -5.453125 -4.492188 -6.832031 C -4.492188 -9.128906 -2.417969 -11.066406 -0.417969 -11.863281 C 0.417969 -12.203125 1.316406 -12.382812 2.21875 -12.382812 C 3.234375 -12.382812 3.695312 -12.265625 3.855469 -12.265625 C 3.914062 -12.265625 4.015625 -12.285156 4.015625 -12.363281 C 4.015625 -12.542969 3.394531 -12.664062 2.375 -12.664062 C 1.4375 -12.664062 0.519531 -12.484375 -0.359375 -12.164062 C -2.535156 -11.363281 -4.792969 -9.40625 -4.792969 -6.910156 C -4.792969 -5.394531 -4.074219 -4.132812 -2.636719 -3.554688 C -2.636719 -1.316406 -0.898438 0.0390625 1.238281 0.0390625 C 3.695312 0.0390625 6.710938 -1.636719 8.628906 -3.074219 C 10.785156 -4.695312 14.203125 -8.96875 17.175781 -11.746094 C 17.597656 -12.144531 19.65625 -13.882812 20.195312 -13.882812 C 20.292969 -13.882812 20.414062 -13.820312 20.414062 -13.703125 C 20.414062 -13.382812 18.855469 -11.644531 18.59375 -11.34375 C 17.457031 -10.046875 16.339844 -8.75 15.21875 -7.429688 C 14.179688 -6.171875 11.105469 -2.695312 11.105469 -0.957031 C 11.105469 -0.597656 11.183594 0 11.664062 0 C 12.445312 0 13.703125 -1.65625 14.160156 -2.195312 C 14.839844 -2.996094 15.519531 -3.835938 16.199219 -4.652344 C 18.117188 -6.992188 20.054688 -9.347656 22.191406 -11.484375 C 22.691406 -11.984375 25.128906 -14.421875 25.667969 -14.421875 C 25.804688 -14.421875 25.886719 -14.320312 25.886719 -14.179688 C 25.886719 -13.523438 16.757812 -5.652344 16.757812 -1.257812 C 16.757812 -0.660156 17.039062 0.0195312 17.738281 0.0195312 C 18.777344 0.0195312 20.933594 -1.917969 21.632812 -2.65625 C 21.710938 -2.757812 22.449219 -3.515625 22.449219 -3.636719 C 22.449219 -3.695312 22.429688 -3.734375 22.371094 -3.734375 C 22.210938 -3.734375 19.59375 -0.679688 18.4375 -0.679688 C 18.136719 -0.679688 18.097656 -0.980469 18.097656 -1.21875 C 18.097656 -1.816406 19.054688 -3.753906 19.335938 -4.355469 C 20.851562 -7.550781 23.210938 -10.347656 25.445312 -13.082031 C 25.6875 -13.363281 26.226562 -13.902344 26.226562 -14.300781 Z M 10.226562 -9.96875 C 10.226562 -8.347656 8.667969 -6.589844 7.410156 -5.734375 C 5.472656 -4.433594 2.695312 -3.355469 0.339844 -3.355469 C -0.578125 -3.355469 -1.4375 -3.496094 -2.316406 -3.734375 C -1.859375 -6.273438 -1.078125 -7.671875 0.878906 -9.386719 C 2.617188 -10.925781 5.054688 -12.003906 7.390625 -12.003906 C 8.730469 -12.003906 10.226562 -11.566406 10.226562 -9.96875 Z M 10.226562 -9.96875 "/></g></g></g><g fill="#fdbf00" fill-opacity="1"><g transform="translate(74.952228, 207.661966)"><g><path d="M 0.140625 -3.976562 C -0.339844 -3.375 -1.917969 -1.636719 -1.917969 -0.820312 C -1.917969 -0.378906 -1.558594 -0.0195312 -1.117188 -0.0195312 C -0.078125 -0.0195312 0.898438 -1.199219 1.578125 -1.878906 C 1.398438 -1.578125 1.117188 -1.019531 1.117188 -0.660156 C 1.117188 -0.257812 1.296875 0 1.71875 0 C 2.976562 0 5.035156 -2.316406 5.8125 -3.15625 C 5.914062 -3.253906 6.113281 -3.433594 6.113281 -3.59375 C 6.113281 -3.636719 6.113281 -3.675781 6.050781 -3.675781 C 5.914062 -3.675781 5.832031 -3.554688 5.734375 -3.457031 C 5.171875 -2.855469 2.757812 -0.320312 1.9375 -0.320312 C 1.796875 -0.320312 1.738281 -0.4375 1.738281 -0.558594 C 1.738281 -1.117188 5.214844 -5.152344 5.3125 -5.292969 L 4.15625 -5.234375 C 3.074219 -3.835938 1.878906 -2.4375 0.539062 -1.296875 C 0.257812 -1.078125 -0.539062 -0.320312 -0.898438 -0.320312 C -1.097656 -0.320312 -1.199219 -0.4375 -1.199219 -0.640625 C -1.199219 -1.199219 1.976562 -4.894531 2.335938 -5.3125 L 1.179688 -5.234375 Z M 0.140625 -3.976562 "/></g></g></g><g fill="#fdbf00" fill-opacity="1"><g transform="translate(88.234721, 207.661966)"><g><path d="M -3.117188 0 L -1.9375 -0.0585938 L 0.121094 -2.597656 C 0.640625 -3.234375 1.179688 -3.796875 1.835938 -4.292969 C 2.058594 -4.472656 2.816406 -4.972656 3.097656 -4.972656 C 3.234375 -4.972656 3.316406 -4.894531 3.316406 -4.753906 C 3.316406 -4.074219 0.757812 -1.816406 0.757812 -0.777344 C 0.757812 -0.28125 1.160156 0 1.636719 0 C 2.894531 0 5.152344 -2.238281 6.011719 -3.074219 C 6.09375 -3.15625 6.472656 -3.457031 6.472656 -3.574219 C 6.472656 -3.617188 6.429688 -3.65625 6.390625 -3.65625 C 6.230469 -3.65625 5.890625 -3.253906 5.792969 -3.15625 C 5.113281 -2.476562 2.835938 -0.359375 1.835938 -0.359375 C 1.65625 -0.359375 1.558594 -0.460938 1.558594 -0.640625 C 1.558594 -1.179688 4.113281 -3.617188 4.113281 -4.554688 C 4.113281 -5.011719 3.796875 -5.3125 3.335938 -5.3125 C 2.65625 -5.3125 1.636719 -4.394531 1.160156 -3.996094 L 2.21875 -5.371094 C 3.933594 -6.3125 5.652344 -7.25 7.109375 -8.570312 C 7.808594 -9.207031 9.246094 -10.6875 9.246094 -11.683594 C 9.246094 -12.0625 8.949219 -12.304688 8.589844 -12.304688 C 7.628906 -12.304688 6.050781 -10.804688 5.394531 -10.1875 C 3.753906 -8.648438 2.398438 -6.832031 1 -5.09375 Z M 9.007812 -11.683594 C 9.007812 -10.804688 7.648438 -9.386719 7.050781 -8.847656 C 5.691406 -7.589844 4.113281 -6.710938 2.496094 -5.851562 C 3.355469 -7.011719 7.050781 -12.042969 8.648438 -12.042969 C 8.867188 -12.042969 9.007812 -11.90625 9.007812 -11.683594 Z M 9.007812 -11.683594 "/></g></g></g><g fill="#fdbf00" fill-opacity="1"><g transform="translate(101.896687, 207.661966)"><g><path d="M 4.113281 -4.535156 C 4.132812 -4.59375 4.15625 -4.675781 4.15625 -4.734375 C 4.15625 -5.09375 3.675781 -5.191406 3.394531 -5.191406 C 1.679688 -5.191406 -1.617188 -2.957031 -1.617188 -1.097656 C -1.617188 -0.4375 -1.117188 0 -0.480469 0 C 0.28125 0 1.199219 -0.9375 1.71875 -1.417969 C 1.636719 -1.179688 1.539062 -0.878906 1.539062 -0.640625 C 1.539062 -0.199219 1.898438 0 2.296875 0 C 3.476562 0 5.472656 -1.816406 6.273438 -2.597656 C 6.410156 -2.714844 7.152344 -3.375 7.152344 -3.535156 C 7.152344 -3.59375 7.128906 -3.636719 7.070312 -3.636719 C 6.972656 -3.636719 3.65625 -0.339844 2.636719 -0.339844 C 2.496094 -0.339844 2.316406 -0.417969 2.316406 -0.597656 C 2.316406 -0.839844 2.9375 -1.65625 3.097656 -1.859375 L 5.691406 -5.132812 L 4.554688 -5.074219 Z M 3.753906 -4.515625 C 3.753906 -3.617188 0.378906 -0.238281 -0.480469 -0.238281 C -0.679688 -0.238281 -0.859375 -0.460938 -0.859375 -0.660156 C -0.859375 -1.398438 0.621094 -2.9375 1.097656 -3.414062 C 1.597656 -3.914062 2.578125 -4.914062 3.355469 -4.914062 C 3.574219 -4.914062 3.753906 -4.734375 3.753906 -4.515625 Z M 3.753906 -4.515625 "/></g></g></g><g fill="#fdbf00" fill-opacity="1"><g transform="translate(116.297631, 207.661966)"><g><path d="M 2.796875 0 C 4.132812 -1.757812 4.894531 -2.816406 6.511719 -4.234375 C 6.769531 -4.472656 7.289062 -4.933594 7.671875 -4.933594 C 7.828125 -4.933594 7.96875 -4.792969 7.96875 -4.632812 C 7.96875 -3.976562 5.511719 -1.71875 5.511719 -0.71875 C 5.511719 -0.199219 5.933594 0 6.390625 0 C 7.53125 0 9.847656 -2.476562 10.605469 -3.234375 C 10.667969 -3.296875 10.945312 -3.535156 10.945312 -3.617188 C 10.945312 -3.675781 10.886719 -3.714844 10.824219 -3.714844 C 10.765625 -3.714844 7.449219 -0.359375 6.589844 -0.359375 C 6.453125 -0.359375 6.332031 -0.480469 6.332031 -0.621094 C 6.332031 -0.917969 6.832031 -1.578125 6.992188 -1.796875 L 8.289062 -3.59375 C 8.507812 -3.914062 8.789062 -4.253906 8.789062 -4.652344 C 8.789062 -5.113281 8.410156 -5.332031 7.988281 -5.332031 C 7.210938 -5.332031 6.113281 -4.273438 5.59375 -3.773438 C 5.734375 -4.015625 5.890625 -4.375 5.890625 -4.652344 C 5.890625 -5.074219 5.613281 -5.3125 5.214844 -5.3125 C 4.492188 -5.3125 3.175781 -4.234375 2.675781 -3.773438 C 2.796875 -3.976562 2.917969 -4.414062 2.917969 -4.652344 C 2.917969 -5.035156 2.675781 -5.3125 2.296875 -5.3125 C 1.539062 -5.3125 0.558594 -4.113281 0 -3.636719 C -0.078125 -3.574219 -0.160156 -3.496094 -0.160156 -3.394531 C -0.160156 -3.355469 -0.121094 -3.316406 -0.078125 -3.316406 C 0.238281 -3.316406 1.378906 -4.972656 2.078125 -4.972656 C 2.21875 -4.972656 2.355469 -4.855469 2.355469 -4.714844 C 2.355469 -4.414062 1.796875 -3.65625 1.617188 -3.433594 L -1.019531 -0.0585938 L 0.0390625 -0.0195312 C 0.480469 -0.558594 0.859375 -1.160156 1.277344 -1.71875 C 2.058594 -2.757812 2.957031 -3.734375 4.015625 -4.492188 C 4.234375 -4.652344 4.59375 -4.875 4.875 -4.875 C 5.054688 -4.875 5.171875 -4.773438 5.171875 -4.59375 C 5.171875 -4.433594 5.035156 -4.195312 4.933594 -4.074219 C 3.894531 -2.695312 2.796875 -1.378906 1.757812 0 Z M 2.796875 0 "/></g></g></g><g fill="#fdbf00" fill-opacity="1"><g transform="translate(134.393476, 207.661966)"><g><path d="M 2.796875 0 C 4.132812 -1.757812 4.894531 -2.816406 6.511719 -4.234375 C 6.769531 -4.472656 7.289062 -4.933594 7.671875 -4.933594 C 7.828125 -4.933594 7.96875 -4.792969 7.96875 -4.632812 C 7.96875 -3.976562 5.511719 -1.71875 5.511719 -0.71875 C 5.511719 -0.199219 5.933594 0 6.390625 0 C 7.53125 0 9.847656 -2.476562 10.605469 -3.234375 C 10.667969 -3.296875 10.945312 -3.535156 10.945312 -3.617188 C 10.945312 -3.675781 10.886719 -3.714844 10.824219 -3.714844 C 10.765625 -3.714844 7.449219 -0.359375 6.589844 -0.359375 C 6.453125 -0.359375 6.332031 -0.480469 6.332031 -0.621094 C 6.332031 -0.917969 6.832031 -1.578125 6.992188 -1.796875 L 8.289062 -3.59375 C 8.507812 -3.914062 8.789062 -4.253906 8.789062 -4.652344 C 8.789062 -5.113281 8.410156 -5.332031 7.988281 -5.332031 C 7.210938 -5.332031 6.113281 -4.273438 5.59375 -3.773438 C 5.734375 -4.015625 5.890625 -4.375 5.890625 -4.652344 C 5.890625 -5.074219 5.613281 -5.3125 5.214844 -5.3125 C 4.492188 -5.3125 3.175781 -4.234375 2.675781 -3.773438 C 2.796875 -3.976562 2.917969 -4.414062 2.917969 -4.652344 C 2.917969 -5.035156 2.675781 -5.3125 2.296875 -5.3125 C 1.539062 -5.3125 0.558594 -4.113281 0 -3.636719 C -0.078125 -3.574219 -0.160156 -3.496094 -0.160156 -3.394531 C -0.160156 -3.355469 -0.121094 -3.316406 -0.078125 -3.316406 C 0.238281 -3.316406 1.378906 -4.972656 2.078125 -4.972656 C 2.21875 -4.972656 2.355469 -4.855469 2.355469 -4.714844 C 2.355469 -4.414062 1.796875 -3.65625 1.617188 -3.433594 L -1.019531 -0.0585938 L 0.0390625 -0.0195312 C 0.480469 -0.558594 0.859375 -1.160156 1.277344 -1.71875 C 2.058594 -2.757812 2.957031 -3.734375 4.015625 -4.492188 C 4.234375 -4.652344 4.59375 -4.875 4.875 -4.875 C 5.054688 -4.875 5.171875 -4.773438 5.171875 -4.59375 C 5.171875 -4.433594 5.035156 -4.195312 4.933594 -4.074219 C 3.894531 -2.695312 2.796875 -1.378906 1.757812 0 Z M 2.796875 0 "/></g></g></g><g fill="#fdbf00" fill-opacity="1"><g transform="translate(152.489321, 207.661966)"><g><path d="M 4.113281 -4.535156 C 4.132812 -4.59375 4.15625 -4.675781 4.15625 -4.734375 C 4.15625 -5.09375 3.675781 -5.191406 3.394531 -5.191406 C 1.679688 -5.191406 -1.617188 -2.957031 -1.617188 -1.097656 C -1.617188 -0.4375 -1.117188 0 -0.480469 0 C 0.28125 0 1.199219 -0.9375 1.71875 -1.417969 C 1.636719 -1.179688 1.539062 -0.878906 1.539062 -0.640625 C 1.539062 -0.199219 1.898438 0 2.296875 0 C 3.476562 0 5.472656 -1.816406 6.273438 -2.597656 C 6.410156 -2.714844 7.152344 -3.375 7.152344 -3.535156 C 7.152344 -3.59375 7.128906 -3.636719 7.070312 -3.636719 C 6.972656 -3.636719 3.65625 -0.339844 2.636719 -0.339844 C 2.496094 -0.339844 2.316406 -0.417969 2.316406 -0.597656 C 2.316406 -0.839844 2.9375 -1.65625 3.097656 -1.859375 L 5.691406 -5.132812 L 4.554688 -5.074219 Z M 3.753906 -4.515625 C 3.753906 -3.617188 0.378906 -0.238281 -0.480469 -0.238281 C -0.679688 -0.238281 -0.859375 -0.460938 -0.859375 -0.660156 C -0.859375 -1.398438 0.621094 -2.9375 1.097656 -3.414062 C 1.597656 -3.914062 2.578125 -4.914062 3.355469 -4.914062 C 3.574219 -4.914062 3.753906 -4.734375 3.753906 -4.515625 Z M 3.753906 -4.515625 "/></g></g></g><g fill="#fdbf00" fill-opacity="1"><g transform="translate(166.890265, 207.661966)"><g><path d="M 3.914062 -4.292969 C 3.976562 -4.394531 3.996094 -4.554688 3.996094 -4.695312 C 3.996094 -5.011719 3.457031 -5.292969 3.054688 -5.292969 C 1.957031 -5.292969 0.839844 -4.433594 0.078125 -3.714844 C -0.640625 -3.035156 -1.699219 -2.058594 -1.699219 -0.980469 C -1.699219 -0.339844 -1.359375 0 -0.71875 0 C 0.238281 0 1.136719 -0.859375 1.796875 -1.457031 C 1.71875 -1.257812 1.65625 -1.039062 1.65625 -0.820312 C 1.65625 -0.28125 2.078125 0.0195312 2.578125 0.0195312 C 3.574219 0.0195312 5.035156 -1.597656 5.632812 -2.238281 C 5.734375 -2.335938 6.890625 -3.535156 6.890625 -3.617188 C 6.890625 -3.675781 6.851562 -3.714844 6.792969 -3.714844 C 6.472656 -3.714844 3.894531 -0.28125 2.636719 -0.28125 C 2.4375 -0.28125 2.296875 -0.4375 2.296875 -0.640625 C 2.296875 -0.859375 2.535156 -1.179688 2.65625 -1.339844 L 9.167969 -9.96875 L 8.230469 -9.96875 Z M 3.675781 -4.453125 C 3.675781 -3.59375 2.65625 -2.65625 2.097656 -2.097656 C 1.597656 -1.597656 0.179688 -0.320312 -0.578125 -0.320312 C -0.839844 -0.320312 -0.980469 -0.460938 -0.980469 -0.71875 C -0.980469 -1.457031 0.339844 -2.796875 0.820312 -3.296875 C 1.339844 -3.835938 2.355469 -4.972656 3.175781 -4.972656 C 3.496094 -4.972656 3.675781 -4.773438 3.675781 -4.453125 Z M 3.675781 -4.453125 "/></g></g></g><g fill="#fdbf00" fill-opacity="1"><g transform="translate(180.911736, 207.661966)"><g/></g></g><g fill="#fdbf00" fill-opacity="1"><g transform="translate(193.45524, 207.661966)"><g><path d="M 24.027344 -14.601562 C 24.027344 -14.960938 23.628906 -15.039062 23.347656 -15.039062 C 22.332031 -15.039062 21.113281 -14.382812 20.273438 -13.84375 C 19.195312 -14.101562 18.15625 -14.539062 17.097656 -14.878906 C 16.097656 -15.199219 14.902344 -15.5 13.84375 -15.5 C 12.863281 -15.5 11.523438 -15.160156 10.765625 -14.5 C 10.007812 -13.84375 9.507812 -12.785156 9.507812 -11.785156 C 9.507812 -11.605469 9.648438 -10.367188 9.886719 -10.367188 C 9.945312 -10.367188 9.988281 -10.386719 9.988281 -10.445312 C 9.988281 -10.707031 9.765625 -11.164062 9.765625 -11.664062 C 9.765625 -13.480469 11.125 -14.519531 12.863281 -14.519531 C 13.921875 -14.519531 17.175781 -13.363281 19.175781 -13.042969 C 18.414062 -12.421875 17.65625 -11.785156 16.976562 -11.066406 C 15.859375 -9.867188 14.960938 -8.46875 14.082031 -7.089844 C 12.964844 -5.351562 11.925781 -3.394531 10.285156 -2.078125 C 9.148438 -1.160156 7.609375 -0.460938 6.132812 -0.460938 C 5.214844 -0.460938 4.3125 -0.71875 3.554688 -1.21875 C 2.738281 -1.777344 2.457031 -2.296875 2.058594 -3.175781 C 2.515625 -3.074219 2.976562 -2.976562 3.457031 -2.976562 C 4.992188 -2.976562 6.710938 -3.675781 7.871094 -4.675781 C 8.929688 -5.574219 10.007812 -7.128906 10.007812 -8.570312 C 10.007812 -9.90625 8.886719 -10.546875 7.671875 -10.546875 C 5.972656 -10.546875 4.394531 -9.507812 3.316406 -8.269531 C 2.097656 -6.871094 1.679688 -5.472656 1.679688 -3.636719 C 0.71875 -4.234375 0.339844 -4.832031 0.339844 -5.972656 C 0.339844 -7.609375 1.378906 -9.066406 2.757812 -9.90625 C 2.957031 -10.027344 3.476562 -10.265625 3.476562 -10.347656 C 3.476562 -10.425781 3.394531 -10.445312 3.335938 -10.445312 C 2.816406 -10.445312 1.398438 -9.207031 1.078125 -8.789062 C 0.460938 -7.949219 0.078125 -7.03125 0.078125 -5.972656 C 0.078125 -4.613281 0.597656 -3.976562 1.738281 -3.296875 C 2.597656 -0.820312 4.613281 0.0195312 7.089844 0.0195312 C 10.507812 0.0195312 12.921875 -2.316406 14.460938 -5.152344 C 16.199219 -8.390625 16.5 -10.484375 19.59375 -13.003906 C 19.972656 -12.941406 20.351562 -12.921875 20.734375 -12.921875 C 21.113281 -12.921875 21.492188 -12.964844 21.871094 -13.042969 C 22.53125 -13.203125 24.027344 -13.742188 24.027344 -14.601562 Z M 23.75 -14.582031 C 23.75 -13.902344 22.332031 -13.523438 21.8125 -13.523438 C 21.410156 -13.523438 21.03125 -13.601562 20.652344 -13.722656 C 21.371094 -14.203125 22.53125 -14.820312 23.429688 -14.820312 C 23.589844 -14.820312 23.75 -14.761719 23.75 -14.582031 Z M 9.707031 -8.609375 C 9.707031 -5.753906 6.191406 -3.277344 3.535156 -3.277344 C 2.996094 -3.277344 2.457031 -3.394531 1.9375 -3.515625 C 1.9375 -3.714844 1.917969 -3.914062 1.917969 -4.113281 C 1.917969 -7.011719 4.714844 -10.285156 7.710938 -10.285156 C 8.75 -10.285156 9.707031 -9.746094 9.707031 -8.609375 Z M 9.707031 -8.609375 "/></g></g></g><g fill="#fdbf00" fill-opacity="1"><g transform="translate(217.842405, 207.661966)"><g><path d="M 4.113281 -4.535156 C 4.132812 -4.59375 4.15625 -4.675781 4.15625 -4.734375 C 4.15625 -5.09375 3.675781 -5.191406 3.394531 -5.191406 C 1.679688 -5.191406 -1.617188 -2.957031 -1.617188 -1.097656 C -1.617188 -0.4375 -1.117188 0 -0.480469 0 C 0.28125 0 1.199219 -0.9375 1.71875 -1.417969 C 1.636719 -1.179688 1.539062 -0.878906 1.539062 -0.640625 C 1.539062 -0.199219 1.898438 0 2.296875 0 C 3.476562 0 5.472656 -1.816406 6.273438 -2.597656 C 6.410156 -2.714844 7.152344 -3.375 7.152344 -3.535156 C 7.152344 -3.59375 7.128906 -3.636719 7.070312 -3.636719 C 6.972656 -3.636719 3.65625 -0.339844 2.636719 -0.339844 C 2.496094 -0.339844 2.316406 -0.417969 2.316406 -0.597656 C 2.316406 -0.839844 2.9375 -1.65625 3.097656 -1.859375 L 5.691406 -5.132812 L 4.554688 -5.074219 Z M 3.753906 -4.515625 C 3.753906 -3.617188 0.378906 -0.238281 -0.480469 -0.238281 C -0.679688 -0.238281 -0.859375 -0.460938 -0.859375 -0.660156 C -0.859375 -1.398438 0.621094 -2.9375 1.097656 -3.414062 C 1.597656 -3.914062 2.578125 -4.914062 3.355469 -4.914062 C 3.574219 -4.914062 3.753906 -4.734375 3.753906 -4.515625 Z M 3.753906 -4.515625 "/></g></g></g><g fill="#fdbf00" fill-opacity="1"><g transform="translate(232.243349, 207.661966)"><g><path d="M -3.117188 0 L -1.9375 -0.0585938 L 0.121094 -2.597656 C 0.640625 -3.234375 1.179688 -3.796875 1.835938 -4.292969 C 2.058594 -4.472656 2.816406 -4.972656 3.097656 -4.972656 C 3.234375 -4.972656 3.316406 -4.894531 3.316406 -4.753906 C 3.316406 -4.074219 0.757812 -1.816406 0.757812 -0.777344 C 0.757812 -0.28125 1.160156 0 1.636719 0 C 2.894531 0 5.152344 -2.238281 6.011719 -3.074219 C 6.09375 -3.15625 6.472656 -3.457031 6.472656 -3.574219 C 6.472656 -3.617188 6.429688 -3.65625 6.390625 -3.65625 C 6.230469 -3.65625 5.890625 -3.253906 5.792969 -3.15625 C 5.113281 -2.476562 2.835938 -0.359375 1.835938 -0.359375 C 1.65625 -0.359375 1.558594 -0.460938 1.558594 -0.640625 C 1.558594 -1.179688 4.113281 -3.617188 4.113281 -4.554688 C 4.113281 -5.011719 3.796875 -5.3125 3.335938 -5.3125 C 2.65625 -5.3125 1.636719 -4.394531 1.160156 -3.996094 L 2.21875 -5.371094 C 3.933594 -6.3125 5.652344 -7.25 7.109375 -8.570312 C 7.808594 -9.207031 9.246094 -10.6875 9.246094 -11.683594 C 9.246094 -12.0625 8.949219 -12.304688 8.589844 -12.304688 C 7.628906 -12.304688 6.050781 -10.804688 5.394531 -10.1875 C 3.753906 -8.648438 2.398438 -6.832031 1 -5.09375 Z M 9.007812 -11.683594 C 9.007812 -10.804688 7.648438 -9.386719 7.050781 -8.847656 C 5.691406 -7.589844 4.113281 -6.710938 2.496094 -5.851562 C 3.355469 -7.011719 7.050781 -12.042969 8.648438 -12.042969 C 8.867188 -12.042969 9.007812 -11.90625 9.007812 -11.683594 Z M 9.007812 -11.683594 "/></g></g></g><g fill="#fdbf00" fill-opacity="1"><g transform="translate(245.905304, 207.661966)"><g><path d="M 4.113281 -4.535156 C 4.132812 -4.59375 4.15625 -4.675781 4.15625 -4.734375 C 4.15625 -5.09375 3.675781 -5.191406 3.394531 -5.191406 C 1.679688 -5.191406 -1.617188 -2.957031 -1.617188 -1.097656 C -1.617188 -0.4375 -1.117188 0 -0.480469 0 C 0.28125 0 1.199219 -0.9375 1.71875 -1.417969 C 1.636719 -1.179688 1.539062 -0.878906 1.539062 -0.640625 C 1.539062 -0.199219 1.898438 0 2.296875 0 C 3.476562 0 5.472656 -1.816406 6.273438 -2.597656 C 6.410156 -2.714844 7.152344 -3.375 7.152344 -3.535156 C 7.152344 -3.59375 7.128906 -3.636719 7.070312 -3.636719 C 6.972656 -3.636719 3.65625 -0.339844 2.636719 -0.339844 C 2.496094 -0.339844 2.316406 -0.417969 2.316406 -0.597656 C 2.316406 -0.839844 2.9375 -1.65625 3.097656 -1.859375 L 5.691406 -5.132812 L 4.554688 -5.074219 Z M 3.753906 -4.515625 C 3.753906 -3.617188 0.378906 -0.238281 -0.480469 -0.238281 C -0.679688 -0.238281 -0.859375 -0.460938 -0.859375 -0.660156 C -0.859375 -1.398438 0.621094 -2.9375 1.097656 -3.414062 C 1.597656 -3.914062 2.578125 -4.914062 3.355469 -4.914062 C 3.574219 -4.914062 3.753906 -4.734375 3.753906 -4.515625 Z M 3.753906 -4.515625 "/></g></g></g><g fill="#fdbf00" fill-opacity="1"><g transform="translate(260.306236, 207.661966)"><g/></g></g><g fill="#fdbf00" fill-opacity="1"><g transform="translate(272.849728, 207.661966)"><g><path d="M 20.992188 -11.003906 C 20.992188 -12.203125 20.292969 -13.0625 19.394531 -13.761719 C 19.515625 -13.800781 20.59375 -14.179688 20.59375 -14.28125 C 20.59375 -14.339844 20.554688 -14.359375 20.472656 -14.359375 C 20.195312 -14.359375 19.292969 -14.0625 19.015625 -13.980469 C 17.097656 -14.902344 15.640625 -15.058594 13.523438 -15.160156 C 12.742188 -16.679688 10.527344 -17.097656 8.988281 -17.097656 C 6.949219 -17.097656 4.492188 -16.160156 3.214844 -14.519531 C 3.097656 -14.359375 2.277344 -13.324219 2.277344 -13.164062 C 2.277344 -13.101562 2.316406 -13.0625 2.375 -13.0625 C 2.457031 -13.0625 2.777344 -13.5625 2.917969 -13.761719 C 4.335938 -15.78125 6.550781 -16.839844 8.988281 -16.839844 C 10.328125 -16.839844 12.523438 -16.519531 13.183594 -15.140625 C 9.847656 -15.058594 7.089844 -14.5625 4.214844 -12.785156 C 2.316406 -11.605469 0.121094 -9.367188 0.121094 -6.972656 C 0.121094 -5.371094 1.398438 -4.792969 2.835938 -4.792969 C 5.234375 -4.792969 7.410156 -5.753906 9.289062 -7.011719 C 11.265625 -8.347656 13.941406 -10.945312 13.941406 -13.542969 C 13.941406 -14 13.800781 -14.421875 13.664062 -14.859375 C 15.460938 -14.820312 16.996094 -14.722656 18.574219 -13.800781 C 16.4375 -12.84375 14.679688 -11.304688 13.121094 -9.585938 C 11.484375 -7.789062 10.125 -5.792969 8.648438 -3.894531 C 7.589844 -2.535156 5.871094 -0.300781 3.976562 -0.300781 C 3.554688 -0.300781 3.277344 -0.398438 2.917969 -0.621094 C 3.117188 -0.757812 3.277344 -0.9375 3.277344 -1.199219 C 3.277344 -1.519531 3.015625 -1.835938 2.675781 -1.835938 C 2.296875 -1.835938 2.015625 -1.476562 2.015625 -1.117188 C 2.015625 -0.21875 3.457031 0 4.09375 0 C 7.46875 0 10.246094 -3.574219 12.003906 -6.050781 C 13.324219 -7.910156 15.28125 -10.886719 17.039062 -12.34375 C 17.617188 -12.824219 18.257812 -13.203125 18.914062 -13.5625 C 19.535156 -13.101562 19.875 -12.382812 19.875 -11.625 C 19.875 -10.125 18.574219 -8.6875 17.296875 -8.070312 C 16.636719 -7.75 14.621094 -7.070312 13.902344 -7.070312 C 13.203125 -7.070312 12.941406 -6.972656 12.941406 -6.851562 C 12.941406 -6.550781 14.203125 -6.390625 14.203125 -5.492188 C 14.203125 -4.613281 12.503906 -2.796875 12.503906 -1.078125 C 12.503906 -0.597656 12.84375 0 13.382812 0 C 14.582031 0 16.757812 -2.277344 17.515625 -3.054688 C 17.578125 -3.117188 17.777344 -3.277344 17.777344 -3.375 C 17.777344 -3.433594 17.738281 -3.457031 17.675781 -3.457031 C 17.476562 -3.457031 15 -0.660156 13.921875 -0.660156 C 13.722656 -0.660156 13.542969 -0.777344 13.542969 -1 C 13.542969 -1.738281 15.101562 -3.554688 15.101562 -4.773438 C 15.101562 -5.871094 14.359375 -6.351562 13.460938 -6.8125 C 16.019531 -6.8125 16.796875 -6.992188 17.796875 -7.410156 C 19.195312 -8.007812 20.992188 -9.308594 20.992188 -11.003906 Z M 13.640625 -13.601562 C 13.640625 -11.40625 11.804688 -9.328125 10.207031 -8.03125 C 8.308594 -6.492188 5.472656 -5.054688 2.976562 -5.054688 C 1.699219 -5.054688 0.398438 -5.472656 0.398438 -6.972656 C 0.398438 -9.425781 2.757812 -11.542969 4.675781 -12.722656 C 7.332031 -14.359375 10.285156 -14.839844 13.363281 -14.839844 C 13.5625 -14.421875 13.640625 -14.0625 13.640625 -13.601562 Z M 13.640625 -13.601562 "/></g></g></g><g fill="#fdbf00" fill-opacity="1"><g transform="translate(297.975883, 207.661966)"><g><path d="M 4.113281 -4.535156 C 4.132812 -4.59375 4.15625 -4.675781 4.15625 -4.734375 C 4.15625 -5.09375 3.675781 -5.191406 3.394531 -5.191406 C 1.679688 -5.191406 -1.617188 -2.957031 -1.617188 -1.097656 C -1.617188 -0.4375 -1.117188 0 -0.480469 0 C 0.28125 0 1.199219 -0.9375 1.71875 -1.417969 C 1.636719 -1.179688 1.539062 -0.878906 1.539062 -0.640625 C 1.539062 -0.199219 1.898438 0 2.296875 0 C 3.476562 0 5.472656 -1.816406 6.273438 -2.597656 C 6.410156 -2.714844 7.152344 -3.375 7.152344 -3.535156 C 7.152344 -3.59375 7.128906 -3.636719 7.070312 -3.636719 C 6.972656 -3.636719 3.65625 -0.339844 2.636719 -0.339844 C 2.496094 -0.339844 2.316406 -0.417969 2.316406 -0.597656 C 2.316406 -0.839844 2.9375 -1.65625 3.097656 -1.859375 L 5.691406 -5.132812 L 4.554688 -5.074219 Z M 3.753906 -4.515625 C 3.753906 -3.617188 0.378906 -0.238281 -0.480469 -0.238281 C -0.679688 -0.238281 -0.859375 -0.460938 -0.859375 -0.660156 C -0.859375 -1.398438 0.621094 -2.9375 1.097656 -3.414062 C 1.597656 -3.914062 2.578125 -4.914062 3.355469 -4.914062 C 3.574219 -4.914062 3.753906 -4.734375 3.753906 -4.515625 Z M 3.753906 -4.515625 "/></g></g></g><g fill="#fdbf00" fill-opacity="1"><g transform="translate(312.376815, 207.661966)"><g><path d="M 5.332031 -3.554688 C 5.332031 -3.59375 5.292969 -3.636719 5.253906 -3.636719 C 5.113281 -3.636719 4.773438 -3.253906 4.675781 -3.15625 C 3.816406 -2.296875 1.519531 -0.339844 0.21875 -0.339844 C -0.21875 -0.339844 -0.519531 -0.640625 -0.519531 -1.078125 C -0.519531 -1.378906 -0.378906 -1.617188 -0.21875 -1.859375 C 0.917969 -2.238281 3.695312 -3.195312 3.695312 -4.695312 C 3.695312 -5.113281 3.296875 -5.292969 2.9375 -5.292969 C 2.015625 -5.292969 0.578125 -4.3125 0 -3.675781 C -0.558594 -3.074219 -1.21875 -2.257812 -1.21875 -1.398438 C -1.21875 -0.640625 -0.578125 0 0.179688 0 C 1.71875 0 4.414062 -2.457031 5.332031 -3.554688 Z M 3.296875 -4.753906 C 3.296875 -4.234375 2.675781 -3.636719 2.316406 -3.335938 C 1.636719 -2.777344 0.757812 -2.476562 -0.0390625 -2.175781 C 0.4375 -2.917969 1.976562 -5.054688 2.957031 -5.054688 C 3.136719 -5.054688 3.296875 -4.953125 3.296875 -4.753906 Z M 3.296875 -4.753906 "/></g></g></g><g fill="#fdbf00" fill-opacity="1"><g transform="translate(324.920308, 207.661966)"><g><path d="M 5.332031 -3.554688 C 5.332031 -3.59375 5.292969 -3.636719 5.253906 -3.636719 C 5.113281 -3.636719 4.773438 -3.253906 4.675781 -3.15625 C 3.816406 -2.296875 1.519531 -0.339844 0.21875 -0.339844 C -0.21875 -0.339844 -0.519531 -0.640625 -0.519531 -1.078125 C -0.519531 -1.378906 -0.378906 -1.617188 -0.21875 -1.859375 C 0.917969 -2.238281 3.695312 -3.195312 3.695312 -4.695312 C 3.695312 -5.113281 3.296875 -5.292969 2.9375 -5.292969 C 2.015625 -5.292969 0.578125 -4.3125 0 -3.675781 C -0.558594 -3.074219 -1.21875 -2.257812 -1.21875 -1.398438 C -1.21875 -0.640625 -0.578125 0 0.179688 0 C 1.71875 0 4.414062 -2.457031 5.332031 -3.554688 Z M 3.296875 -4.753906 C 3.296875 -4.234375 2.675781 -3.636719 2.316406 -3.335938 C 1.636719 -2.777344 0.757812 -2.476562 -0.0390625 -2.175781 C 0.4375 -2.917969 1.976562 -5.054688 2.957031 -5.054688 C 3.136719 -5.054688 3.296875 -4.953125 3.296875 -4.753906 Z M 3.296875 -4.753906 "/></g></g></g><g fill="#fdbf00" fill-opacity="1"><g transform="translate(337.4638, 207.661966)"><g><path d="M 6.070312 -3.554688 C 6.070312 -3.617188 6.011719 -3.636719 5.972656 -3.636719 C 5.871094 -3.636719 5.054688 -2.835938 4.953125 -2.757812 C 3.914062 -1.835938 1.71875 -0.257812 0.339844 -0.257812 C 1.679688 -0.917969 3.136719 -2.015625 3.136719 -3.65625 C 3.136719 -4.394531 2.738281 -4.953125 2.355469 -5.554688 C 2.558594 -5.773438 2.777344 -6.03125 2.777344 -6.351562 C 2.777344 -6.511719 2.675781 -6.691406 2.496094 -6.691406 C 2.058594 -6.691406 1.957031 -6.03125 1.9375 -5.710938 C 1.398438 -4.972656 0.699219 -4.335938 0.0585938 -3.675781 C 0.0195312 -3.636719 -0.160156 -3.476562 -0.160156 -3.394531 C -0.160156 -3.355469 -0.140625 -3.296875 -0.078125 -3.296875 C 0.0195312 -3.296875 1.777344 -5.132812 2.015625 -5.394531 C 2.296875 -4.992188 2.375 -4.714844 2.375 -4.234375 C 2.375 -2.9375 0.820312 -0.28125 -0.640625 -0.28125 C -0.898438 -0.28125 -1.21875 -0.5 -1.21875 -0.777344 C -1.21875 -1.359375 -0.21875 -0.878906 -0.21875 -1.496094 C -0.21875 -1.738281 -0.480469 -1.816406 -0.679688 -1.816406 C -1.199219 -1.816406 -1.519531 -1.339844 -1.519531 -0.859375 C -1.519531 -0.0585938 -0.621094 0 -0.0195312 0 C 1.777344 0 3.476562 -1.277344 4.832031 -2.335938 C 5.011719 -2.476562 6.070312 -3.296875 6.070312 -3.554688 Z M 6.070312 -3.554688 "/></g></g></g></svg>