<svg xmlns="http://www.w3.org/2000/svg" xmlns:xlink="http://www.w3.org/1999/xlink" width="500" zoomAndPan="magnify" viewBox="0 0 375 374.999991" height="500" preserveAspectRatio="xMidYMid meet" version="1.0"><path fill="#555555" d="M 292.402344 133.097656 C 292.402344 132.257812 292.339844 131.421875 292.21875 130.59375 C 292.097656 129.765625 291.914062 128.949219 291.671875 128.148438 C 291.425781 127.34375 291.128906 126.5625 290.769531 125.804688 C 290.414062 125.046875 290 124.320312 289.535156 123.621094 C 289.070312 122.921875 288.558594 122.261719 287.996094 121.640625 C 287.4375 121.019531 286.832031 120.441406 286.183594 119.90625 C 285.539062 119.375 284.855469 118.890625 284.136719 118.457031 C 283.421875 118.023438 282.675781 117.644531 281.902344 117.320312 C 281.511719 117.15625 281.109375 117.035156 280.691406 116.949219 C 280.277344 116.863281 279.855469 116.820312 279.433594 116.820312 C 279.007812 116.816406 278.589844 116.859375 278.171875 116.9375 C 277.757812 117.019531 277.351562 117.140625 276.960938 117.300781 C 276.566406 117.460938 276.195312 117.660156 275.839844 117.894531 C 275.488281 118.128906 275.160156 118.394531 274.859375 118.691406 C 274.558594 118.992188 274.289062 119.316406 274.054688 119.667969 C 273.816406 120.019531 273.617188 120.390625 273.453125 120.78125 C 273.289062 121.171875 273.164062 121.578125 273.082031 121.992188 C 272.996094 122.40625 272.953125 122.828125 272.953125 123.25 C 272.949219 123.675781 272.992188 124.097656 273.074219 124.511719 C 273.152344 124.929688 273.273438 125.332031 273.4375 125.722656 C 273.597656 126.117188 273.792969 126.488281 274.027344 126.84375 C 274.261719 127.195312 274.53125 127.523438 274.828125 127.824219 C 275.128906 128.125 275.453125 128.394531 275.804688 128.628906 C 276.15625 128.867188 276.527344 129.066406 276.917969 129.230469 C 277.371094 129.414062 277.777344 129.667969 278.140625 129.996094 C 278.5 130.320312 278.796875 130.699219 279.027344 131.128906 C 279.257812 131.558594 279.410156 132.015625 279.480469 132.496094 C 279.550781 132.980469 279.535156 133.460938 279.4375 133.9375 C 279.339844 134.414062 279.167969 134.863281 278.914062 135.277344 C 278.660156 135.695312 278.34375 136.054688 277.964844 136.359375 C 277.582031 136.667969 277.164062 136.898438 276.703125 137.058594 C 276.242188 137.214844 275.765625 137.292969 275.28125 137.285156 L 202.023438 137.285156 C 201.597656 137.285156 201.179688 137.328125 200.761719 137.410156 C 200.347656 137.492188 199.945312 137.613281 199.550781 137.777344 C 199.160156 137.9375 198.789062 138.136719 198.4375 138.371094 C 198.085938 138.609375 197.757812 138.875 197.457031 139.175781 C 197.160156 139.476562 196.890625 139.800781 196.65625 140.152344 C 196.421875 140.503906 196.222656 140.878906 196.058594 141.269531 C 195.898438 141.660156 195.773438 142.0625 195.691406 142.480469 C 195.609375 142.894531 195.566406 143.316406 195.566406 143.738281 C 195.566406 144.164062 195.609375 144.582031 195.691406 145 C 195.773438 145.414062 195.898438 145.816406 196.058594 146.210938 C 196.222656 146.601562 196.421875 146.972656 196.65625 147.324219 C 196.890625 147.675781 197.160156 148.003906 197.457031 148.304688 C 197.757812 148.601562 198.085938 148.871094 198.4375 149.105469 C 198.789062 149.339844 199.160156 149.539062 199.550781 149.703125 C 199.945312 149.863281 200.347656 149.988281 200.761719 150.070312 C 201.179688 150.152344 201.597656 150.195312 202.023438 150.195312 L 275.28125 150.195312 C 275.839844 150.195312 276.398438 150.167969 276.957031 150.113281 C 277.515625 150.058594 278.070312 149.976562 278.617188 149.871094 C 279.167969 149.761719 279.710938 149.625 280.25 149.464844 C 280.785156 149.300781 281.3125 149.113281 281.832031 148.898438 C 282.347656 148.6875 282.855469 148.445312 283.347656 148.183594 C 283.84375 147.917969 284.324219 147.632812 284.789062 147.320312 C 285.257812 147.011719 285.707031 146.675781 286.140625 146.320312 C 286.574219 145.964844 286.988281 145.589844 287.386719 145.195312 C 287.78125 144.800781 288.160156 144.382812 288.515625 143.953125 C 288.871094 143.519531 289.203125 143.070312 289.515625 142.601562 C 289.828125 142.136719 290.117188 141.65625 290.378906 141.164062 C 290.644531 140.667969 290.882812 140.164062 291.097656 139.644531 C 291.3125 139.128906 291.503906 138.601562 291.664062 138.0625 C 291.828125 137.527344 291.964844 136.984375 292.074219 136.433594 C 292.183594 135.886719 292.265625 135.332031 292.320312 134.773438 C 292.375 134.214844 292.402344 133.65625 292.402344 133.097656 Z M 292.402344 133.097656 " fill-opacity="1" fill-rule="evenodd"/><path fill="#555555" d="M 147.484375 73.296875 C 145.980469 72.558594 144.4375 71.929688 142.847656 71.40625 C 141.261719 70.882812 139.644531 70.472656 138 70.171875 C 136.355469 69.871094 134.699219 69.683594 133.027344 69.613281 C 131.359375 69.542969 129.691406 69.585938 128.027344 69.742188 C 126.363281 69.898438 124.714844 70.171875 123.089844 70.554688 C 121.460938 70.941406 119.871094 71.433594 118.3125 72.039062 C 116.753906 72.644531 115.242188 73.351562 113.78125 74.164062 C 112.320312 74.976562 110.921875 75.886719 109.585938 76.890625 C 108.25 77.894531 106.988281 78.988281 105.804688 80.164062 C 104.617188 81.34375 103.519531 82.597656 102.507812 83.929688 C 101.492188 85.257812 100.578125 86.652344 99.757812 88.109375 C 98.9375 89.566406 98.21875 91.070312 97.605469 92.628906 C 96.992188 94.183594 96.488281 95.773438 96.097656 97.398438 C 95.703125 99.023438 95.421875 100.667969 95.253906 102.328125 C 95.085938 103.992188 95.035156 105.660156 95.097656 107.332031 C 95.160156 109 95.335938 110.660156 95.628906 112.304688 C 95.691406 112.730469 95.796875 113.148438 95.945312 113.550781 C 96.089844 113.957031 96.277344 114.34375 96.5 114.710938 C 96.726562 115.078125 96.984375 115.421875 97.277344 115.738281 C 97.570312 116.054688 97.890625 116.335938 98.242188 116.589844 C 98.589844 116.839844 98.960938 117.054688 99.355469 117.230469 C 99.746094 117.410156 100.152344 117.546875 100.574219 117.640625 C 100.992188 117.738281 101.417969 117.792969 101.847656 117.800781 C 102.28125 117.8125 102.707031 117.78125 103.132812 117.707031 C 103.554688 117.632812 103.96875 117.515625 104.371094 117.359375 C 104.769531 117.199219 105.152344 117.003906 105.511719 116.769531 C 105.875 116.539062 106.210938 116.269531 106.519531 115.96875 C 106.828125 115.667969 107.101562 115.339844 107.34375 114.984375 C 107.585938 114.628906 107.792969 114.25 107.960938 113.855469 C 108.125 113.457031 108.253906 113.046875 108.339844 112.625 C 108.421875 112.203125 108.464844 111.777344 108.464844 111.347656 C 108.464844 110.914062 108.421875 110.488281 108.335938 110.066406 C 108.101562 108.710938 107.980469 107.34375 107.980469 105.96875 C 107.980469 105.472656 107.996094 104.976562 108.03125 104.484375 C 108.0625 103.988281 108.109375 103.496094 108.171875 103.003906 C 108.234375 102.511719 108.3125 102.023438 108.40625 101.535156 C 108.5 101.046875 108.609375 100.566406 108.734375 100.085938 C 108.855469 99.605469 108.996094 99.128906 109.152344 98.660156 C 109.304688 98.1875 109.476562 97.722656 109.660156 97.261719 C 109.84375 96.800781 110.039062 96.347656 110.253906 95.902344 C 110.464844 95.453125 110.691406 95.011719 110.933594 94.578125 C 111.175781 94.144531 111.429688 93.71875 111.695312 93.304688 C 111.964844 92.886719 112.242188 92.476562 112.535156 92.078125 C 112.832031 91.679688 113.136719 91.289062 113.453125 90.910156 C 113.773438 90.527344 114.101562 90.160156 114.445312 89.800781 C 114.785156 89.441406 115.136719 89.089844 115.5 88.753906 C 115.863281 88.417969 116.238281 88.09375 116.621094 87.78125 C 117.007812 87.464844 117.402344 87.164062 117.804688 86.878906 C 118.207031 86.589844 118.617188 86.3125 119.039062 86.050781 C 119.460938 85.789062 119.886719 85.539062 120.324219 85.304688 C 120.761719 85.070312 121.203125 84.847656 121.65625 84.640625 C 122.105469 84.433594 122.5625 84.242188 123.023438 84.0625 C 123.488281 83.886719 123.953125 83.722656 124.425781 83.574219 C 124.898438 83.425781 125.378906 83.292969 125.859375 83.175781 C 126.339844 83.054688 126.824219 82.953125 127.3125 82.863281 C 127.800781 82.777344 128.289062 82.707031 128.78125 82.648438 C 129.273438 82.59375 129.769531 82.550781 130.265625 82.527344 C 130.757812 82.5 131.253906 82.492188 131.75 82.496094 C 132.246094 82.503906 132.742188 82.523438 133.234375 82.5625 C 133.730469 82.601562 134.222656 82.652344 134.710938 82.722656 C 135.203125 82.789062 135.691406 82.875 136.175781 82.972656 C 136.664062 83.074219 137.144531 83.1875 137.625 83.316406 C 138.101562 83.449219 138.574219 83.59375 139.042969 83.753906 C 139.511719 83.914062 139.976562 84.085938 140.433594 84.277344 C 140.894531 84.464844 141.34375 84.671875 141.789062 84.886719 C 142.171875 85.074219 142.566406 85.21875 142.972656 85.328125 C 143.382812 85.433594 143.796875 85.5 144.21875 85.527344 C 144.640625 85.554688 145.0625 85.539062 145.480469 85.480469 C 145.902344 85.425781 146.308594 85.328125 146.710938 85.191406 C 147.109375 85.054688 147.492188 84.878906 147.859375 84.664062 C 148.222656 84.453125 148.566406 84.207031 148.882812 83.929688 C 149.199219 83.648438 149.488281 83.339844 149.742188 83.003906 C 150 82.667969 150.222656 82.3125 150.410156 81.929688 C 150.59375 81.550781 150.742188 81.15625 150.851562 80.75 C 150.960938 80.339844 151.027344 79.925781 151.054688 79.503906 C 151.082031 79.082031 151.070312 78.660156 151.015625 78.242188 C 150.960938 77.824219 150.863281 77.414062 150.726562 77.011719 C 150.59375 76.613281 150.417969 76.230469 150.207031 75.863281 C 149.996094 75.496094 149.753906 75.152344 149.472656 74.835938 C 149.195312 74.515625 148.886719 74.230469 148.554688 73.972656 C 148.21875 73.714844 147.863281 73.492188 147.484375 73.300781 Z M 147.484375 73.296875 " fill-opacity="1" fill-rule="evenodd"/><path fill="#555555" d="M 329.496094 291.09375 L 265.597656 291.09375 C 265.175781 291.09375 264.753906 291.132812 264.339844 291.21875 C 263.921875 291.300781 263.519531 291.421875 263.128906 291.585938 C 262.738281 291.746094 262.363281 291.945312 262.011719 292.179688 C 261.660156 292.417969 261.332031 292.683594 261.035156 292.984375 C 260.734375 293.28125 260.46875 293.609375 260.230469 293.960938 C 259.996094 294.3125 259.796875 294.6875 259.636719 295.078125 C 259.472656 295.46875 259.351562 295.871094 259.269531 296.289062 C 259.183594 296.703125 259.144531 297.125 259.144531 297.546875 C 259.144531 297.972656 259.183594 298.390625 259.269531 298.804688 C 259.351562 299.222656 259.472656 299.625 259.636719 300.015625 C 259.796875 300.410156 259.996094 300.78125 260.230469 301.132812 C 260.46875 301.484375 260.734375 301.8125 261.035156 302.109375 C 261.332031 302.410156 261.660156 302.679688 262.011719 302.914062 C 262.363281 303.148438 262.738281 303.347656 263.128906 303.511719 C 263.519531 303.671875 263.921875 303.796875 264.339844 303.878906 C 264.753906 303.960938 265.175781 304 265.597656 304 L 329.496094 304 C 329.921875 304 330.339844 303.960938 330.753906 303.878906 C 331.171875 303.796875 331.574219 303.671875 331.964844 303.511719 C 332.359375 303.347656 332.730469 303.148438 333.082031 302.914062 C 333.433594 302.679688 333.761719 302.410156 334.058594 302.109375 C 334.359375 301.8125 334.628906 301.484375 334.863281 301.132812 C 335.097656 300.78125 335.296875 300.410156 335.460938 300.015625 C 335.621094 299.625 335.746094 299.222656 335.828125 298.804688 C 335.910156 298.390625 335.949219 297.972656 335.949219 297.546875 C 335.949219 297.125 335.910156 296.703125 335.828125 296.289062 C 335.746094 295.871094 335.621094 295.46875 335.460938 295.078125 C 335.296875 294.6875 335.097656 294.3125 334.863281 293.960938 C 334.628906 293.609375 334.359375 293.28125 334.058594 292.984375 C 333.761719 292.683594 333.433594 292.417969 333.082031 292.179688 C 332.730469 291.945312 332.359375 291.746094 331.964844 291.585938 C 331.574219 291.421875 331.171875 291.300781 330.753906 291.21875 C 330.339844 291.132812 329.921875 291.09375 329.496094 291.09375 Z M 329.496094 291.09375 " fill-opacity="1" fill-rule="evenodd"/><path fill="#555555" d="M 46.148438 304 L 110.046875 304 C 110.472656 304 110.890625 303.960938 111.304688 303.878906 C 111.722656 303.796875 112.125 303.671875 112.515625 303.511719 C 112.910156 303.347656 113.28125 303.148438 113.632812 302.914062 C 113.984375 302.679688 114.3125 302.410156 114.609375 302.109375 C 114.910156 301.8125 115.179688 301.484375 115.414062 301.132812 C 115.648438 300.78125 115.847656 300.410156 116.011719 300.015625 C 116.171875 299.625 116.296875 299.222656 116.378906 298.804688 C 116.460938 298.390625 116.5 297.972656 116.5 297.546875 C 116.5 297.125 116.460938 296.703125 116.378906 296.289062 C 116.296875 295.871094 116.171875 295.46875 116.011719 295.078125 C 115.847656 294.6875 115.648438 294.3125 115.414062 293.960938 C 115.179688 293.609375 114.910156 293.28125 114.609375 292.984375 C 114.3125 292.683594 113.984375 292.417969 113.632812 292.179688 C 113.28125 291.945312 112.910156 291.746094 112.515625 291.585938 C 112.125 291.421875 111.722656 291.300781 111.304688 291.21875 C 110.890625 291.132812 110.472656 291.09375 110.046875 291.09375 L 46.148438 291.09375 C 45.726562 291.09375 45.304688 291.132812 44.890625 291.21875 C 44.472656 291.300781 44.070312 291.421875 43.679688 291.585938 C 43.289062 291.746094 42.914062 291.945312 42.5625 292.179688 C 42.210938 292.417969 41.882812 292.683594 41.585938 292.984375 C 41.285156 293.28125 41.019531 293.609375 40.78125 293.960938 C 40.546875 294.3125 40.347656 294.6875 40.1875 295.078125 C 40.023438 295.46875 39.902344 295.871094 39.820312 296.289062 C 39.734375 296.703125 39.695312 297.125 39.695312 297.546875 C 39.695312 297.972656 39.734375 298.390625 39.820312 298.804688 C 39.902344 299.222656 40.023438 299.625 40.1875 300.015625 C 40.347656 300.410156 40.546875 300.78125 40.78125 301.132812 C 41.019531 301.484375 41.285156 301.8125 41.585938 302.109375 C 41.882812 302.410156 42.210938 302.679688 42.5625 302.914062 C 42.914062 303.148438 43.289062 303.347656 43.679688 303.511719 C 44.070312 303.671875 44.472656 303.796875 44.890625 303.878906 C 45.304688 303.960938 45.726562 304 46.148438 304 Z M 46.148438 304 " fill-opacity="1" fill-rule="evenodd"/><path fill="#555555" d="M 329.496094 316.910156 L 265.597656 316.910156 C 265.175781 316.910156 264.753906 316.953125 264.339844 317.035156 C 263.921875 317.117188 263.519531 317.238281 263.128906 317.402344 C 262.738281 317.5625 262.363281 317.761719 262.011719 318 C 261.660156 318.234375 261.332031 318.5 261.035156 318.800781 C 260.734375 319.101562 260.46875 319.425781 260.230469 319.777344 C 259.996094 320.132812 259.796875 320.503906 259.636719 320.894531 C 259.472656 321.285156 259.351562 321.691406 259.269531 322.105469 C 259.183594 322.519531 259.144531 322.941406 259.144531 323.363281 C 259.144531 323.789062 259.183594 324.207031 259.269531 324.625 C 259.351562 325.039062 259.472656 325.441406 259.636719 325.835938 C 259.796875 326.226562 259.996094 326.597656 260.230469 326.949219 C 260.46875 327.304688 260.734375 327.628906 261.035156 327.929688 C 261.332031 328.226562 261.660156 328.496094 262.011719 328.730469 C 262.363281 328.96875 262.738281 329.164062 263.128906 329.328125 C 263.519531 329.488281 263.921875 329.613281 264.339844 329.695312 C 264.753906 329.777344 265.175781 329.820312 265.597656 329.820312 L 329.496094 329.820312 C 329.921875 329.820312 330.339844 329.777344 330.753906 329.695312 C 331.171875 329.613281 331.574219 329.488281 331.964844 329.328125 C 332.359375 329.164062 332.730469 328.96875 333.082031 328.730469 C 333.433594 328.496094 333.761719 328.226562 334.058594 327.929688 C 334.359375 327.628906 334.628906 327.304688 334.863281 326.949219 C 335.097656 326.597656 335.296875 326.226562 335.460938 325.835938 C 335.621094 325.441406 335.746094 325.039062 335.828125 324.625 C 335.910156 324.207031 335.949219 323.789062 335.949219 323.363281 C 335.949219 322.941406 335.910156 322.519531 335.828125 322.105469 C 335.746094 321.691406 335.621094 321.285156 335.460938 320.894531 C 335.296875 320.503906 335.097656 320.132812 334.863281 319.777344 C 334.628906 319.425781 334.359375 319.101562 334.058594 318.800781 C 333.761719 318.5 333.433594 318.234375 333.082031 318 C 332.730469 317.761719 332.359375 317.5625 331.964844 317.402344 C 331.574219 317.238281 331.171875 317.117188 330.753906 317.035156 C 330.339844 316.953125 329.921875 316.910156 329.496094 316.910156 Z M 329.496094 316.910156 " fill-opacity="1" fill-rule="evenodd"/><path fill="#555555" d="M 46.148438 329.820312 L 110.046875 329.820312 C 110.472656 329.820312 110.890625 329.777344 111.304688 329.695312 C 111.722656 329.613281 112.125 329.488281 112.515625 329.328125 C 112.910156 329.164062 113.28125 328.96875 113.632812 328.730469 C 113.984375 328.496094 114.3125 328.226562 114.609375 327.929688 C 114.910156 327.628906 115.179688 327.304688 115.414062 326.949219 C 115.648438 326.597656 115.847656 326.226562 116.011719 325.835938 C 116.171875 325.441406 116.296875 325.039062 116.378906 324.625 C 116.460938 324.207031 116.5 323.789062 116.5 323.363281 C 116.5 322.941406 116.460938 322.519531 116.378906 322.105469 C 116.296875 321.691406 116.171875 321.285156 116.011719 320.894531 C 115.847656 320.503906 115.648438 320.132812 115.414062 319.777344 C 115.179688 319.425781 114.910156 319.101562 114.609375 318.800781 C 114.3125 318.5 113.984375 318.234375 113.632812 318 C 113.28125 317.761719 112.910156 317.5625 112.515625 317.402344 C 112.125 317.238281 111.722656 317.117188 111.304688 317.035156 C 110.890625 316.953125 110.472656 316.910156 110.046875 316.910156 L 46.148438 316.910156 C 45.726562 316.910156 45.304688 316.953125 44.890625 317.035156 C 44.472656 317.117188 44.070312 317.238281 43.679688 317.402344 C 43.289062 317.5625 42.914062 317.761719 42.5625 318 C 42.210938 318.234375 41.882812 318.5 41.585938 318.800781 C 41.285156 319.101562 41.019531 319.425781 40.78125 319.777344 C 40.546875 320.132812 40.347656 320.503906 40.1875 320.894531 C 40.023438 321.285156 39.902344 321.691406 39.820312 322.105469 C 39.734375 322.519531 39.695312 322.941406 39.695312 323.363281 C 39.695312 323.789062 39.734375 324.207031 39.820312 324.625 C 39.902344 325.039062 40.023438 325.441406 40.1875 325.835938 C 40.347656 326.226562 40.546875 326.597656 40.78125 326.949219 C 41.019531 327.304688 41.285156 327.628906 41.585938 327.929688 C 41.882812 328.226562 42.210938 328.496094 42.5625 328.730469 C 42.914062 328.96875 43.289062 329.164062 43.679688 329.328125 C 44.070312 329.488281 44.472656 329.613281 44.890625 329.695312 C 45.304688 329.777344 45.726562 329.820312 46.148438 329.820312 Z M 46.148438 329.820312 " fill-opacity="1" fill-rule="evenodd"/><path fill="#555555" d="M 368.222656 340.792969 L 360.476562 340.792969 L 360.476562 269.148438 C 360.476562 268.722656 360.4375 268.304688 360.355469 267.890625 C 360.269531 267.472656 360.148438 267.070312 359.984375 266.679688 C 359.824219 266.285156 359.625 265.914062 359.390625 265.5625 C 359.15625 265.210938 358.886719 264.882812 358.585938 264.585938 C 358.289062 264.285156 357.960938 264.015625 357.609375 263.78125 C 357.257812 263.546875 356.882812 263.347656 356.492188 263.183594 C 356.101562 263.023438 355.699219 262.898438 355.28125 262.816406 C 354.867188 262.734375 354.445312 262.695312 354.023438 262.695312 L 303.679688 262.695312 L 303.679688 213.640625 C 303.679688 213.214844 303.636719 212.796875 303.554688 212.382812 C 303.472656 211.964844 303.351562 211.5625 303.1875 211.171875 C 303.027344 210.777344 302.828125 210.40625 302.589844 210.054688 C 302.355469 209.703125 302.089844 209.375 301.789062 209.078125 C 301.488281 208.777344 301.164062 208.507812 300.808594 208.273438 C 300.457031 208.039062 300.085938 207.839844 299.695312 207.675781 C 299.304688 207.515625 298.898438 207.390625 298.484375 207.308594 C 298.066406 207.226562 297.648438 207.1875 297.222656 207.1875 L 193.953125 207.1875 L 193.953125 168.460938 L 283.542969 168.460938 C 285.394531 168.460938 287.234375 168.308594 289.0625 168.011719 C 290.890625 167.714844 292.683594 167.269531 294.441406 166.683594 C 296.199219 166.09375 297.894531 165.367188 299.535156 164.503906 C 301.175781 163.640625 302.734375 162.652344 304.210938 161.535156 C 305.691406 160.421875 307.070312 159.195312 308.351562 157.855469 C 309.632812 156.515625 310.796875 155.082031 311.84375 153.554688 C 312.894531 152.027344 313.8125 150.425781 314.601562 148.75 C 315.390625 147.074219 316.039062 145.347656 316.550781 143.566406 C 317.058594 141.785156 317.421875 139.972656 317.640625 138.132812 C 317.855469 136.292969 317.921875 134.449219 317.839844 132.597656 C 317.757812 130.746094 317.527344 128.914062 317.148438 127.101562 C 316.769531 125.285156 316.246094 123.515625 315.582031 121.785156 C 314.917969 120.058594 314.117188 118.394531 313.179688 116.792969 C 312.246094 115.195312 311.1875 113.679688 310.007812 112.253906 C 308.828125 110.824219 307.542969 109.5 306.148438 108.28125 C 304.753906 107.058594 303.269531 105.960938 301.699219 104.980469 C 301.925781 103.664062 302.097656 102.34375 302.210938 101.011719 C 302.328125 99.683594 302.386719 98.351562 302.386719 97.015625 C 302.386719 95.679688 302.332031 94.347656 302.21875 93.019531 C 302.105469 91.6875 301.9375 90.367188 301.710938 89.050781 C 301.484375 87.734375 301.203125 86.433594 300.867188 85.140625 C 300.527344 83.847656 300.136719 82.574219 299.6875 81.316406 C 299.242188 80.058594 298.742188 78.824219 298.1875 77.609375 C 297.636719 76.394531 297.03125 75.203125 296.378906 74.039062 C 295.722656 72.878906 295.019531 71.742188 294.269531 70.640625 C 293.519531 69.539062 292.722656 68.46875 291.878906 67.433594 C 291.035156 66.398438 290.148438 65.402344 289.222656 64.441406 C 288.292969 63.484375 287.324219 62.566406 286.320312 61.6875 C 285.3125 60.8125 284.269531 59.980469 283.191406 59.195312 C 282.113281 58.40625 281.003906 57.667969 279.863281 56.976562 C 278.722656 56.28125 277.550781 55.640625 276.355469 55.050781 C 275.160156 54.457031 273.941406 53.917969 272.699219 53.429688 C 272.265625 51.578125 271.757812 49.75 271.171875 47.941406 C 270.585938 46.132812 269.925781 44.351562 269.195312 42.601562 C 268.460938 40.847656 267.65625 39.128906 266.777344 37.441406 C 265.902344 35.753906 264.957031 34.109375 263.941406 32.5 C 262.929688 30.894531 261.847656 29.332031 260.707031 27.816406 C 259.5625 26.296875 258.355469 24.832031 257.089844 23.414062 C 255.824219 21.996094 254.5 20.636719 253.121094 19.328125 C 251.742188 18.023438 250.308594 16.773438 248.824219 15.585938 C 247.339844 14.398438 245.808594 13.277344 244.234375 12.214844 C 242.65625 11.15625 241.035156 10.164062 239.378906 9.238281 C 237.71875 8.316406 236.019531 7.460938 234.289062 6.675781 C 232.558594 5.894531 230.796875 5.183594 229.007812 4.546875 C 227.21875 3.910156 225.402344 3.347656 223.566406 2.863281 C 221.730469 2.375 219.875 1.96875 218.003906 1.636719 C 216.132812 1.304688 214.25 1.050781 212.359375 0.878906 C 210.464844 0.703125 208.570312 0.609375 206.667969 0.59375 C 204.769531 0.574219 202.871094 0.636719 200.976562 0.78125 C 199.082031 0.921875 197.195312 1.140625 195.320312 1.441406 C 193.441406 1.738281 191.582031 2.117188 189.734375 2.570312 C 187.890625 3.023438 186.066406 3.554688 184.265625 4.160156 C 182.464844 4.765625 180.691406 5.445312 178.949219 6.199219 C 177.203125 6.953125 175.492188 7.777344 173.816406 8.671875 C 172.140625 9.570312 170.503906 10.535156 168.910156 11.566406 C 167.316406 12.597656 165.765625 13.695312 164.261719 14.855469 C 162.757812 16.019531 161.304688 17.238281 159.902344 18.523438 C 158.5 19.804688 157.152344 21.144531 155.863281 22.539062 C 154.570312 23.933594 153.339844 25.378906 152.171875 26.878906 C 151 28.375 149.894531 29.917969 148.851562 31.507812 C 147.8125 33.097656 146.839844 34.726562 145.933594 36.398438 C 145.027344 38.066406 144.191406 39.773438 143.429688 41.511719 C 142.664062 43.253906 141.976562 45.023438 141.359375 46.820312 C 140.742188 48.617188 140.203125 50.4375 139.738281 52.28125 C 138.8125 52.003906 137.878906 51.757812 136.9375 51.539062 C 136 51.316406 135.054688 51.125 134.101562 50.957031 C 133.152344 50.792969 132.195312 50.65625 131.238281 50.542969 C 130.277344 50.433594 129.316406 50.351562 128.351562 50.296875 C 127.386719 50.242188 126.421875 50.21875 125.457031 50.21875 C 124.492188 50.222656 123.527344 50.25 122.5625 50.308594 C 121.597656 50.367188 120.636719 50.453125 119.679688 50.566406 C 118.71875 50.679688 117.765625 50.820312 116.816406 50.992188 C 115.863281 51.160156 114.917969 51.355469 113.980469 51.582031 C 113.042969 51.804688 112.109375 52.054688 111.183594 52.335938 C 110.261719 52.613281 109.34375 52.917969 108.4375 53.25 C 107.53125 53.578125 106.632812 53.9375 105.75 54.320312 C 104.863281 54.703125 103.988281 55.113281 103.125 55.546875 C 102.261719 55.980469 101.414062 56.441406 100.578125 56.925781 C 99.742188 57.410156 98.921875 57.914062 98.117188 58.445312 C 97.308594 58.976562 96.519531 59.53125 95.746094 60.109375 C 94.972656 60.6875 94.214844 61.285156 93.476562 61.90625 C 92.738281 62.527344 92.015625 63.171875 91.3125 63.835938 C 90.613281 64.496094 89.929688 65.179688 89.269531 65.882812 C 88.605469 66.585938 87.964844 67.308594 87.34375 68.046875 C 86.722656 68.785156 86.125 69.542969 85.550781 70.320312 C 84.972656 71.09375 84.421875 71.882812 83.890625 72.691406 C 83.359375 73.496094 82.851562 74.320312 82.371094 75.15625 C 81.886719 75.992188 81.429688 76.839844 80.996094 77.703125 C 80.5625 78.566406 80.15625 79.441406 79.773438 80.328125 C 79.390625 81.214844 79.035156 82.113281 78.703125 83.019531 C 78.375 83.925781 78.070312 84.84375 77.792969 85.769531 C 77.515625 86.691406 77.265625 87.625 77.042969 88.566406 C 76.820312 89.503906 76.625 90.449219 76.457031 91.398438 C 76.289062 92.351562 76.148438 93.304688 76.035156 94.265625 C 75.925781 95.222656 75.839844 96.183594 75.78125 97.148438 C 75.726562 98.113281 75.699219 99.078125 75.695312 100.042969 C 75.695312 101.222656 75.738281 102.390625 75.820312 103.546875 C 74.96875 103.984375 74.136719 104.453125 73.328125 104.957031 C 72.515625 105.460938 71.726562 105.996094 70.960938 106.566406 C 70.191406 107.136719 69.453125 107.738281 68.734375 108.371094 C 68.019531 109.003906 67.328125 109.664062 66.667969 110.351562 C 66.007812 111.042969 65.375 111.757812 64.773438 112.5 C 64.171875 113.242188 63.601562 114.007812 63.066406 114.796875 C 62.527344 115.585938 62.023438 116.398438 61.554688 117.230469 C 61.082031 118.0625 60.648438 118.910156 60.25 119.78125 C 59.851562 120.648438 59.488281 121.53125 59.164062 122.429688 C 58.839844 123.328125 58.550781 124.238281 58.300781 125.160156 C 58.050781 126.082031 57.839844 127.011719 57.667969 127.953125 C 57.5 128.890625 57.367188 129.835938 57.273438 130.789062 C 57.179688 131.738281 57.128906 132.691406 57.113281 133.648438 C 57.101562 134.601562 57.128906 135.558594 57.195312 136.507812 C 57.261719 137.460938 57.367188 138.410156 57.511719 139.355469 C 57.65625 140.300781 57.84375 141.234375 58.066406 142.164062 C 58.289062 143.09375 58.550781 144.011719 58.851562 144.917969 C 59.152344 145.824219 59.492188 146.71875 59.867188 147.597656 C 60.238281 148.476562 60.652344 149.335938 61.097656 150.179688 C 61.542969 151.027344 62.027344 151.851562 62.542969 152.65625 C 63.058594 153.457031 63.605469 154.238281 64.1875 155 C 64.765625 155.757812 65.378906 156.488281 66.019531 157.199219 C 66.664062 157.90625 67.332031 158.585938 68.03125 159.234375 C 68.730469 159.886719 69.453125 160.507812 70.207031 161.101562 C 70.957031 161.691406 71.730469 162.25 72.527344 162.777344 C 73.324219 163.300781 74.140625 163.792969 74.980469 164.253906 C 75.816406 164.710938 76.675781 165.132812 77.546875 165.519531 C 78.421875 165.90625 79.308594 166.257812 80.210938 166.570312 C 81.113281 166.882812 82.027344 167.15625 82.953125 167.390625 C 83.878906 167.628906 84.8125 167.824219 85.757812 167.984375 C 86.699219 168.144531 87.644531 168.261719 88.597656 168.339844 C 89.550781 168.421875 90.503906 168.460938 91.457031 168.460938 L 181.046875 168.460938 L 181.046875 207.1875 L 77.773438 207.1875 C 77.351562 207.1875 76.933594 207.226562 76.515625 207.308594 C 76.101562 207.390625 75.695312 207.515625 75.304688 207.675781 C 74.914062 207.839844 74.542969 208.039062 74.191406 208.273438 C 73.835938 208.507812 73.511719 208.777344 73.210938 209.078125 C 72.910156 209.375 72.644531 209.703125 72.410156 210.054688 C 72.171875 210.40625 71.972656 210.777344 71.8125 211.171875 C 71.648438 211.5625 71.527344 211.964844 71.445312 212.382812 C 71.363281 212.796875 71.320312 213.214844 71.320312 213.640625 L 71.320312 262.695312 L 20.976562 262.695312 C 20.554688 262.695312 20.132812 262.734375 19.71875 262.816406 C 19.300781 262.898438 18.898438 263.023438 18.507812 263.183594 C 18.113281 263.347656 17.742188 263.546875 17.390625 263.78125 C 17.039062 264.015625 16.710938 264.285156 16.414062 264.585938 C 16.113281 264.882812 15.84375 265.210938 15.609375 265.5625 C 15.375 265.914062 15.175781 266.285156 15.015625 266.679688 C 14.851562 267.070312 14.730469 267.472656 14.644531 267.890625 C 14.5625 268.304688 14.523438 268.722656 14.523438 269.148438 L 14.523438 340.792969 L 6.777344 340.792969 C 6.351562 340.792969 5.933594 340.832031 5.519531 340.914062 C 5.101562 341 4.699219 341.121094 4.308594 341.28125 C 3.914062 341.445312 3.542969 341.644531 3.191406 341.878906 C 2.839844 342.113281 2.511719 342.382812 2.214844 342.683594 C 1.914062 342.980469 1.644531 343.308594 1.410156 343.660156 C 1.175781 344.011719 0.976562 344.382812 0.8125 344.777344 C 0.652344 345.167969 0.53125 345.570312 0.445312 345.988281 C 0.363281 346.402344 0.324219 346.824219 0.324219 347.246094 L 0.324219 351.085938 C 0.324219 351.871094 0.363281 352.652344 0.4375 353.429688 C 0.515625 354.210938 0.632812 354.984375 0.785156 355.75 C 0.9375 356.519531 1.128906 357.277344 1.355469 358.027344 C 1.582031 358.777344 1.847656 359.511719 2.144531 360.234375 C 2.445312 360.960938 2.78125 361.667969 3.148438 362.355469 C 3.519531 363.046875 3.921875 363.71875 4.355469 364.367188 C 4.792969 365.019531 5.257812 365.648438 5.753906 366.253906 C 6.25 366.859375 6.777344 367.4375 7.332031 367.992188 C 7.882812 368.546875 8.464844 369.070312 9.070312 369.566406 C 9.675781 370.066406 10.300781 370.53125 10.953125 370.964844 C 11.605469 371.402344 12.277344 371.804688 12.964844 372.171875 C 13.65625 372.542969 14.363281 372.875 15.085938 373.175781 C 15.808594 373.476562 16.546875 373.738281 17.296875 373.96875 C 18.046875 374.195312 18.804688 374.386719 19.570312 374.539062 C 20.339844 374.691406 21.113281 374.804688 21.894531 374.882812 C 22.671875 374.960938 23.453125 375 24.234375 375 L 131.316406 375 C 132.097656 375 132.878906 374.960938 133.65625 374.882812 C 134.4375 374.804688 135.210938 374.691406 135.980469 374.539062 C 136.746094 374.386719 137.503906 374.195312 138.253906 373.96875 C 139.003906 373.738281 139.742188 373.476562 140.464844 373.175781 C 141.1875 372.875 141.894531 372.542969 142.585938 372.171875 C 143.273438 371.804688 143.945312 371.402344 144.597656 370.964844 C 145.25 370.53125 145.875 370.066406 146.480469 369.566406 C 147.085938 369.070312 147.667969 368.546875 148.21875 367.992188 C 148.773438 367.4375 149.300781 366.859375 149.796875 366.253906 C 150.292969 365.648438 150.757812 365.019531 151.195312 364.367188 C 151.628906 363.71875 152.03125 363.046875 152.402344 362.355469 C 152.769531 361.667969 153.105469 360.960938 153.402344 360.234375 C 153.703125 359.511719 153.96875 358.777344 154.195312 358.027344 C 154.421875 357.277344 154.613281 356.519531 154.765625 355.75 C 154.917969 354.984375 155.035156 354.210938 155.113281 353.429688 C 155.1875 352.652344 155.226562 351.871094 155.226562 351.085938 L 155.226562 347.246094 C 155.226562 346.824219 155.1875 346.402344 155.105469 345.988281 C 155.019531 345.570312 154.898438 345.167969 154.738281 344.777344 C 154.574219 344.382812 154.375 344.011719 154.140625 343.660156 C 153.90625 343.308594 153.636719 342.980469 153.335938 342.683594 C 153.039062 342.382812 152.710938 342.113281 152.359375 341.878906 C 152.007812 341.644531 151.636719 341.445312 151.242188 341.28125 C 150.851562 341.121094 150.449219 341 150.03125 340.914062 C 149.617188 340.832031 149.199219 340.792969 148.773438 340.792969 L 141.027344 340.792969 L 141.027344 269.148438 C 141.027344 268.722656 140.988281 268.304688 140.90625 267.890625 C 140.820312 267.472656 140.699219 267.070312 140.535156 266.679688 C 140.375 266.285156 140.175781 265.914062 139.941406 265.5625 C 139.707031 265.210938 139.4375 264.882812 139.136719 264.585938 C 138.839844 264.285156 138.511719 264.015625 138.160156 263.78125 C 137.808594 263.546875 137.433594 263.347656 137.042969 263.183594 C 136.652344 263.023438 136.25 262.898438 135.832031 262.816406 C 135.417969 262.734375 134.996094 262.695312 134.574219 262.695312 L 84.230469 262.695312 L 84.230469 220.09375 L 290.769531 220.09375 L 290.769531 262.695312 L 240.425781 262.695312 C 240.003906 262.695312 239.582031 262.734375 239.167969 262.816406 C 238.75 262.898438 238.347656 263.023438 237.957031 263.183594 C 237.566406 263.347656 237.191406 263.546875 236.839844 263.78125 C 236.488281 264.015625 236.160156 264.285156 235.863281 264.585938 C 235.5625 264.882812 235.292969 265.210938 235.058594 265.5625 C 234.824219 265.914062 234.625 266.285156 234.464844 266.679688 C 234.300781 267.070312 234.179688 267.472656 234.09375 267.890625 C 234.011719 268.304688 233.972656 268.722656 233.972656 269.148438 L 233.972656 340.792969 L 226.226562 340.792969 C 225.800781 340.792969 225.382812 340.832031 224.96875 340.914062 C 224.550781 341 224.148438 341.121094 223.757812 341.28125 C 223.363281 341.445312 222.992188 341.644531 222.640625 341.878906 C 222.289062 342.113281 221.960938 342.382812 221.664062 342.683594 C 221.363281 342.980469 221.09375 343.308594 220.859375 343.660156 C 220.625 344.011719 220.425781 344.382812 220.261719 344.777344 C 220.101562 345.167969 219.980469 345.570312 219.894531 345.988281 C 219.8125 346.402344 219.773438 346.824219 219.773438 347.246094 L 219.773438 351.085938 C 219.773438 351.871094 219.8125 352.652344 219.886719 353.429688 C 219.964844 354.210938 220.082031 354.984375 220.234375 355.75 C 220.386719 356.519531 220.578125 357.277344 220.804688 358.027344 C 221.03125 358.777344 221.296875 359.511719 221.597656 360.234375 C 221.894531 360.960938 222.230469 361.667969 222.597656 362.355469 C 222.96875 363.046875 223.371094 363.71875 223.804688 364.367188 C 224.242188 365.019531 224.707031 365.648438 225.203125 366.253906 C 225.699219 366.859375 226.226562 367.4375 226.78125 367.992188 C 227.332031 368.546875 227.914062 369.070312 228.519531 369.566406 C 229.125 370.066406 229.75 370.53125 230.402344 370.964844 C 231.054688 371.402344 231.726562 371.804688 232.414062 372.171875 C 233.105469 372.542969 233.8125 372.875 234.535156 373.175781 C 235.257812 373.476562 235.996094 373.738281 236.746094 373.96875 C 237.496094 374.195312 238.253906 374.386719 239.019531 374.539062 C 239.789062 374.691406 240.5625 374.804688 241.34375 374.882812 C 242.121094 374.960938 242.902344 375 243.683594 375 L 350.796875 375 C 351.578125 375 352.359375 374.957031 353.136719 374.878906 C 353.914062 374.800781 354.6875 374.6875 355.457031 374.53125 C 356.222656 374.378906 356.980469 374.1875 357.730469 373.960938 C 358.476562 373.730469 359.214844 373.46875 359.933594 373.167969 C 360.65625 372.867188 361.363281 372.53125 362.054688 372.160156 C 362.742188 371.792969 363.414062 371.390625 364.0625 370.953125 C 364.714844 370.519531 365.339844 370.054688 365.945312 369.554688 C 366.550781 369.058594 367.128906 368.535156 367.679688 367.980469 C 368.234375 367.425781 368.757812 366.847656 369.253906 366.242188 C 369.75 365.636719 370.214844 365.007812 370.648438 364.359375 C 371.085938 363.707031 371.484375 363.039062 371.855469 362.347656 C 372.222656 361.65625 372.558594 360.953125 372.855469 360.226562 C 373.15625 359.503906 373.417969 358.769531 373.644531 358.019531 C 373.875 357.273438 374.0625 356.515625 374.214844 355.746094 C 374.371094 354.980469 374.484375 354.207031 374.5625 353.429688 C 374.636719 352.648438 374.675781 351.867188 374.675781 351.085938 L 374.675781 347.246094 C 374.675781 346.824219 374.636719 346.402344 374.554688 345.988281 C 374.46875 345.570312 374.347656 345.167969 374.1875 344.777344 C 374.023438 344.382812 373.824219 344.011719 373.589844 343.660156 C 373.355469 343.308594 373.085938 342.980469 372.785156 342.683594 C 372.488281 342.382812 372.160156 342.113281 371.808594 341.878906 C 371.457031 341.644531 371.085938 341.445312 370.691406 341.28125 C 370.300781 341.121094 369.898438 341 369.480469 340.914062 C 369.066406 340.832031 368.648438 340.792969 368.222656 340.792969 Z M 142.003906 353.699219 C 141.859375 354.292969 141.664062 354.871094 141.421875 355.433594 C 141.179688 355.996094 140.894531 356.535156 140.5625 357.046875 C 140.230469 357.5625 139.859375 358.042969 139.445312 358.496094 C 139.035156 358.949219 138.589844 359.363281 138.109375 359.742188 C 137.625 360.117188 137.117188 360.453125 136.582031 360.746094 C 136.042969 361.039062 135.484375 361.285156 134.90625 361.484375 C 134.332031 361.6875 133.738281 361.835938 133.136719 361.9375 C 132.535156 362.039062 131.925781 362.089844 131.316406 362.089844 L 24.234375 362.089844 C 23.625 362.089844 23.015625 362.039062 22.414062 361.9375 C 21.8125 361.835938 21.21875 361.6875 20.644531 361.484375 C 20.066406 361.285156 19.507812 361.039062 18.96875 360.746094 C 18.433594 360.453125 17.925781 360.117188 17.441406 359.742188 C 16.960938 359.363281 16.515625 358.949219 16.105469 358.496094 C 15.691406 358.042969 15.320312 357.5625 14.988281 357.046875 C 14.65625 356.535156 14.371094 355.996094 14.128906 355.433594 C 13.886719 354.871094 13.691406 354.292969 13.546875 353.699219 Z M 128.121094 275.601562 L 128.121094 340.792969 L 27.429688 340.792969 L 27.429688 275.601562 Z M 91.457031 155.550781 C 90.191406 155.550781 88.9375 155.441406 87.6875 155.222656 C 86.441406 155 85.226562 154.671875 84.035156 154.234375 C 82.847656 153.796875 81.707031 153.257812 80.613281 152.617188 C 79.523438 151.976562 78.492188 151.246094 77.53125 150.425781 C 76.566406 149.605469 75.683594 148.703125 74.878906 147.726562 C 74.074219 146.746094 73.363281 145.707031 72.746094 144.601562 C 72.125 143.496094 71.609375 142.347656 71.191406 141.152344 C 70.777344 139.953125 70.46875 138.730469 70.273438 137.480469 C 70.074219 136.230469 69.988281 134.972656 70.011719 133.707031 C 70.035156 132.441406 70.171875 131.1875 70.417969 129.945312 C 70.664062 128.703125 71.019531 127.492188 71.480469 126.3125 C 71.941406 125.132812 72.503906 124.003906 73.164062 122.925781 C 73.828125 121.84375 74.578125 120.832031 75.421875 119.886719 C 76.261719 118.9375 77.179688 118.074219 78.175781 117.289062 C 79.167969 116.507812 80.222656 115.816406 81.339844 115.21875 C 82.457031 114.625 83.617188 114.128906 84.824219 113.738281 C 85.191406 113.621094 85.542969 113.46875 85.882812 113.285156 C 86.222656 113.101562 86.542969 112.890625 86.84375 112.652344 C 87.144531 112.410156 87.421875 112.144531 87.679688 111.855469 C 87.933594 111.566406 88.160156 111.257812 88.355469 110.925781 C 88.554688 110.59375 88.722656 110.25 88.859375 109.890625 C 88.996094 109.527344 89.097656 109.160156 89.167969 108.78125 C 89.238281 108.398438 89.277344 108.019531 89.277344 107.632812 C 89.28125 107.246094 89.246094 106.863281 89.179688 106.484375 C 88.945312 105.160156 88.785156 103.828125 88.699219 102.488281 C 88.609375 101.144531 88.59375 99.804688 88.652344 98.460938 C 88.710938 97.117188 88.84375 95.78125 89.046875 94.453125 C 89.253906 93.125 89.527344 91.8125 89.875 90.511719 C 90.222656 89.214844 90.640625 87.9375 91.128906 86.6875 C 91.613281 85.433594 92.167969 84.210938 92.789062 83.019531 C 93.410156 81.824219 94.09375 80.671875 94.839844 79.554688 C 95.585938 78.433594 96.390625 77.359375 97.253906 76.332031 C 98.117188 75.300781 99.035156 74.320312 100.003906 73.390625 C 100.976562 72.460938 101.996094 71.585938 103.058594 70.769531 C 104.125 69.949219 105.234375 69.191406 106.382812 68.492188 C 107.53125 67.796875 108.714844 67.164062 109.933594 66.59375 C 111.152344 66.023438 112.394531 65.523438 113.667969 65.089844 C 114.941406 64.660156 116.234375 64.296875 117.546875 64.003906 C 118.855469 63.710938 120.179688 63.492188 121.515625 63.347656 C 122.855469 63.199219 124.195312 63.125 125.539062 63.125 C 131.246094 63.117188 136.664062 64.371094 141.789062 66.886719 C 142.019531 67 142.253906 67.097656 142.496094 67.183594 C 142.738281 67.269531 142.984375 67.339844 143.234375 67.394531 C 143.480469 67.449219 143.734375 67.492188 143.988281 67.515625 C 144.242188 67.542969 144.5 67.550781 144.753906 67.546875 C 145.011719 67.542969 145.265625 67.523438 145.519531 67.488281 C 145.769531 67.453125 146.023438 67.402344 146.269531 67.339844 C 146.515625 67.273438 146.757812 67.195312 146.996094 67.101562 C 147.234375 67.007812 147.46875 66.902344 147.691406 66.78125 C 147.917969 66.660156 148.136719 66.523438 148.34375 66.378906 C 148.554688 66.230469 148.753906 66.074219 148.945312 65.902344 C 149.136719 65.730469 149.316406 65.550781 149.484375 65.359375 C 149.652344 65.164062 149.808594 64.964844 149.953125 64.753906 C 150.097656 64.542969 150.230469 64.324219 150.351562 64.097656 C 150.46875 63.871094 150.574219 63.640625 150.664062 63.398438 C 150.757812 63.160156 150.835938 62.917969 150.898438 62.667969 C 150.960938 62.421875 151.007812 62.171875 151.039062 61.917969 C 151.25 60.289062 151.53125 58.671875 151.886719 57.066406 C 152.238281 55.460938 152.664062 53.875 153.160156 52.308594 C 153.652344 50.742188 154.214844 49.199219 154.847656 47.683594 C 155.480469 46.167969 156.175781 44.683594 156.941406 43.226562 C 157.703125 41.773438 158.53125 40.355469 159.421875 38.972656 C 160.308594 37.589844 161.257812 36.253906 162.265625 34.957031 C 163.277344 33.660156 164.339844 32.410156 165.460938 31.207031 C 166.578125 30.003906 167.75 28.851562 168.96875 27.753906 C 170.191406 26.65625 171.460938 25.613281 172.773438 24.625 C 174.089844 23.640625 175.445312 22.714844 176.839844 21.847656 C 178.234375 20.984375 179.667969 20.179688 181.136719 19.441406 C 182.601562 18.703125 184.101562 18.03125 185.628906 17.425781 C 187.15625 16.820312 188.707031 16.285156 190.28125 15.816406 C 191.855469 15.347656 193.449219 14.949219 195.058594 14.625 C 196.667969 14.296875 198.289062 14.042969 199.921875 13.859375 C 201.554688 13.675781 203.195312 13.566406 204.835938 13.53125 C 206.480469 13.492188 208.121094 13.53125 209.757812 13.636719 C 211.398438 13.746094 213.03125 13.925781 214.652344 14.179688 C 216.277344 14.433594 217.886719 14.757812 219.480469 15.15625 C 221.074219 15.550781 222.648438 16.019531 224.203125 16.554688 C 225.753906 17.089844 227.28125 17.695312 228.78125 18.367188 C 230.28125 19.039062 231.746094 19.773438 233.179688 20.574219 C 234.613281 21.378906 236.011719 22.242188 237.367188 23.167969 C 238.722656 24.09375 240.039062 25.078125 241.308594 26.121094 C 242.578125 27.164062 243.800781 28.257812 244.972656 29.410156 C 246.144531 30.5625 247.261719 31.761719 248.328125 33.011719 C 249.394531 34.261719 250.402344 35.558594 251.355469 36.894531 C 252.304688 38.234375 253.195312 39.617188 254.023438 41.035156 C 254.851562 42.453125 255.617188 43.90625 256.316406 45.390625 C 257.015625 46.878906 257.648438 48.394531 258.210938 49.9375 C 258.777344 51.480469 259.273438 53.042969 259.699219 54.632812 C 260.125 56.21875 260.480469 57.820312 260.765625 59.4375 C 260.867188 60.03125 261.050781 60.59375 261.3125 61.136719 C 261.570312 61.675781 261.902344 62.167969 262.300781 62.617188 C 262.699219 63.066406 263.152344 63.449219 263.660156 63.773438 C 264.164062 64.09375 264.707031 64.339844 265.28125 64.511719 C 266.34375 64.828125 267.386719 65.195312 268.410156 65.613281 C 269.4375 66.03125 270.4375 66.5 271.417969 67.015625 C 272.398438 67.53125 273.347656 68.097656 274.273438 68.707031 C 275.195312 69.316406 276.089844 69.96875 276.949219 70.667969 C 277.808594 71.363281 278.632812 72.101562 279.417969 72.882812 C 280.207031 73.660156 280.953125 74.476562 281.660156 75.328125 C 282.367188 76.179688 283.03125 77.0625 283.652344 77.980469 C 284.273438 78.898438 284.847656 79.839844 285.375 80.816406 C 285.90625 81.789062 286.382812 82.785156 286.8125 83.804688 C 287.242188 84.824219 287.621094 85.863281 287.949219 86.921875 C 288.28125 87.980469 288.554688 89.050781 288.777344 90.132812 C 289 91.21875 289.171875 92.3125 289.285156 93.414062 C 289.402344 94.515625 289.464844 95.617188 289.472656 96.726562 C 289.480469 97.832031 289.433594 98.9375 289.332031 100.039062 C 289.230469 101.144531 289.078125 102.238281 288.867188 103.324219 C 288.660156 104.414062 288.398438 105.488281 288.085938 106.550781 C 287.972656 106.925781 287.894531 107.3125 287.855469 107.707031 C 287.8125 108.097656 287.808594 108.492188 287.839844 108.882812 C 287.867188 109.277344 287.933594 109.664062 288.035156 110.046875 C 288.136719 110.425781 288.273438 110.796875 288.441406 111.152344 C 288.613281 111.507812 288.8125 111.847656 289.042969 112.167969 C 289.273438 112.488281 289.53125 112.78125 289.816406 113.054688 C 290.105469 113.328125 290.410156 113.570312 290.742188 113.789062 C 291.074219 114.003906 291.417969 114.1875 291.785156 114.339844 C 292.917969 114.8125 294.003906 115.378906 295.042969 116.039062 C 296.082031 116.695312 297.054688 117.441406 297.964844 118.269531 C 298.875 119.09375 299.707031 119.992188 300.460938 120.964844 C 301.214844 121.933594 301.882812 122.960938 302.460938 124.046875 C 303.039062 125.132812 303.519531 126.257812 303.902344 127.425781 C 304.289062 128.59375 304.570312 129.789062 304.75 131.003906 C 304.925781 132.21875 305 133.441406 304.96875 134.671875 C 304.9375 135.902344 304.800781 137.117188 304.558594 138.324219 C 304.320312 139.53125 303.976562 140.707031 303.53125 141.851562 C 303.089844 143 302.550781 144.101562 301.917969 145.15625 C 301.285156 146.207031 300.566406 147.199219 299.761719 148.132812 C 298.960938 149.0625 298.082031 149.917969 297.128906 150.695312 C 296.179688 151.476562 295.167969 152.167969 294.097656 152.773438 C 293.027344 153.378906 291.914062 153.886719 290.757812 154.300781 C 289.597656 154.714844 288.414062 155.027344 287.203125 155.238281 C 285.992188 155.445312 284.769531 155.550781 283.542969 155.550781 Z M 246.878906 275.601562 L 347.570312 275.601562 L 347.570312 340.792969 L 246.878906 340.792969 Z M 350.796875 362.089844 L 243.683594 362.089844 C 243.074219 362.089844 242.464844 362.039062 241.863281 361.9375 C 241.261719 361.835938 240.667969 361.6875 240.09375 361.484375 C 239.515625 361.285156 238.957031 361.039062 238.417969 360.746094 C 237.882812 360.453125 237.375 360.117188 236.890625 359.742188 C 236.410156 359.363281 235.964844 358.949219 235.554688 358.496094 C 235.140625 358.042969 234.769531 357.5625 234.4375 357.046875 C 234.105469 356.535156 233.820312 355.996094 233.578125 355.433594 C 233.335938 354.871094 233.140625 354.292969 232.996094 353.699219 L 361.4375 353.699219 C 361.292969 354.292969 361.101562 354.867188 360.859375 355.429688 C 360.621094 355.988281 360.335938 356.527344 360.003906 357.039062 C 359.675781 357.550781 359.304688 358.03125 358.894531 358.484375 C 358.484375 358.933594 358.039062 359.351562 357.5625 359.726562 C 357.082031 360.105469 356.574219 360.441406 356.042969 360.734375 C 355.507812 361.027344 354.953125 361.273438 354.375 361.476562 C 353.800781 361.675781 353.210938 361.828125 352.613281 361.933594 C 352.011719 362.035156 351.40625 362.089844 350.796875 362.089844 Z M 350.796875 362.089844 " fill-opacity="1" fill-rule="evenodd"/></svg>