<svg xmlns="http://www.w3.org/2000/svg" xmlns:xlink="http://www.w3.org/1999/xlink" width="500" zoomAndPan="magnify" viewBox="0 0 375 374.999991" height="500" preserveAspectRatio="xMidYMid meet" version="1.0"><defs><filter x="0%" y="0%" width="100%" height="100%" id="de567ae8cb"><feColorMatrix values="0 0 0 0 1 0 0 0 0 1 0 0 0 0 1 0 0 0 1 0" color-interpolation-filters="sRGB"/></filter><g/><mask id="f8466dc4dc"><g filter="url(#de567ae8cb)"><rect x="-37.5" width="450" fill="#000000" y="-37.499999" height="449.999989" fill-opacity="0.3294"/></g></mask><clipPath id="ca1155dcb4"><path d="M 2 0.878906 L 316 0.878906 L 316 269.265625 L 2 269.265625 Z M 2 0.878906 " clip-rule="nonzero"/></clipPath><clipPath id="2b6a65431b"><path d="M 299.523438 135 L 306.546875 127.570312 C 319.125 114.261719 319.125 92.613281 306.546875 79.3125 L 242.160156 11.203125 C 235.917969 4.601562 227.585938 0.96875 218.695312 0.96875 C 209.804688 0.972656 201.472656 4.605469 195.234375 11.207031 L 188.867188 17.945312 L 182.496094 11.207031 C 176.257812 4.605469 167.925781 0.96875 159.035156 0.96875 C 150.144531 0.96875 141.8125 4.601562 135.570312 11.203125 L 129.195312 17.949219 L 122.808594 11.199219 C 116.570312 4.601562 108.238281 0.96875 99.347656 0.96875 C 90.457031 0.96875 82.121094 4.605469 75.886719 11.207031 L 11.515625 79.308594 C -1.058594 92.613281 -1.058594 114.261719 11.515625 127.566406 L 18.546875 135 L 11.515625 142.433594 C -1.058594 155.738281 -1.0625 177.382812 11.515625 190.691406 L 75.882812 258.792969 C 82.125 265.394531 90.457031 269.03125 99.347656 269.03125 C 108.238281 269.03125 116.570312 265.398438 122.808594 258.800781 L 129.191406 252.046875 L 135.570312 258.796875 C 141.8125 265.398438 150.140625 269.03125 159.03125 269.03125 C 167.921875 269.03125 176.253906 265.398438 182.496094 258.796875 L 188.863281 252.058594 L 195.234375 258.792969 C 201.472656 265.394531 209.804688 269.03125 218.695312 269.03125 C 218.695312 269.03125 218.695312 269.03125 218.699219 269.03125 C 227.585938 269.03125 235.917969 265.398438 242.160156 258.796875 L 306.546875 190.691406 C 319.121094 177.386719 319.121094 155.738281 306.546875 142.429688 Z M 135.570312 220.375 L 129.195312 227.117188 L 42.117188 135 L 85.652344 88.941406 L 129.191406 42.882812 L 135.570312 49.625 C 136.457031 50.566406 137.394531 51.425781 138.363281 52.246094 C 139.949219 53.582031 141.625 54.765625 143.390625 55.765625 C 143.398438 55.769531 143.402344 55.769531 143.40625 55.769531 C 145.300781 56.839844 147.289062 57.707031 149.347656 58.363281 C 149.371094 58.371094 149.398438 58.375 149.425781 58.382812 C 151.464844 59.027344 153.570312 59.46875 155.722656 59.6875 C 156.273438 59.746094 156.835938 59.746094 157.394531 59.773438 C 157.9375 59.800781 158.476562 59.859375 159.027344 59.859375 C 161.25 59.859375 163.4375 59.632812 165.566406 59.1875 C 171.953125 57.855469 177.8125 54.574219 182.492188 49.625 L 188.378906 43.394531 L 188.863281 42.878906 L 275.949219 135 L 188.867188 227.125 L 182.492188 220.378906 C 176.253906 213.78125 167.921875 210.144531 159.03125 210.144531 C 159.027344 210.144531 159.027344 210.144531 159.027344 210.144531 C 150.140625 210.144531 141.808594 213.777344 135.570312 220.375 Z M 207.679688 22.976562 C 210.648438 19.832031 214.5625 18.101562 218.699219 18.101562 C 222.832031 18.101562 226.746094 19.832031 229.71875 22.972656 L 294.105469 91.078125 C 300.546875 97.894531 300.546875 108.984375 294.105469 115.796875 L 287.738281 122.535156 L 200.652344 30.410156 Z M 148.011719 22.972656 C 150.988281 19.832031 154.898438 18.097656 159.035156 18.097656 C 163.167969 18.097656 167.082031 19.832031 170.054688 22.972656 L 177.082031 30.410156 L 170.050781 37.851562 C 168.191406 39.816406 165.96875 41.230469 163.550781 42.011719 C 162.101562 42.480469 160.582031 42.726562 159.03125 42.726562 C 154.898438 42.726562 150.984375 40.996094 148.011719 37.855469 L 140.980469 30.414062 Z M 23.960938 115.792969 C 17.519531 108.980469 17.519531 97.894531 23.957031 91.078125 L 88.328125 22.972656 C 91.300781 19.832031 95.214844 18.097656 99.347656 18.097656 C 103.480469 18.097656 107.394531 19.828125 110.367188 22.972656 L 117.410156 30.417969 L 73.871094 76.476562 L 30.332031 122.53125 Z M 99.347656 251.902344 C 95.214844 251.902344 91.300781 250.167969 88.328125 247.023438 L 23.957031 178.921875 C 17.515625 172.105469 17.515625 161.019531 23.957031 154.203125 L 30.328125 147.464844 L 117.40625 239.582031 L 110.363281 247.027344 C 107.398438 250.171875 103.484375 251.902344 99.347656 251.902344 Z M 159.035156 251.902344 C 154.898438 251.902344 150.988281 250.167969 148.011719 247.027344 L 140.980469 239.582031 L 148.011719 232.144531 C 150.980469 229.003906 154.894531 227.273438 159.03125 227.273438 C 163.164062 227.273438 167.078125 229.003906 170.050781 232.148438 L 177.085938 239.589844 L 170.054688 247.027344 C 167.082031 250.167969 163.167969 251.902344 159.035156 251.902344 Z M 294.105469 178.921875 L 229.714844 247.027344 C 226.746094 250.167969 222.832031 251.898438 218.695312 251.898438 C 214.5625 251.898438 210.648438 250.167969 207.679688 247.027344 L 200.652344 239.589844 L 287.738281 147.464844 L 294.105469 154.203125 C 300.546875 161.015625 300.546875 172.105469 294.105469 178.921875 Z M 294.105469 178.921875 " clip-rule="nonzero"/></clipPath><clipPath id="d3038ab601"><rect x="0" width="318" y="0" height="271"/></clipPath><mask id="0c861fbe69"><g filter="url(#de567ae8cb)"><rect x="-37.5" width="450" fill="#000000" y="-37.499999" height="449.999989" fill-opacity="0.3294"/></g></mask><clipPath id="6f5e049100"><rect x="0" width="142" y="0" height="95"/></clipPath><mask id="21bf294caa"><g filter="url(#de567ae8cb)"><rect x="-37.5" width="450" fill="#000000" y="-37.499999" height="449.999989" fill-opacity="0.7373"/></g></mask><clipPath id="617935519b"><path d="M 0.078125 4 L 21 4 L 21 22 L 0.078125 22 Z M 0.078125 4 " clip-rule="nonzero"/></clipPath><clipPath id="7abf250888"><rect x="0" width="284" y="0" height="23"/></clipPath></defs><g mask="url(#f8466dc4dc)"><g transform="matrix(1, 0, 0, 1, 35, 68)"><g clip-path="url(#d3038ab601)"><g clip-path="url(#ca1155dcb4)"><g clip-path="url(#2b6a65431b)"><path fill="#8b8b8b" d="M 0.28125 0.96875 L 0.28125 269.03125 L 317.320312 269.03125 L 317.320312 0.96875 Z M 0.28125 0.96875 " fill-opacity="1" fill-rule="nonzero"/></g></g></g></g></g><g mask="url(#0c861fbe69)"><g transform="matrix(1, 0, 0, 1, 119, 156)"><g clip-path="url(#6f5e049100)"><g fill="#666666" fill-opacity="1"><g transform="translate(1.184216, 73.722202)"><g><path d="M 5.6875 0 L 5.6875 -55.21875 L 11.046875 -55.21875 L 31.3125 -14.828125 L 51.59375 -55.21875 L 56.953125 -55.21875 L 56.953125 0 L 51.984375 0 L 51.984375 -46.078125 L 34 -10.328125 L 28.640625 -10.328125 L 10.65625 -46.078125 L 10.65625 0 Z M 5.6875 0 "/></g></g></g><g fill="#666666" fill-opacity="1"><g transform="translate(60.500725, 73.722202)"><g><path d="M 19.171875 0 L 19.171875 -50.484375 L 3.546875 -50.484375 L 3.9375 -55.21875 L 39.6875 -55.21875 L 39.28125 -50.484375 L 24.140625 -50.484375 L 24.140625 0 Z M 19.171875 0 "/></g></g></g><g fill="#666666" fill-opacity="1"><g transform="translate(99.781983, 73.722202)"><g><path d="M 36.84375 -40.390625 C 36.84375 -32.816406 34.238281 -27.742188 29.03125 -25.171875 L 40.9375 0 L 35.1875 0 L 23.984375 -23.515625 C 22.085938 -23.191406 20.007812 -23.03125 17.75 -23.03125 L 11.671875 -23.03125 L 11.671875 0 L 6.3125 0 L 6.3125 -55.21875 L 17.75 -55.21875 C 24.164062 -55.21875 28.847656 -54.21875 31.796875 -52.21875 C 35.160156 -49.957031 36.84375 -46.015625 36.84375 -40.390625 Z M 11.671875 -50.890625 L 11.671875 -27.375 L 17.359375 -27.375 C 22.035156 -27.375 25.554688 -28.320312 27.921875 -30.21875 C 30.296875 -32.113281 31.484375 -35.398438 31.484375 -40.078125 C 31.484375 -46.066406 28.742188 -49.535156 23.265625 -50.484375 C 21.535156 -50.753906 19.566406 -50.890625 17.359375 -50.890625 Z M 11.671875 -50.890625 "/></g></g></g></g></g></g><path stroke-linecap="butt" transform="matrix(0.750659, 0, 0, 0.75, -19.321734, 193.347203)" fill="none" stroke-linejoin="miter" d="M 0.00189334 13.000605 L 551.522788 13.000605 " stroke="#a2a2a2" stroke-width="26" stroke-opacity="1" stroke-miterlimit="4"/><path stroke-linecap="round" transform="matrix(0.586528, 0.468808, -0.468269, 0.585854, 80.898719, 108.610994)" fill="none" stroke-linejoin="miter" d="M 3.998049 3.998975 L 389.54983 3.999606 " stroke="#a2a2a2" stroke-width="8" stroke-opacity="1" stroke-miterlimit="4"/><g mask="url(#21bf294caa)"><g transform="matrix(1, 0, 0, 1, 52, 193)"><g clip-path="url(#7abf250888)"><g clip-path="url(#617935519b)"><g fill="#8b8b8b" fill-opacity="1"><g transform="translate(1.033292, 18.203941)"><g><path d="M 19.554688 -10.769531 C 19.554688 -12.316406 18.773438 -13.113281 17.265625 -13.113281 C 16.023438 -13.113281 14.886719 -12.191406 13.929688 -11.019531 C 13.929688 -12.261719 13.253906 -13.289062 12.101562 -13.289062 C 10.628906 -13.289062 9.566406 -12.085938 8.128906 -10.257812 L 9.121094 -13.308594 C 9.175781 -13.484375 9.101562 -13.804688 8.765625 -13.804688 C 8.695312 -13.804688 8.625 -13.789062 8.554688 -13.734375 C 8.304688 -13.558594 7.984375 -13.34375 7.664062 -13.113281 C 6.175781 -12.03125 4.3125 -10.699219 2.679688 -10.699219 C 1.507812 -10.699219 0.761719 -11.355469 0.761719 -12.6875 C 0.761719 -12.902344 0.621094 -13.097656 0.390625 -13.097656 C 0.214844 -13.097656 0.0351562 -12.953125 0.0195312 -12.777344 C -0.160156 -11.054688 1.027344 -9.953125 2.679688 -9.953125 C 4.753906 -9.953125 6.582031 -11.390625 8.054688 -12.457031 L 6.671875 -8.234375 C 6.636719 -8.164062 5.109375 -5.785156 5.003906 -5.644531 C 3.441406 -3.601562 2.503906 -2.058594 2.484375 -1.066406 C 2.484375 -0.445312 2.769531 0.0546875 3.425781 0.0546875 C 4.597656 0.0546875 5.074219 -0.90625 6.015625 -3.816406 L 7.347656 -7.898438 C 8.695312 -9.847656 10.59375 -12.546875 12.066406 -12.546875 C 12.863281 -12.546875 13.183594 -11.816406 13.183594 -10.914062 C 13.183594 -10.488281 13.097656 -9.972656 12.917969 -9.371094 C 12.101562 -6.617188 11.054688 -3.441406 10.042969 -0.601562 C 9.972656 -0.371094 10.113281 -0.105469 10.398438 -0.105469 C 10.558594 -0.105469 10.699219 -0.195312 10.753906 -0.355469 C 12.367188 -4.988281 12.582031 -5.660156 13.753906 -9.566406 C 14.605469 -10.894531 15.96875 -12.421875 17.265625 -12.421875 C 18.3125 -12.421875 18.863281 -11.941406 18.863281 -10.769531 C 18.863281 -9.546875 18.332031 -8.234375 17.601562 -6.226562 C 16.839844 -4.117188 15.171875 0.335938 15.171875 1.613281 C 15.171875 2.734375 15.898438 3.550781 17.125 3.550781 C 17.320312 3.550781 17.480469 3.390625 17.480469 3.195312 C 17.480469 3 17.320312 2.855469 17.125 2.855469 C 16.433594 2.855469 15.882812 2.414062 15.882812 1.613281 C 15.882812 0.515625 17.496094 -3.902344 18.257812 -5.980469 C 19.003906 -8.039062 19.589844 -9.492188 19.554688 -10.769531 Z M 5.304688 -4.046875 C 4.523438 -1.613281 4.152344 -0.710938 3.425781 -0.710938 C 3.300781 -0.710938 3.230469 -0.816406 3.230469 -0.992188 C 3.246094 -2.058594 4.011719 -2.804688 5.625 -5.21875 C 5.714844 -5.339844 5.714844 -5.339844 5.75 -5.414062 Z M 5.304688 -4.046875 "/></g></g></g></g><g fill="#8b8b8b" fill-opacity="1"><g transform="translate(26.424709, 18.203941)"><g><path d="M 7.933594 -4.222656 C 7.878906 -4.242188 7.824219 -4.257812 7.773438 -4.257812 C 7.628906 -4.257812 7.488281 -4.171875 7.433594 -4.027344 C 6.421875 -1.757812 5.730469 -0.746094 4.878906 -0.746094 C 4.507812 -0.746094 4.347656 -0.976562 4.347656 -1.492188 C 4.347656 -1.96875 4.753906 -3.40625 5.429688 -5.234375 C 5.695312 -5.945312 6.035156 -6.902344 6.421875 -7.933594 C 6.511719 -8.164062 6.335938 -8.429688 6.050781 -8.429688 C 5.910156 -8.429688 5.765625 -8.339844 5.714844 -8.199219 C 4.792969 -5.679688 4.132812 -3.796875 3.511719 -2.554688 C 2.929688 -1.347656 2.199219 -0.746094 1.472656 -0.746094 C 0.835938 -0.746094 0.496094 -1.117188 0.496094 -1.84375 C 0.496094 -2.554688 0.691406 -2.929688 2.574219 -7.933594 C 2.660156 -8.164062 2.519531 -8.429688 2.21875 -8.429688 C 2.074219 -8.429688 1.933594 -8.339844 1.882812 -8.199219 C 0.175781 -3.78125 -0.25 -2.734375 -0.25 -1.84375 C -0.25 -0.640625 0.335938 0 1.457031 0 L 1.472656 0 C 2.269531 0 3.085938 -0.53125 3.601562 -1.261719 C 3.707031 -0.480469 4.097656 0 4.878906 0 C 6.070312 0 6.957031 -1.082031 8.109375 -3.726562 C 8.128906 -3.78125 8.144531 -3.832031 8.144531 -3.886719 C 8.144531 -4.027344 8.054688 -4.152344 7.933594 -4.222656 Z M 7.933594 -4.222656 "/></g></g></g><g fill="#8b8b8b" fill-opacity="1"><g transform="translate(40.088485, 18.203941)"><g><path d="M 7.878906 -4.222656 C 7.824219 -4.242188 7.773438 -4.257812 7.71875 -4.257812 C 7.578125 -4.257812 7.453125 -4.171875 7.382812 -4.027344 C 6.371094 -1.738281 5.679688 -0.746094 4.828125 -0.746094 C 4.453125 -0.746094 4.292969 -0.976562 4.292969 -1.492188 C 4.292969 -2.769531 5.679688 -5.414062 5.679688 -6.761719 C 5.679688 -7.703125 5.269531 -8.429688 4.011719 -8.429688 C 3.441406 -8.429688 2.910156 -8.109375 2.394531 -7.59375 C 3 -9.28125 3.390625 -10.398438 3.550781 -10.859375 C 3.636719 -11.089844 3.460938 -11.355469 3.195312 -11.355469 C 3.035156 -11.355469 2.890625 -11.269531 2.839844 -11.125 C 2.253906 -9.40625 0.726562 -5.179688 -0.957031 -0.496094 C -1.027344 -0.300781 -0.921875 -0.0898438 -0.726562 -0.0195312 C -0.53125 0.0351562 -0.320312 -0.0546875 -0.25 -0.265625 C 1.332031 -4.597656 1.492188 -5.289062 2.609375 -6.707031 C 3.070312 -7.277344 3.566406 -7.683594 4.011719 -7.683594 C 4.703125 -7.683594 4.933594 -7.277344 4.933594 -6.761719 C 4.933594 -5.394531 3.550781 -3.125 3.550781 -1.492188 C 3.550781 -0.621094 3.957031 0 4.828125 0 C 6.035156 0 6.867188 -1.046875 8.074219 -3.726562 C 8.089844 -3.78125 8.109375 -3.832031 8.109375 -3.867188 C 8.109375 -4.027344 8.019531 -4.152344 7.878906 -4.222656 Z M 7.878906 -4.222656 "/></g></g></g><g fill="#8b8b8b" fill-opacity="1"><g transform="translate(53.716772, 18.203941)"><g><path d="M 7.949219 -4.222656 C 7.898438 -4.242188 7.84375 -4.257812 7.789062 -4.257812 C 7.648438 -4.257812 7.523438 -4.171875 7.453125 -4.027344 L 7.433594 -3.976562 C 6.847656 -2.660156 5.996094 -0.746094 4.898438 -0.746094 C 4.523438 -0.746094 4.367188 -0.957031 4.367188 -1.492188 C 4.367188 -2.269531 4.949219 -3.816406 5.589844 -5.605469 L 6.476562 -7.984375 C 6.566406 -8.199219 6.421875 -8.480469 6.140625 -8.480469 C 5.980469 -8.480469 5.839844 -8.394531 5.785156 -8.25 C 5.695312 -8.019531 5.589844 -7.753906 5.484375 -7.453125 C 5.164062 -8.089844 4.613281 -8.394531 3.867188 -8.394531 C 1.738281 -8.394531 -0.0546875 -4.242188 -0.0546875 -1.917969 C -0.0546875 -0.851562 0.40625 0 1.402344 0 C 2.164062 0 2.910156 -0.496094 3.621094 -1.492188 C 3.621094 -0.621094 4.046875 0 4.898438 0 C 6.496094 0 7.453125 -2.183594 8.128906 -3.671875 L 8.144531 -3.726562 C 8.164062 -3.78125 8.179688 -3.832031 8.179688 -3.886719 C 8.179688 -4.027344 8.089844 -4.152344 7.949219 -4.222656 Z M 1.382812 -0.746094 C 0.851562 -0.746094 0.691406 -1.261719 0.691406 -2.039062 C 0.726562 -3.796875 2.234375 -7.613281 3.867188 -7.648438 C 4.507812 -7.648438 4.96875 -7.167969 5.003906 -6.351562 L 4.578125 -5.21875 C 3.867188 -3.40625 2.820312 -0.746094 1.382812 -0.746094 Z M 1.382812 -0.746094 "/></g></g></g><g fill="#8b8b8b" fill-opacity="1"><g transform="translate(67.416036, 18.203941)"><g><path d="M 11.976562 -3.886719 C 11.976562 -4.082031 11.78125 -4.257812 11.605469 -4.257812 C 11.464844 -4.257812 11.304688 -4.171875 11.25 -4.027344 C 10.292969 -1.792969 9.582031 -0.746094 8.710938 -0.746094 C 8.339844 -0.746094 8.179688 -0.976562 8.179688 -1.492188 C 8.179688 -3.015625 9.546875 -5.058594 9.546875 -6.761719 C 9.546875 -7.703125 9.15625 -8.429688 7.878906 -8.429688 C 7.042969 -8.429688 6.140625 -7.613281 5.625 -6.796875 C 5.625 -7.738281 5.058594 -8.429688 3.992188 -8.429688 C 3.390625 -8.429688 2.820312 -8.019531 2.308594 -7.417969 C 2.359375 -7.59375 2.414062 -7.738281 2.484375 -7.898438 C 2.574219 -8.128906 2.394531 -8.394531 2.128906 -8.394531 C 1.96875 -8.394531 1.828125 -8.304688 1.773438 -8.144531 C 0.871094 -5.589844 -0.0546875 -3.035156 -0.957031 -0.480469 C -1.027344 -0.285156 -0.921875 -0.0703125 -0.726562 0 C -0.53125 0.0546875 -0.320312 -0.0351562 -0.25 -0.25 L 0.957031 -3.671875 C 1.066406 -3.957031 2.128906 -5.910156 2.449219 -6.386719 C 2.964844 -7.117188 3.496094 -7.683594 3.992188 -7.683594 C 4.632812 -7.683594 4.878906 -7.347656 4.878906 -6.691406 C 4.878906 -6.070312 4.613281 -5.269531 4.242188 -4.1875 C 4.222656 -4.152344 3.050781 -0.675781 3.035156 -0.621094 C 2.945312 -0.390625 3.125 -0.125 3.390625 -0.125 C 3.550781 -0.125 3.691406 -0.214844 3.746094 -0.371094 C 3.726562 -0.335938 4.914062 -3.816406 4.949219 -3.921875 C 5.464844 -5.359375 6.847656 -7.683594 7.878906 -7.683594 C 8.589844 -7.683594 8.800781 -7.277344 8.800781 -6.761719 C 8.800781 -5.304688 7.417969 -3.105469 7.417969 -1.492188 C 7.417969 -0.621094 7.84375 0 8.710938 0 C 10.292969 0 11.269531 -2.183594 11.925781 -3.671875 C 11.960938 -3.796875 11.976562 -3.832031 11.976562 -3.886719 Z M 11.976562 -3.886719 "/></g></g></g><g fill="#8b8b8b" fill-opacity="1"><g transform="translate(84.91214, 18.203941)"><g><path d="M 11.976562 -3.886719 C 11.976562 -4.082031 11.78125 -4.257812 11.605469 -4.257812 C 11.464844 -4.257812 11.304688 -4.171875 11.25 -4.027344 C 10.292969 -1.792969 9.582031 -0.746094 8.710938 -0.746094 C 8.339844 -0.746094 8.179688 -0.976562 8.179688 -1.492188 C 8.179688 -3.015625 9.546875 -5.058594 9.546875 -6.761719 C 9.546875 -7.703125 9.15625 -8.429688 7.878906 -8.429688 C 7.042969 -8.429688 6.140625 -7.613281 5.625 -6.796875 C 5.625 -7.738281 5.058594 -8.429688 3.992188 -8.429688 C 3.390625 -8.429688 2.820312 -8.019531 2.308594 -7.417969 C 2.359375 -7.59375 2.414062 -7.738281 2.484375 -7.898438 C 2.574219 -8.128906 2.394531 -8.394531 2.128906 -8.394531 C 1.96875 -8.394531 1.828125 -8.304688 1.773438 -8.144531 C 0.871094 -5.589844 -0.0546875 -3.035156 -0.957031 -0.480469 C -1.027344 -0.285156 -0.921875 -0.0703125 -0.726562 0 C -0.53125 0.0546875 -0.320312 -0.0351562 -0.25 -0.25 L 0.957031 -3.671875 C 1.066406 -3.957031 2.128906 -5.910156 2.449219 -6.386719 C 2.964844 -7.117188 3.496094 -7.683594 3.992188 -7.683594 C 4.632812 -7.683594 4.878906 -7.347656 4.878906 -6.691406 C 4.878906 -6.070312 4.613281 -5.269531 4.242188 -4.1875 C 4.222656 -4.152344 3.050781 -0.675781 3.035156 -0.621094 C 2.945312 -0.390625 3.125 -0.125 3.390625 -0.125 C 3.550781 -0.125 3.691406 -0.214844 3.746094 -0.371094 C 3.726562 -0.335938 4.914062 -3.816406 4.949219 -3.921875 C 5.464844 -5.359375 6.847656 -7.683594 7.878906 -7.683594 C 8.589844 -7.683594 8.800781 -7.277344 8.800781 -6.761719 C 8.800781 -5.304688 7.417969 -3.105469 7.417969 -1.492188 C 7.417969 -0.621094 7.84375 0 8.710938 0 C 10.292969 0 11.269531 -2.183594 11.925781 -3.671875 C 11.960938 -3.796875 11.976562 -3.832031 11.976562 -3.886719 Z M 11.976562 -3.886719 "/></g></g></g><g fill="#8b8b8b" fill-opacity="1"><g transform="translate(102.408244, 18.203941)"><g><path d="M 7.949219 -4.222656 C 7.898438 -4.242188 7.84375 -4.257812 7.789062 -4.257812 C 7.648438 -4.257812 7.523438 -4.171875 7.453125 -4.027344 L 7.433594 -3.976562 C 6.847656 -2.660156 5.996094 -0.746094 4.898438 -0.746094 C 4.523438 -0.746094 4.367188 -0.957031 4.367188 -1.492188 C 4.367188 -2.269531 4.949219 -3.816406 5.589844 -5.605469 L 6.476562 -7.984375 C 6.566406 -8.199219 6.421875 -8.480469 6.140625 -8.480469 C 5.980469 -8.480469 5.839844 -8.394531 5.785156 -8.25 C 5.695312 -8.019531 5.589844 -7.753906 5.484375 -7.453125 C 5.164062 -8.089844 4.613281 -8.394531 3.867188 -8.394531 C 1.738281 -8.394531 -0.0546875 -4.242188 -0.0546875 -1.917969 C -0.0546875 -0.851562 0.40625 0 1.402344 0 C 2.164062 0 2.910156 -0.496094 3.621094 -1.492188 C 3.621094 -0.621094 4.046875 0 4.898438 0 C 6.496094 0 7.453125 -2.183594 8.128906 -3.671875 L 8.144531 -3.726562 C 8.164062 -3.78125 8.179688 -3.832031 8.179688 -3.886719 C 8.179688 -4.027344 8.089844 -4.152344 7.949219 -4.222656 Z M 1.382812 -0.746094 C 0.851562 -0.746094 0.691406 -1.261719 0.691406 -2.039062 C 0.726562 -3.796875 2.234375 -7.613281 3.867188 -7.648438 C 4.507812 -7.648438 4.96875 -7.167969 5.003906 -6.351562 L 4.578125 -5.21875 C 3.867188 -3.40625 2.820312 -0.746094 1.382812 -0.746094 Z M 1.382812 -0.746094 "/></g></g></g><g fill="#8b8b8b" fill-opacity="1"><g transform="translate(116.107507, 18.203941)"><g><path d="M 8.429688 -4.222656 C 8.375 -4.242188 8.324219 -4.257812 8.285156 -4.257812 C 8.144531 -4.257812 8.003906 -4.171875 7.933594 -4.046875 C 7.097656 -2.21875 6.246094 -0.746094 4.96875 -0.746094 C 4.558594 -0.746094 4.402344 -1.066406 4.402344 -1.492188 C 4.402344 -1.953125 4.71875 -3 4.988281 -3.816406 C 5.144531 -4.3125 7.257812 -10.34375 7.433594 -10.859375 C 7.507812 -11.054688 7.382812 -11.355469 7.082031 -11.355469 C 6.9375 -11.355469 6.796875 -11.269531 6.742188 -11.125 L 5.800781 -8.410156 L 5.464844 -7.488281 C 5.179688 -8.039062 4.667969 -8.394531 3.867188 -8.394531 C 1.722656 -8.394531 -0.0546875 -4.242188 -0.0546875 -1.917969 C -0.0546875 -0.851562 0.40625 0 1.402344 0 C 2.308594 0 3.035156 -0.675781 3.65625 -1.5625 C 3.65625 -0.566406 4.132812 0 4.96875 0 C 6.601562 0 7.59375 -1.507812 8.625 -3.726562 C 8.640625 -3.78125 8.660156 -3.832031 8.660156 -3.886719 C 8.660156 -4.027344 8.570312 -4.152344 8.429688 -4.222656 Z M 1.382812 -0.746094 C 0.851562 -0.746094 0.691406 -1.261719 0.691406 -2.039062 C 0.726562 -3.796875 2.234375 -7.59375 3.867188 -7.648438 C 4.558594 -7.648438 4.96875 -7.167969 5.003906 -6.351562 C 5.003906 -6.316406 5.003906 -6.28125 4.988281 -6.226562 C 4.863281 -5.945312 4.738281 -5.589844 4.578125 -5.21875 C 3.867188 -3.40625 2.820312 -0.746094 1.382812 -0.746094 Z M 1.382812 -0.746094 "/></g></g></g><g fill="#8b8b8b" fill-opacity="1"><g transform="translate(130.285809, 18.203941)"><g/></g></g><g fill="#8b8b8b" fill-opacity="1"><g transform="translate(142.157612, 18.203941)"><g><path d="M 16.164062 -12.476562 C 16.164062 -13.289062 15.046875 -13.699219 14.019531 -13.699219 C 12.9375 -13.699219 11.621094 -13.308594 10.734375 -12.5625 C 8.710938 -12.9375 6.140625 -13.929688 4.242188 -13.929688 C 1.917969 -13.929688 0.550781 -12.757812 0.550781 -10.769531 C 0.550781 -9.15625 1.6875 -8.179688 3.335938 -8.179688 C 3.976562 -8.179688 4.667969 -8.339844 5.289062 -8.625 C 5.429688 -8.695312 5.5 -8.820312 5.5 -8.960938 C 5.5 -9.101562 5.394531 -9.332031 5.144531 -9.332031 C 5.074219 -9.332031 5.023438 -9.316406 4.96875 -9.296875 C 4.453125 -9.066406 3.886719 -8.925781 3.355469 -8.925781 C 2.128906 -8.925781 1.3125 -9.527344 1.296875 -10.769531 C 1.296875 -12.28125 2.378906 -13.167969 4.207031 -13.167969 C 6.210938 -13.167969 8.535156 -12.261719 10.097656 -11.925781 C 9.992188 -11.765625 9.867188 -11.605469 9.777344 -11.445312 C 9.03125 -10.167969 8.410156 -8.214844 7.96875 -6.777344 C 6.726562 -3.070312 6.085938 0.371094 3.070312 0.335938 C 1.773438 0.335938 0.746094 -0.601562 0.746094 -2.113281 C 0.746094 -3.726562 2.269531 -5.128906 3.832031 -5.128906 C 4.046875 -5.128906 4.207031 -5.289062 4.207031 -5.5 C 4.207031 -5.714844 4.046875 -5.875 3.832031 -5.875 C 1.882812 -5.875 0 -4.207031 0 -2.113281 C 0 -0.285156 1.261719 1.082031 3.070312 1.082031 C 6.210938 1.136719 7.117188 -1.382812 8.675781 -6.546875 C 9.121094 -7.949219 9.722656 -9.882812 10.417969 -11.074219 C 10.574219 -11.320312 10.753906 -11.550781 10.964844 -11.765625 C 12.085938 -11.550781 13.183594 -11.410156 14.054688 -11.410156 C 15.296875 -11.410156 16.128906 -11.675781 16.164062 -12.476562 Z M 14.054688 -12.15625 C 13.46875 -12.15625 12.652344 -12.242188 11.800781 -12.386719 C 12.402344 -12.722656 13.308594 -12.953125 14 -12.953125 C 14.515625 -12.953125 15.402344 -12.757812 15.402344 -12.492188 C 15.402344 -12.242188 14.886719 -12.15625 14.054688 -12.15625 Z M 14.054688 -12.15625 "/></g></g></g><g fill="#8b8b8b" fill-opacity="1"><g transform="translate(159.689204, 18.203941)"><g><path d="M 7.949219 -4.222656 C 7.898438 -4.242188 7.84375 -4.257812 7.789062 -4.257812 C 7.648438 -4.257812 7.523438 -4.171875 7.453125 -4.027344 L 7.433594 -3.976562 C 6.847656 -2.660156 5.996094 -0.746094 4.898438 -0.746094 C 4.523438 -0.746094 4.367188 -0.957031 4.367188 -1.492188 C 4.367188 -2.269531 4.949219 -3.816406 5.589844 -5.605469 L 6.476562 -7.984375 C 6.566406 -8.199219 6.421875 -8.480469 6.140625 -8.480469 C 5.980469 -8.480469 5.839844 -8.394531 5.785156 -8.25 C 5.695312 -8.019531 5.589844 -7.753906 5.484375 -7.453125 C 5.164062 -8.089844 4.613281 -8.394531 3.867188 -8.394531 C 1.738281 -8.394531 -0.0546875 -4.242188 -0.0546875 -1.917969 C -0.0546875 -0.851562 0.40625 0 1.402344 0 C 2.164062 0 2.910156 -0.496094 3.621094 -1.492188 C 3.621094 -0.621094 4.046875 0 4.898438 0 C 6.496094 0 7.453125 -2.183594 8.128906 -3.671875 L 8.144531 -3.726562 C 8.164062 -3.78125 8.179688 -3.832031 8.179688 -3.886719 C 8.179688 -4.027344 8.089844 -4.152344 7.949219 -4.222656 Z M 1.382812 -0.746094 C 0.851562 -0.746094 0.691406 -1.261719 0.691406 -2.039062 C 0.726562 -3.796875 2.234375 -7.613281 3.867188 -7.648438 C 4.507812 -7.648438 4.96875 -7.167969 5.003906 -6.351562 L 4.578125 -5.21875 C 3.867188 -3.40625 2.820312 -0.746094 1.382812 -0.746094 Z M 1.382812 -0.746094 "/></g></g></g><g fill="#8b8b8b" fill-opacity="1"><g transform="translate(173.388468, 18.203941)"><g><path d="M 7.878906 -4.222656 C 7.824219 -4.242188 7.773438 -4.257812 7.71875 -4.257812 C 7.578125 -4.257812 7.453125 -4.171875 7.382812 -4.027344 C 6.371094 -1.738281 5.679688 -0.746094 4.828125 -0.746094 C 4.453125 -0.746094 4.292969 -0.976562 4.292969 -1.492188 C 4.292969 -2.769531 5.679688 -5.414062 5.679688 -6.761719 C 5.679688 -7.703125 5.269531 -8.429688 4.011719 -8.429688 C 3.441406 -8.429688 2.910156 -8.109375 2.394531 -7.59375 C 3 -9.28125 3.390625 -10.398438 3.550781 -10.859375 C 3.636719 -11.089844 3.460938 -11.355469 3.195312 -11.355469 C 3.035156 -11.355469 2.890625 -11.269531 2.839844 -11.125 C 2.253906 -9.40625 0.726562 -5.179688 -0.957031 -0.496094 C -1.027344 -0.300781 -0.921875 -0.0898438 -0.726562 -0.0195312 C -0.53125 0.0351562 -0.320312 -0.0546875 -0.25 -0.265625 C 1.332031 -4.597656 1.492188 -5.289062 2.609375 -6.707031 C 3.070312 -7.277344 3.566406 -7.683594 4.011719 -7.683594 C 4.703125 -7.683594 4.933594 -7.277344 4.933594 -6.761719 C 4.933594 -5.394531 3.550781 -3.125 3.550781 -1.492188 C 3.550781 -0.621094 3.957031 0 4.828125 0 C 6.035156 0 6.867188 -1.046875 8.074219 -3.726562 C 8.089844 -3.78125 8.109375 -3.832031 8.109375 -3.867188 C 8.109375 -4.027344 8.019531 -4.152344 7.878906 -4.222656 Z M 7.878906 -4.222656 "/></g></g></g><g fill="#8b8b8b" fill-opacity="1"><g transform="translate(187.016755, 18.203941)"><g><path d="M 7.949219 -4.222656 C 7.898438 -4.242188 7.84375 -4.257812 7.789062 -4.257812 C 7.648438 -4.257812 7.523438 -4.171875 7.453125 -4.027344 L 7.433594 -3.976562 C 6.847656 -2.660156 5.996094 -0.746094 4.898438 -0.746094 C 4.523438 -0.746094 4.367188 -0.957031 4.367188 -1.492188 C 4.367188 -2.269531 4.949219 -3.816406 5.589844 -5.605469 L 6.476562 -7.984375 C 6.566406 -8.199219 6.421875 -8.480469 6.140625 -8.480469 C 5.980469 -8.480469 5.839844 -8.394531 5.785156 -8.25 C 5.695312 -8.019531 5.589844 -7.753906 5.484375 -7.453125 C 5.164062 -8.089844 4.613281 -8.394531 3.867188 -8.394531 C 1.738281 -8.394531 -0.0546875 -4.242188 -0.0546875 -1.917969 C -0.0546875 -0.851562 0.40625 0 1.402344 0 C 2.164062 0 2.910156 -0.496094 3.621094 -1.492188 C 3.621094 -0.621094 4.046875 0 4.898438 0 C 6.496094 0 7.453125 -2.183594 8.128906 -3.671875 L 8.144531 -3.726562 C 8.164062 -3.78125 8.179688 -3.832031 8.179688 -3.886719 C 8.179688 -4.027344 8.089844 -4.152344 7.949219 -4.222656 Z M 1.382812 -0.746094 C 0.851562 -0.746094 0.691406 -1.261719 0.691406 -2.039062 C 0.726562 -3.796875 2.234375 -7.613281 3.867188 -7.648438 C 4.507812 -7.648438 4.96875 -7.167969 5.003906 -6.351562 L 4.578125 -5.21875 C 3.867188 -3.40625 2.820312 -0.746094 1.382812 -0.746094 Z M 1.382812 -0.746094 "/></g></g></g><g fill="#8b8b8b" fill-opacity="1"><g transform="translate(200.716019, 18.203941)"><g/></g></g><g fill="#8b8b8b" fill-opacity="1"><g transform="translate(212.587821, 18.203941)"><g><path d="M 13.46875 -9.441406 C 13.558594 -11.585938 11.816406 -13.113281 9.296875 -13.113281 C 5.75 -13.113281 3.636719 -10.238281 3.636719 -6.441406 C 3.636719 -6.226562 3.816406 -6.070312 4.011719 -6.070312 C 4.222656 -6.070312 4.382812 -6.226562 4.382812 -6.441406 C 4.382812 -9.777344 6.105469 -12.296875 9.296875 -12.351562 C 11.285156 -12.386719 12.777344 -11.320312 12.722656 -9.441406 C 12.632812 -7.382812 10.59375 -6.050781 8.179688 -5.960938 C 7.898438 -5.960938 7.753906 -5.785156 7.753906 -5.589844 C 7.753906 -5.414062 7.898438 -5.21875 8.179688 -5.21875 C 9.992188 -5.199219 10.398438 -3.816406 10.398438 -2.308594 C 10.398438 -1.066406 10.097656 0.585938 10.097656 1.402344 C 10.097656 2.804688 10.734375 3.726562 12.050781 3.726562 C 12.28125 3.726562 12.457031 3.550781 12.457031 3.316406 C 12.457031 3.085938 12.28125 2.964844 12.050781 2.964844 C 11.25 2.964844 10.878906 2.503906 10.84375 1.402344 C 10.84375 0.957031 11.144531 -1.1875 11.144531 -2.324219 C 11.144531 -3.636719 10.878906 -4.828125 9.953125 -5.484375 C 11.960938 -6.035156 13.398438 -7.523438 13.46875 -9.441406 Z M 9.40625 -10.984375 C 9.582031 -11.144531 9.777344 -11.25 9.953125 -11.285156 C 10.113281 -11.320312 10.273438 -11.429688 10.273438 -11.710938 C 10.273438 -11.90625 10.078125 -12.03125 9.867188 -12.03125 C 9.617188 -12.03125 9.226562 -11.855469 8.90625 -11.570312 C 7.949219 -10.683594 7.46875 -8.945312 6.902344 -7.027344 C 6.070312 -4.3125 5.058594 -0.710938 2.574219 -0.710938 C 1.597656 -0.710938 0.746094 -1.3125 0.746094 -2.378906 C 0.746094 -3.441406 1.597656 -4.542969 2.574219 -4.542969 C 2.679688 -4.542969 2.785156 -4.523438 2.875 -4.507812 C 3.140625 -4.4375 3.335938 -4.632812 3.335938 -4.878906 C 3.335938 -5.199219 3.035156 -5.304688 2.554688 -5.304688 C 1.207031 -5.304688 0 -3.921875 0 -2.378906 C 0 -0.921875 1.136719 0.0351562 2.589844 0.0351562 C 5.535156 0.0351562 6.636719 -3.621094 7.613281 -6.8125 C 8.109375 -8.429688 8.640625 -10.363281 9.40625 -10.984375 Z M 9.40625 -10.984375 "/></g></g></g><g fill="#8b8b8b" fill-opacity="1"><g transform="translate(232.000089, 18.203941)"><g><path d="M 7.949219 -4.222656 C 7.898438 -4.242188 7.84375 -4.257812 7.789062 -4.257812 C 7.648438 -4.257812 7.523438 -4.171875 7.453125 -4.027344 L 7.433594 -3.976562 C 6.847656 -2.660156 5.996094 -0.746094 4.898438 -0.746094 C 4.523438 -0.746094 4.367188 -0.957031 4.367188 -1.492188 C 4.367188 -2.269531 4.949219 -3.816406 5.589844 -5.605469 L 6.476562 -7.984375 C 6.566406 -8.199219 6.421875 -8.480469 6.140625 -8.480469 C 5.980469 -8.480469 5.839844 -8.394531 5.785156 -8.25 C 5.695312 -8.019531 5.589844 -7.753906 5.484375 -7.453125 C 5.164062 -8.089844 4.613281 -8.394531 3.867188 -8.394531 C 1.738281 -8.394531 -0.0546875 -4.242188 -0.0546875 -1.917969 C -0.0546875 -0.851562 0.40625 0 1.402344 0 C 2.164062 0 2.910156 -0.496094 3.621094 -1.492188 C 3.621094 -0.621094 4.046875 0 4.898438 0 C 6.496094 0 7.453125 -2.183594 8.128906 -3.671875 L 8.144531 -3.726562 C 8.164062 -3.78125 8.179688 -3.832031 8.179688 -3.886719 C 8.179688 -4.027344 8.089844 -4.152344 7.949219 -4.222656 Z M 1.382812 -0.746094 C 0.851562 -0.746094 0.691406 -1.261719 0.691406 -2.039062 C 0.726562 -3.796875 2.234375 -7.613281 3.867188 -7.648438 C 4.507812 -7.648438 4.96875 -7.167969 5.003906 -6.351562 L 4.578125 -5.21875 C 3.867188 -3.40625 2.820312 -0.746094 1.382812 -0.746094 Z M 1.382812 -0.746094 "/></g></g></g><g fill="#8b8b8b" fill-opacity="1"><g transform="translate(245.699353, 18.203941)"><g><path d="M 6.421875 -4.222656 C 6.226562 -4.292969 6.015625 -4.207031 5.925781 -4.027344 C 4.933594 -1.738281 3.796875 -0.710938 2.34375 -0.746094 C 1.277344 -0.78125 0.710938 -1.402344 0.746094 -2.414062 C 0.761719 -2.785156 0.816406 -3.125 0.941406 -3.585938 C 2.910156 -4.0625 5.554688 -5.199219 5.554688 -7.082031 C 5.554688 -7.933594 4.933594 -8.394531 4.046875 -8.394531 C 1.953125 -8.394531 0.105469 -4.703125 0 -2.429688 C -0.0351562 -0.976562 0.851562 0 2.324219 0 C 4.117188 0 5.464844 -1.171875 6.617188 -3.726562 C 6.636719 -3.78125 6.65625 -3.816406 6.65625 -3.867188 C 6.65625 -4.011719 6.566406 -4.152344 6.421875 -4.222656 Z M 1.222656 -4.4375 C 1.792969 -5.800781 2.820312 -7.648438 4.046875 -7.648438 C 4.4375 -7.648438 4.808594 -7.558594 4.808594 -7.082031 C 4.808594 -5.765625 2.695312 -4.898438 1.222656 -4.4375 Z M 1.222656 -4.4375 "/></g></g></g><g fill="#8b8b8b" fill-opacity="1"><g transform="translate(257.872776, 18.203941)"><g><path d="M 6.421875 -4.222656 C 6.226562 -4.292969 6.015625 -4.207031 5.925781 -4.027344 C 4.933594 -1.738281 3.796875 -0.710938 2.34375 -0.746094 C 1.277344 -0.78125 0.710938 -1.402344 0.746094 -2.414062 C 0.761719 -2.785156 0.816406 -3.125 0.941406 -3.585938 C 2.910156 -4.0625 5.554688 -5.199219 5.554688 -7.082031 C 5.554688 -7.933594 4.933594 -8.394531 4.046875 -8.394531 C 1.953125 -8.394531 0.105469 -4.703125 0 -2.429688 C -0.0351562 -0.976562 0.851562 0 2.324219 0 C 4.117188 0 5.464844 -1.171875 6.617188 -3.726562 C 6.636719 -3.78125 6.65625 -3.816406 6.65625 -3.867188 C 6.65625 -4.011719 6.566406 -4.152344 6.421875 -4.222656 Z M 1.222656 -4.4375 C 1.792969 -5.800781 2.820312 -7.648438 4.046875 -7.648438 C 4.4375 -7.648438 4.808594 -7.558594 4.808594 -7.082031 C 4.808594 -5.765625 2.695312 -4.898438 1.222656 -4.4375 Z M 1.222656 -4.4375 "/></g></g></g><g fill="#8b8b8b" fill-opacity="1"><g transform="translate(270.046199, 18.203941)"><g><path d="M 5.855469 -3.140625 C 5.839844 -4.347656 5.359375 -4.96875 4.4375 -6.671875 C 4.988281 -7.292969 5.429688 -8.074219 5.429688 -8.785156 C 5.394531 -9.296875 5.09375 -9.707031 4.578125 -9.707031 C 3.851562 -9.707031 3.28125 -8.925781 3.28125 -8.003906 C 3.28125 -7.59375 3.390625 -7.203125 3.550781 -6.832031 C 3.335938 -6.617188 3.160156 -6.421875 2.945312 -6.175781 C 2.890625 -6.105469 2.855469 -6.015625 2.855469 -5.945312 C 2.855469 -5.839844 2.890625 -5.714844 2.980469 -5.644531 C 3.050781 -5.570312 3.160156 -5.554688 3.246094 -5.554688 C 3.355469 -5.554688 3.460938 -5.605469 3.53125 -5.695312 C 3.636719 -5.839844 3.761719 -5.980469 3.886719 -6.105469 C 4.828125 -4.453125 5.09375 -3.9375 5.109375 -3.160156 C 5.074219 -1.6875 4.046875 -0.746094 2.609375 -0.746094 C 1.578125 -0.746094 0.675781 -1.507812 0.675781 -2.589844 C 0.746094 -3.671875 1.382812 -4.488281 2.359375 -4.488281 C 2.820312 -4.488281 3.265625 -4.046875 3.300781 -3.441406 C 3.300781 -3.230469 3.460938 -3.070312 3.671875 -3.070312 C 3.886719 -3.070312 4.046875 -3.230469 4.046875 -3.441406 C 4.011719 -4.417969 3.265625 -5.234375 2.34375 -5.234375 C 0.921875 -5.234375 0.0351562 -4.1875 -0.0703125 -2.589844 C -0.0703125 -1.152344 1.136719 0 2.609375 0 C 4.402344 0 5.820312 -1.222656 5.855469 -3.140625 Z M 4.117188 -7.453125 C 4.0625 -7.648438 4.027344 -7.824219 4.027344 -8.019531 C 4.027344 -8.269531 4.082031 -8.589844 4.292969 -8.800781 C 4.472656 -8.980469 4.667969 -9.03125 4.667969 -8.785156 C 4.667969 -8.394531 4.402344 -7.84375 4.117188 -7.453125 Z M 4.117188 -7.453125 "/></g></g></g></g></g></g></svg>