<svg xmlns="http://www.w3.org/2000/svg" xmlns:xlink="http://www.w3.org/1999/xlink" width="500" zoomAndPan="magnify" viewBox="0 0 375 374.999991" height="500" preserveAspectRatio="xMidYMid meet" version="1.0"><defs><clipPath id="1f04f70518"><path d="M 99.523438 243 L 102 243 L 102 244.949219 L 99.523438 244.949219 Z M 99.523438 243 " clip-rule="nonzero"/></clipPath><clipPath id="1b8e65e2b8"><path d="M 99.523438 243.449219 C 103.351562 242.101562 100.425781 244.5 99.898438 244.351562 C 99.675781 244.273438 99.523438 243.449219 99.523438 243.449219 " clip-rule="nonzero"/></clipPath><clipPath id="6d57de14ae"><path d="M 5 20.289062 L 369.5625 20.289062 L 369.5625 354.289062 L 5 354.289062 Z M 5 20.289062 " clip-rule="nonzero"/></clipPath><clipPath id="bff8fad2e6"><path d="M 80.046875 226.546875 C 83.117188 223.0625 85.347656 223.339844 86.742188 222.363281 C 88.554688 221.25 89.671875 219.574219 91.484375 216.925781 C 94.96875 211.625 100.96875 199.773438 104.035156 191.40625 C 106.824219 183.875 108.21875 177.179688 109.472656 168.953125 C 110.867188 159.050781 111.425781 147.753906 111.148438 136.179688 C 110.867188 123.351562 109.335938 108.148438 107.101562 95.320312 C 105.011719 83.605469 102.082031 72.726562 98.597656 61.988281 C 95.25 51.390625 90.367188 37.445312 86.601562 31.027344 C 84.652344 27.683594 82.835938 25.171875 81.023438 24.054688 C 79.769531 23.359375 78.375 22.800781 77.398438 23.359375 C 76.003906 24.195312 75.167969 27.820312 74.886719 30.609375 C 74.609375 34.515625 76.144531 39.535156 77.257812 44.695312 C 78.792969 51.390625 80.464844 57.664062 83.675781 67.566406 C 89.671875 86.253906 106.824219 126 112.679688 148.171875 C 116.585938 163.09375 118.121094 173.414062 119.375 186.382812 C 120.628906 199.632812 120.628906 212.882812 120.210938 226.964844 C 119.652344 242.304688 118.257812 260.574219 115.890625 274.941406 C 113.9375 286.792969 111.007812 302.691406 108.359375 307.015625 C 107.519531 308.410156 106.683594 309.246094 105.707031 309.246094 C 104.175781 309.246094 101.804688 306.875 100.410156 304.644531 C 98.316406 301.574219 97.203125 296.136719 96.085938 291.675781 C 94.96875 287.074219 94.273438 281.214844 93.992188 277.589844 C 93.855469 275.359375 93.574219 273.964844 93.855469 272.152344 C 94.273438 270.058594 94.832031 266.992188 96.503906 265.597656 C 98.179688 264.203125 101.105469 263.644531 103.894531 264.0625 C 107.800781 264.621094 114.074219 272.152344 117.285156 271.3125 C 119.933594 270.617188 120.910156 263.644531 122.582031 262.109375 C 123.417969 261.414062 123.835938 261.132812 124.8125 260.992188 C 126.488281 260.714844 130.390625 263.363281 132.34375 262.527344 C 134.296875 261.550781 135.132812 256.113281 136.25 255.136719 C 136.808594 254.71875 137.085938 254.4375 137.644531 254.578125 C 138.761719 254.71875 140.433594 258.203125 141.828125 258.203125 C 143.222656 258.203125 144.199219 255.136719 145.734375 254.4375 C 147.128906 253.742188 149.078125 254.859375 150.335938 254.019531 C 151.867188 253.042969 152.285156 249.140625 153.960938 248.164062 C 155.496094 247.328125 158.421875 249.28125 159.816406 248.304688 C 161.351562 247.328125 161.492188 242.585938 162.605469 241.609375 C 163.164062 241.191406 163.722656 240.910156 164.417969 241.191406 C 166.09375 241.886719 169.441406 250.8125 170.695312 250.8125 C 171.253906 250.8125 171.394531 249.976562 171.8125 248.859375 C 173.207031 245.375 176.273438 233.660156 177.667969 225.015625 C 179.339844 214.832031 180.179688 202.699219 180.179688 191.542969 C 180.179688 180.527344 179.339844 171.324219 177.945312 158.351562 C 175.996094 139.667969 165.953125 93.085938 168.605469 90.578125 C 169.023438 90.160156 169.859375 90.4375 170.417969 90.996094 C 172.789062 93.226562 174.738281 107.3125 178.367188 117.910156 C 183.804688 133.667969 197.332031 162.957031 201.238281 175.785156 C 203.050781 181.921875 205 186.105469 204.304688 189.730469 C 203.746094 192.519531 202.351562 193.636719 199.5625 196.425781 C 191.613281 204.09375 165.8125 217.203125 146.570312 231.011719 C 122.023438 248.582031 86.324219 277.449219 65.40625 295.019531 C 51.597656 306.597656 41.417969 315.660156 31.9375 324.863281 C 24.40625 332.117188 17.015625 339.648438 12.550781 345.226562 C 9.902344 348.574219 7.808594 354.011719 6.695312 354.011719 C 6.277344 354.011719 5.578125 353.035156 5.71875 352.339844 C 5.996094 350.804688 10.320312 349.828125 14.085938 346.339844 C 25.660156 335.882812 60.523438 293.488281 77.675781 275.359375 C 88.835938 263.503906 96.085938 256.390625 106.125 246.910156 C 116.726562 237.007812 128.023438 226.828125 139.457031 217.203125 C 151.171875 207.441406 163.445312 197.820312 175.714844 188.617188 C 187.847656 179.550781 198.308594 172.160156 212.671875 162.675781 C 232.195312 149.847656 257.996094 133.667969 282.679688 119.445312 C 309.457031 104.105469 360.773438 74.820312 367.75 74.261719 C 368.722656 74.121094 369.28125 74.398438 369.421875 74.820312 C 369.5625 75.097656 369.421875 75.792969 368.863281 76.351562 C 366.910156 78.304688 354.082031 82.90625 349.757812 84.300781 C 347.667969 85 345.574219 85.835938 344.878906 85.417969 C 344.457031 85.136719 344.320312 84.582031 344.597656 84.023438 C 345.574219 81.929688 359.519531 76.632812 363.984375 75.238281 C 366.214844 74.539062 368.722656 73.84375 369.144531 74.398438 C 369.421875 74.820312 368.863281 76.214844 367.609375 77.46875 C 362.449219 82.769531 331.90625 95.179688 313.21875 105.21875 C 292.859375 116.238281 271.664062 127.953125 250.046875 141.339844 C 226.339844 156.121094 196.914062 175.925781 177.109375 190.429688 C 162.746094 200.886719 152.707031 209.253906 140.992188 219.015625 C 129.554688 228.640625 118.257812 238.542969 107.800781 248.441406 C 97.757812 257.925781 90.507812 265.039062 79.351562 276.890625 C 62.058594 295.160156 25.800781 338.113281 15.621094 348.15625 C 12.691406 351.082031 11.296875 352.617188 9.484375 353.453125 C 8.507812 354.011719 7.390625 354.152344 6.695312 354.011719 C 6.136719 353.871094 5.71875 353.453125 5.578125 352.894531 C 5.4375 352.058594 5.855469 350.804688 6.695312 349.410156 C 8.507812 346.0625 13.109375 340.761719 18.6875 334.90625 C 28.726562 324.308594 47.414062 307.433594 64.011719 293.207031 C 82.835938 277.03125 108.078125 256.949219 126.070312 243.28125 C 139.457031 233.101562 149.917969 225.710938 162.050781 217.621094 C 173.902344 209.671875 192.171875 200.191406 198.027344 194.890625 C 200.398438 192.800781 201.515625 191.960938 202.074219 189.59375 C 202.769531 186.382812 201.097656 182.339844 199.285156 176.621094 C 195.519531 164.070312 181.574219 134.644531 176.273438 118.609375 C 172.648438 107.730469 167.210938 92.25 168.605469 90.578125 C 168.882812 90.160156 169.859375 90.296875 170.277344 90.71875 C 170.835938 91.273438 170.695312 92.25 170.972656 94.0625 C 172.507812 103.269531 180.457031 153.195312 181.710938 175.785156 C 182.550781 191.683594 182.269531 204.234375 181.015625 216.367188 C 179.898438 226.410156 177.25 237.703125 175.714844 243.5625 C 175.019531 246.492188 174.601562 248.304688 173.625 249.976562 C 172.925781 251.230469 171.949219 252.625 170.972656 252.765625 C 169.71875 252.90625 167.628906 250.8125 166.511719 249.28125 C 165.257812 247.605469 164.976562 243.144531 164.140625 243.144531 C 163.164062 243.144531 162.605469 249.140625 160.933594 250.117188 C 159.539062 250.953125 157.167969 248.859375 155.496094 249.558594 C 153.261719 250.535156 151.589844 256.253906 149.777344 256.949219 C 148.800781 257.367188 147.824219 255.972656 146.847656 256.253906 C 145.3125 256.671875 143.640625 260.296875 142.105469 260.296875 C 140.710938 260.296875 139.039062 256.53125 137.921875 256.808594 C 136.808594 257.089844 136.527344 260.855469 135.273438 262.25 C 134.296875 263.363281 133.042969 264.480469 131.507812 264.757812 C 129.835938 265.039062 127.183594 262.386719 125.371094 263.085938 C 122.722656 264.0625 121.746094 272.847656 118.539062 273.683594 C 114.773438 274.660156 107.382812 266.851562 103.617188 266.152344 C 101.386719 265.734375 99.433594 265.734375 98.179688 266.710938 C 96.921875 267.6875 96.363281 269.917969 96.085938 272.152344 C 95.667969 275.21875 96.226562 279.820312 96.78125 283.863281 C 97.480469 288.46875 98.597656 294.046875 99.992188 298.089844 C 101.105469 301.296875 102.917969 305.0625 104.175781 306.457031 C 104.730469 307.015625 105.289062 307.574219 105.847656 307.433594 C 107.242188 306.875 108.636719 300.601562 109.890625 295.578125 C 111.984375 287.210938 114.214844 272.847656 115.609375 261.414062 C 117.003906 249.976562 117.839844 238.820312 118.121094 226.828125 C 118.398438 213.996094 118.539062 199.773438 117.285156 186.664062 C 116.027344 173.832031 114.355469 163.09375 110.589844 148.871094 C 105.429688 129.625 92.878906 101.175781 86.464844 82.210938 C 81.722656 68.125 77.398438 54.875 75.167969 45.253906 C 73.773438 39.257812 72.519531 34.515625 72.65625 30.332031 C 72.796875 27.402344 73.492188 24.195312 74.609375 22.660156 C 75.308594 21.6875 76.003906 21.128906 76.980469 20.988281 C 78.375 20.710938 80.886719 21.128906 82.699219 22.242188 C 84.929688 23.636719 86.601562 26.289062 88.695312 29.914062 C 92.597656 36.746094 97.339844 50.691406 100.828125 61.429688 C 104.3125 72.308594 107.382812 83.1875 109.472656 95.039062 C 111.707031 108.007812 113.101562 123.210938 113.378906 136.179688 C 113.65625 147.753906 113.101562 159.328125 111.566406 169.230469 C 110.308594 177.597656 108.777344 184.433594 105.988281 192.242188 C 102.917969 200.886719 96.78125 212.882812 93.019531 218.320312 C 91.066406 221.109375 89.53125 223.0625 87.71875 224.175781 C 86.324219 225.015625 84.511719 224.59375 83.394531 225.292969 C 82.28125 225.851562 81.441406 227.941406 80.886719 227.941406 C 80.464844 227.941406 80.046875 226.546875 80.046875 226.546875 " clip-rule="nonzero"/></clipPath></defs><g clip-path="url(#1f04f70518)"><g clip-path="url(#1b8e65e2b8)"><path fill="#666666" d="M 96.523438 238.949219 L 106.273438 238.949219 L 106.273438 247.199219 L 96.523438 247.199219 Z M 96.523438 238.949219 " fill-opacity="1" fill-rule="nonzero"/></g></g><g clip-path="url(#6d57de14ae)"><g clip-path="url(#bff8fad2e6)"><path fill="#666666" d="M 0 15.410156 L 375.140625 15.410156 L 375.140625 359.867188 L 0 359.867188 Z M 0 15.410156 " fill-opacity="1" fill-rule="nonzero"/></g></g></svg>