<svg xmlns="http://www.w3.org/2000/svg" xmlns:xlink="http://www.w3.org/1999/xlink" width="500" zoomAndPan="magnify" viewBox="0 0 375 374.999991" height="500" preserveAspectRatio="xMidYMid meet" version="1.0"><path fill="#f1f2f2" d="M 119.402344 151.1875 C 126.921875 129.394531 140.148438 110.425781 149.003906 108.765625 C 157.890625 107.09375 159.035156 123.480469 151.507812 145.425781 C 143.960938 167.433594 130.601562 186.554688 121.722656 188.070312 C 112.878906 189.578125 111.867188 173.039062 119.402344 151.1875 Z M 203.867188 174.046875 C 213.085938 172.472656 226.746094 152.980469 234.320312 130.574219 C 241.875 108.230469 240.472656 91.574219 231.242188 93.308594 C 222.050781 95.035156 208.527344 114.367188 200.984375 136.554688 C 193.417969 158.800781 194.683594 175.613281 203.867188 174.046875 Z M 40.175781 200.222656 C 41.84375 201.457031 44.007812 202.074219 46.484375 202.074219 C 48.1875 202.074219 50.035156 201.777344 51.96875 201.191406 C 51.242188 208.773438 49.378906 242.023438 69.519531 261.984375 C 80.023438 272.390625 94.734375 277.621094 113.40625 277.621094 C 119.03125 277.621094 125.015625 277.148438 131.351562 276.195312 C 180.503906 268.8125 217.851562 238.144531 240.527344 213.71875 C 262.984375 189.53125 275.875 166.523438 278.003906 162.59375 C 278.132812 162.59375 278.261719 162.605469 278.390625 162.605469 C 287.003906 162.605469 297.730469 156.152344 302.796875 147.761719 C 303.101562 147.253906 302.9375 146.59375 302.429688 146.285156 C 301.921875 145.980469 301.261719 146.140625 300.953125 146.648438 C 296.046875 154.78125 285.503906 160.960938 277.441406 160.425781 C 274.175781 160.207031 271.835938 158.921875 270.679688 156.707031 C 269.230469 153.933594 269.828125 149.976562 272.316406 145.855469 C 272.621094 145.347656 272.457031 144.6875 271.949219 144.378906 C 271.445312 144.074219 270.78125 144.238281 270.476562 144.746094 C 267.589844 149.523438 266.972656 154.246094 268.773438 157.699219 C 270.0625 160.167969 272.484375 161.785156 275.679688 162.363281 C 272.617188 167.890625 260.027344 189.566406 238.910156 212.300781 C 216.476562 236.457031 179.546875 266.78125 131.03125 274.070312 C 104.382812 278.074219 84.199219 273.496094 71.042969 260.464844 C 50.394531 240.015625 53.695312 204.851562 54.210938 200.390625 C 63.246094 196.6875 70.894531 187.804688 71.378906 180.332031 C 71.417969 179.738281 70.96875 179.230469 70.375 179.191406 C 69.796875 179.15625 69.273438 179.601562 69.234375 180.195312 C 68.789062 187.066406 61.449219 195.328125 52.875 198.613281 C 48.226562 200.390625 43.957031 200.347656 41.453125 198.496094 C 39.773438 197.253906 38.976562 195.273438 39.152344 192.765625 C 39.191406 192.175781 38.746094 191.660156 38.152344 191.621094 C 37.558594 191.574219 37.046875 192.023438 37.007812 192.617188 C 36.785156 195.84375 37.910156 198.546875 40.175781 200.222656 Z M 255.113281 300.902344 L 252.851562 302.679688 C 235.058594 316.710938 202.058594 332.230469 170.738281 341.300781 C 156.578125 345.402344 134.757812 350.457031 113.300781 350.457031 C 100.300781 350.457031 87.4375 348.601562 76.484375 343.554688 C 29.71875 321.996094 11.515625 280.109375 10.265625 277.109375 C 0.226562 255.902344 0.265625 228.859375 10.695312 199.117188 C 23.734375 161.925781 51.808594 123.945312 89.742188 92.167969 C 127.8125 60.277344 171.800781 38.042969 213.601562 29.558594 C 259.824219 20.183594 298.730469 28.777344 320.347656 53.144531 C 320.90625 53.769531 321.449219 54.410156 321.980469 55.054688 C 321.984375 55.058594 321.984375 55.0625 321.988281 55.066406 L 322.007812 55.085938 C 322.15625 55.265625 322.296875 55.449219 322.441406 55.632812 L 345.453125 84.308594 C 353.257812 94.03125 358.402344 105.5 360.332031 117.476562 C 374.742188 206.808594 287.832031 275.167969 255.113281 300.902344 Z M 12.167969 276.09375 C 12.175781 276.113281 12.1875 276.132812 12.195312 276.152344 C 12.199219 276.160156 12.207031 276.183594 12.222656 276.214844 C 14.582031 281.199219 17.507812 285.851562 21.007812 290.117188 C 40.039062 313.3125 73.597656 322.835938 115.503906 316.933594 C 158.714844 310.851562 204.902344 289.457031 245.5625 256.691406 C 286.378906 223.800781 316.101562 183.847656 329.257812 144.1875 C 340.917969 109.046875 337.882812 78.242188 320.78125 56.992188 L 320.34375 56.449219 C 319.820312 55.816406 319.289062 55.1875 318.742188 54.566406 C 303.273438 37.136719 278.625 27.996094 248.660156 27.996094 C 237.757812 27.996094 226.15625 29.207031 214.03125 31.664062 C 172.570312 40.078125 128.921875 62.148438 91.121094 93.8125 C 53.480469 125.347656 25.636719 162.996094 12.722656 199.828125 C 2.503906 228.972656 2.417969 255.414062 12.167969 276.09375 Z M 358.210938 117.820312 C 356.335938 106.207031 351.34375 95.085938 343.777344 85.652344 L 331.460938 70.304688 C 340.691406 90.632812 340.75 116.378906 331.300781 144.863281 C 318.015625 184.910156 288.046875 225.21875 246.914062 258.363281 C 205.957031 291.367188 159.394531 312.925781 115.804688 319.0625 C 107.601562 320.21875 99.707031 320.789062 92.171875 320.789062 C 63.359375 320.789062 39.75 312.4375 23.847656 296.453125 C 33.90625 310.761719 51.03125 329.457031 77.382812 341.601562 C 105.777344 354.691406 147.6875 345.738281 170.140625 339.238281 C 201.21875 330.238281 233.925781 314.871094 251.523438 300.996094 L 253.785156 299.214844 C 286.230469 273.691406 372.417969 205.902344 358.210938 117.820312 Z M 358.210938 117.820312 " fill-opacity="1" fill-rule="nonzero"/></svg>